<svg width="20" height="20" viewBox="0 0 20 20" fill="none" xmlns="http://www.w3.org/2000/svg" color="#010713">
<path d="M12.8961 1.89977H4.89327C4.26186 1.89977 3.75 2.41163 3.75 3.04304L3.75 16.9339C3.75 17.5653 4.26186 18.0771 4.89327 18.0771H15.7543C16.3857 18.0771 16.8976 17.5653 16.8976 16.9339V6.47283M12.8961 1.89977L16.8976 6.47283M12.8961 1.89977V5.32957C12.8961 5.96097 13.408 6.47283 14.0394 6.47283H16.8976" stroke="currentColor" stroke-width="1.58" stroke-linecap="round"/>
<path d="M6 15.3065V13.7655M6 13.7655V11.8478C6 11.8458 6.0015 11.844 6.00358 11.8439C6.57182 11.798 7.70519 11.922 7.72117 12.7848C7.73718 13.6494 6.58039 13.7988 6 13.7655Z" stroke="currentColor" stroke-linecap="round"/>
<path d="M9.13867 15.3207V11.8384C9.13867 11.8365 9.13991 11.835 9.14173 11.8346C9.97759 11.683 11.6432 11.9994 11.6432 13.4125C11.6432 14.8253 9.97822 15.3643 9.14221 15.3245C9.14017 15.3244 9.13867 15.3227 9.13867 15.3207Z" stroke="currentColor" stroke-linecap="round"/>
<path d="M14.9848 11.8441H13.0274C13.0252 11.8441 13.0234 11.8459 13.0234 11.8481V13.3251M13.0234 15.2864V13.3251M13.0234 13.3251H14.5745" stroke="currentColor" stroke-linecap="round"/>
</svg>
