<svg width="22" height="22" viewBox="0 0 22 22" fill="none" xmlns="http://www.w3.org/2000/svg" color="#4485F9">
<path d="M19.5266 6.51458C19.5266 6.46875 19.4807 6.42292 19.4807 6.33125V6.28542C19.4349 6.23958 19.4349 6.19375 19.3891 6.14792L13.6141 0.41875C13.5682 0.372917 13.5224 0.327083 13.4766 0.327083H13.4307C13.3849 0.28125 13.3391 0.28125 13.2932 0.28125C13.2474 0.28125 13.2016 0.28125 13.1557 0.28125H4.76823C3.4849 0.28125 2.47656 1.33542 2.47656 2.57292V19.4854C2.47656 20.7688 3.53073 21.7771 4.76823 21.7771H17.2349C18.5182 21.7771 19.5266 20.7229 19.5266 19.4854V6.65208C19.5266 6.60625 19.5266 6.56042 19.5266 6.51458ZM17.1891 5.96458H14.7599C14.2557 5.96458 13.8432 5.55208 13.8432 5.04792V2.57292L17.1891 5.96458ZM17.2349 20.4021H4.76823C4.26406 20.4021 3.85156 19.9896 3.85156 19.4854V2.52708C3.85156 2.02292 4.26406 1.61042 4.76823 1.61042H12.4224V5.00208C12.4224 6.28542 13.4766 7.29375 14.7141 7.29375H18.1057V19.4396C18.1516 19.9896 17.7391 20.4021 17.2349 20.4021Z" fill="currentColor"/>
<path d="M6.875 12.4688H6.41667H5.95833H5.5V12.9271V15.1271V17.0521H6.41667V15.5854H6.875C7.74583 15.5854 8.43333 14.8979 8.43333 14.0271C8.43333 13.2021 7.74583 12.4688 6.875 12.4688ZM6.875 14.6687H6.41667V13.4312H6.875C7.24167 13.4312 7.51667 13.7062 7.51667 14.0729C7.51667 14.3937 7.24167 14.6687 6.875 14.6687Z" fill="currentColor"/>
<path d="M10.774 12.4688H9.53646C9.26146 12.4688 9.07812 12.6521 9.07812 12.9271V16.5479C9.07812 16.8229 9.26146 17.0062 9.53646 17.0062H10.774C12.0115 17.0062 13.0656 15.9979 13.0656 14.7146C13.0656 13.4312 12.0573 12.4688 10.774 12.4688ZM10.774 16.1354H9.99479V13.4312H10.774C11.5073 13.4312 12.149 14.0271 12.149 14.8062C12.149 15.5854 11.5531 16.1354 10.774 16.1354Z" fill="currentColor"/>
<path d="M13.6562 12.9271V14.3021V15.2187V17.0521H14.5729V15.2187H16.3146V14.3021H14.5729V13.3854H16.4979V12.4688H14.0688C13.8396 12.4688 13.6562 12.6979 13.6562 12.9271Z" fill="currentColor"/>
</svg>
