<svg width="16" height="16" viewBox="0 0 16 16" fill="none" xmlns="http://www.w3.org/2000/svg" color="#8A95A8">
<path fill-rule="evenodd" clip-rule="evenodd" d="M6.90073 1.85509C7.02866 1.70162 7.18733 1.57666 7.36652 1.48829C7.54571 1.39991 7.74144 1.35007 7.94107 1.34199C8.14071 1.33391 8.33982 1.36776 8.52557 1.44136C8.71132 1.51496 8.87957 1.62668 9.01949 1.76931L9.09669 1.85509L11.9074 5.22766H14.0412C14.1912 5.22735 14.3396 5.25872 14.4766 5.31973C14.6137 5.38074 14.7363 5.47002 14.8364 5.5817C14.9366 5.69339 15.012 5.82498 15.0578 5.96784C15.1035 6.1107 15.1186 6.26162 15.102 6.41071L15.0362 6.95827L14.9647 7.48725L14.9061 7.88326L14.8382 8.30859L14.761 8.75536L14.6738 9.21857L14.5766 9.69107C14.5251 9.92935 14.4698 10.1674 14.4107 10.4052C14.2525 11.0328 14.0539 11.6496 13.816 12.2516L13.658 12.6376L13.5051 12.9864L13.3607 13.2967L13.2935 13.4354L13.1155 13.7856C12.8867 14.2217 12.455 14.479 11.9982 14.5162L11.8838 14.5205H4.10645C3.85655 14.5223 3.61083 14.4563 3.39554 14.3294C3.18025 14.2025 3.00347 14.0195 2.88409 13.7999L2.71825 13.4782L2.58958 13.2138L2.52167 13.0672L2.37871 12.7463C2.05224 11.9882 1.78738 11.2051 1.58668 10.4045C1.54787 10.249 1.51069 10.0932 1.47516 9.93697L1.37366 9.47376L1.28287 9.02056L1.20281 8.58237L1.13133 8.16276L1.06914 7.76674L1.01624 7.40004L0.951905 6.91181L0.904726 6.51436L0.892574 6.40499C0.877787 6.26455 0.891075 6.12258 0.931663 5.98732C0.972252 5.85207 1.03933 5.72624 1.129 5.61715C1.21867 5.50806 1.32913 5.41788 1.45397 5.35188C1.57881 5.28587 1.71552 5.24535 1.85617 5.23267L1.95338 5.22766H4.09001L6.90073 1.85509ZM6.54117 8.6031C6.49281 8.43444 6.38412 8.28945 6.23578 8.19575C6.08744 8.10205 5.90982 8.06618 5.73674 8.09497C5.56366 8.12375 5.40722 8.21519 5.2972 8.35186C5.18717 8.48854 5.13126 8.6609 5.1401 8.83613L5.14939 8.91905L5.50681 11.0635L5.52468 11.145C5.57304 11.3137 5.68173 11.4587 5.83007 11.5524C5.97841 11.6461 6.15603 11.682 6.32911 11.6532C6.50219 11.6244 6.65863 11.5329 6.76865 11.3963C6.87868 11.2596 6.93459 11.0872 6.92575 10.912L6.91646 10.8291L6.55904 8.68459L6.54117 8.6031ZM10.2604 8.097C10.0877 8.06818 9.91033 8.1038 9.76208 8.19709C9.61384 8.29039 9.50501 8.43486 9.45625 8.6031L9.43838 8.68459L9.08097 10.8291C9.05113 11.0089 9.09113 11.1934 9.1928 11.3447C9.29447 11.496 9.45012 11.6028 9.62791 11.6432C9.80569 11.6835 9.99218 11.6544 10.1492 11.5618C10.3063 11.4692 10.422 11.3201 10.4727 11.145L10.4906 11.0635L10.848 8.91905C10.879 8.73213 10.8346 8.54055 10.7244 8.38641C10.6142 8.23226 10.4473 8.12817 10.2604 8.097ZM7.99871 2.77007L5.95072 5.22766H10.0467L7.99871 2.77007Z" fill="currentColor"/>
</svg>
