<svg width="24" height="24" viewBox="0 0 24 24" fill="none" xmlns="http://www.w3.org/2000/svg" color="#8A95A8">
<path fill-rule="evenodd" clip-rule="evenodd" d="M21.7754 11.5889C21.7754 17.1117 17.2982 21.5889 11.7754 21.5889C6.25254 21.5889 1.77539 17.1117 1.77539 11.5889C1.77539 6.06602 6.25254 1.58887 11.7754 1.58887C17.2982 1.58887 21.7754 6.06602 21.7754 11.5889ZM15.3381 8.57532C15.3381 10.5434 13.7427 12.1389 11.7745 12.1389C9.80641 12.1389 8.21094 10.5434 8.21094 8.57532C8.21094 6.6072 9.80641 5.01172 11.7745 5.01172C13.7427 5.01172 15.3381 6.6072 15.3381 8.57532ZM18.0072 15.1664C18.0897 15.3611 18.0698 15.5826 17.9585 15.7623C16.9538 17.3846 14.0748 18.711 11.7752 18.711C9.48743 18.711 7.28256 17.7209 5.74358 15.8453C5.55769 15.6188 5.50898 15.3068 5.64529 15.0474C6.19213 14.0066 7.341 12.999 8.14111 12.5467C8.38243 12.4102 8.67309 12.4471 8.90991 12.5912C9.7325 13.0917 10.775 13.6225 11.7752 13.6225C12.7591 13.6225 13.7949 13.1089 14.605 12.6158C14.8623 12.4591 15.1807 12.4295 15.4405 12.5821C16.2718 13.0705 17.5446 14.0751 18.0072 15.1664Z" fill="currentColor"/>
</svg>
