<svg width="20" height="20" viewBox="0 0 20 20" fill="none" xmlns="http://www.w3.org/2000/svg" color="#4485F9">
<g clip-path="url(#clip0_2079_17010)">
<path d="M6.66667 15.8333C7.10869 15.8333 7.53262 15.6577 7.84518 15.3452C8.15774 15.0326 8.33333 14.6087 8.33333 14.1667C8.33333 13.7246 8.15774 13.3007 7.84518 12.9882C7.53262 12.6756 7.10869 12.5 6.66667 12.5C6.22464 12.5 5.80072 12.6756 5.48816 12.9882C5.17559 13.3007 5 13.7246 5 14.1667C5 14.6087 5.17559 15.0326 5.48816 15.3452C5.80072 15.6577 6.22464 15.8333 6.66667 15.8333ZM15 15.8333C15.442 15.8333 15.866 15.6577 16.1785 15.3452C16.4911 15.0326 16.6667 14.6087 16.6667 14.1667C16.6667 13.7246 16.4911 13.3007 16.1785 12.9882C15.866 12.6756 15.442 12.5 15 12.5C14.558 12.5 14.1341 12.6756 13.8215 12.9882C13.5089 13.3007 13.3333 13.7246 13.3333 14.1667C13.3333 14.6087 13.5089 15.0326 13.8215 15.3452C14.1341 15.6577 14.558 15.8333 15 15.8333Z" stroke="currentColor" stroke-width="1.8" stroke-miterlimit="1.5" stroke-linecap="round" stroke-linejoin="round"/>
<path d="M8.37565 14.167H12.5007V4.18617C12.5007 4.03345 12.448 3.88699 12.3542 3.779C12.2604 3.67102 12.1333 3.61035 12.0007 3.61035H0.833984M4.70898 14.167H3.00065C2.93499 14.167 2.86997 14.1521 2.80931 14.1232C2.74865 14.0942 2.69353 14.0518 2.6471 13.9983C2.60067 13.9449 2.56384 13.8814 2.53871 13.8115C2.51358 13.7417 2.50065 13.6668 2.50065 13.5912V8.88867" stroke="currentColor" stroke-width="1.8" stroke-linecap="round"/>
<path d="M1.66699 6.15527H5.00033" stroke="currentColor" stroke-width="2" stroke-linecap="round" stroke-linejoin="round"/>
<path d="M12.5 6.62598H17.175C17.2716 6.626 17.3662 6.65771 17.4473 6.71727C17.5283 6.77682 17.5924 6.86167 17.6317 6.96154L19.1233 10.7583C19.1518 10.8304 19.1665 10.9084 19.1667 10.9873V13.6011C19.1667 13.6754 19.1537 13.7489 19.1286 13.8175C19.1035 13.8862 19.0666 13.9485 19.0202 14.001C18.9738 14.0535 18.9187 14.0952 18.858 14.1236C18.7973 14.152 18.7323 14.1667 18.6667 14.1667H17.0833M12.5 14.1667H13.3333" stroke="currentColor" stroke-width="1.8" stroke-linecap="round"/>
</g>
<defs>
<clipPath id="clip0_2079_17010">
<rect width="20" height="20" fill="white"/>
</clipPath>
</defs>
</svg>
