<svg width="88" height="88" viewBox="0 0 88 88" fill="none" xmlns="http://www.w3.org/2000/svg" color="#E6EDFA">
<path d="M37.2327 25.0996L31.7095 29.3346V8.41127H44.5774V29.3345L39.0393 25.0995C38.7818 24.897 38.4635 24.7874 38.1359 24.7885C37.8088 24.7898 37.4913 24.8992 37.2327 25.0996ZM67.6752 15.8676V9.33746C67.674 9.09434 67.5769 8.86152 67.405 8.68961C67.2331 8.5177 67.0002 8.42059 66.7571 8.41939L47.5389 8.41132V16.7924L66.7571 16.8005C67.0018 16.7959 67.2349 16.6957 67.4065 16.5213C67.5781 16.3469 67.6745 16.1123 67.6752 15.8676ZM28.748 8.41127L9.55468 8.27612C9.31 8.27676 9.07531 8.37323 8.90092 8.54486C8.72653 8.71649 8.62633 8.94961 8.62179 9.19425V15.7244C8.62576 15.9706 8.72532 16.2056 8.89942 16.3797C9.07352 16.5538 9.30851 16.6533 9.55468 16.6573L28.748 16.7924V8.41127ZM82.4999 58.9053C81.3683 86.4828 42.0523 86.4837 40.9201 58.9057C40.6439 44.7223 55.739 34.2895 68.8916 39.3889C72.8812 40.8634 76.3237 43.524 78.7565 47.0129C81.1892 50.5019 82.4956 54.652 82.4999 58.9053ZM63.7977 58.9055L71.6902 51.0278C71.9598 50.749 72.1094 50.3757 72.1068 49.9879C72.1043 49.6 71.9498 49.2287 71.6765 48.9535C71.4033 48.6783 71.033 48.5212 70.6453 48.5159C70.2575 48.5105 69.8831 48.6575 69.6024 48.9251L61.7099 56.8176L53.8174 48.9251C53.6805 48.7878 53.5177 48.6788 53.3386 48.6045C53.1595 48.5302 52.9674 48.4919 52.7735 48.4919C52.5795 48.4919 52.3875 48.5302 52.2083 48.6045C52.0292 48.6788 51.8665 48.7878 51.7295 48.9251C51.4521 49.2047 51.2964 49.5825 51.2964 49.9764C51.2964 50.3703 51.4521 50.7482 51.7295 51.0277L59.622 58.9055L51.7295 66.798C51.5922 66.9349 51.4833 67.0977 51.409 67.2768C51.3347 67.4559 51.2964 67.6479 51.2964 67.8419C51.2964 68.0358 51.3347 68.2278 51.409 68.407C51.4833 68.5861 51.5922 68.7488 51.7295 68.8858C51.8647 69.0263 52.0268 69.138 52.2062 69.2144C52.3856 69.2907 52.5785 69.3301 52.7735 69.3301C52.9684 69.3301 53.1614 69.2907 53.3408 69.2144C53.5201 69.138 53.6823 69.0263 53.8174 68.8858L61.7099 60.9934L69.6023 68.8857C70.9632 70.2788 73.0492 68.1539 71.6903 66.798L63.7977 58.9055ZM61.7099 35.1539C63.7288 35.1515 65.7396 35.4104 67.6922 35.9239V19.7539H47.5389V32.3405C47.54 32.6175 47.4632 32.8892 47.3171 33.1246C47.1711 33.36 46.9617 33.5495 46.7131 33.6716C46.4644 33.7936 46.1864 33.8432 45.9108 33.8147C45.6353 33.7862 45.3733 33.6807 45.1549 33.5103L38.136 28.1351L31.1172 33.5103C30.8974 33.6765 30.6365 33.7795 30.3624 33.8082C30.0884 33.8369 29.8118 33.7902 29.5624 33.6732C29.3162 33.5486 29.1097 33.3579 28.9658 33.1225C28.822 32.8871 28.7465 32.6163 28.748 32.3404V19.7539H8.59473V63.0516C8.64611 63.9808 9.0623 64.8521 9.75278 65.4761C10.4433 66.1 11.3522 66.4261 12.2818 66.3833H39.1577C33.9426 51.4418 45.8151 34.8725 61.7099 35.1539Z" fill="currentColor"/>
</svg>
