<svg width="20" height="20" viewBox="0 0 20 20" fill="none" xmlns="http://www.w3.org/2000/svg" color="#FF3C6B">
<path d="M14.4107 1.45996C13.5088 1.4735 12.6266 1.71651 11.8532 2.16445C11.0797 2.61238 10.4424 3.24938 10.0056 4.01112C9.56883 3.24938 8.93153 2.61238 8.15808 2.16445C7.38462 1.71651 6.50241 1.4735 5.60053 1.45996C4.16282 1.52025 2.80826 2.12732 1.83279 3.14854C0.857326 4.16976 0.340239 5.52212 0.394502 6.91016C0.394502 11.2664 9.56453 18.4538 9.56453 18.4538C9.82735 18.6422 10.1824 18.6427 10.4448 18.4538C10.4448 18.4538 19.6167 11.2807 19.6167 6.91016C19.671 5.52212 19.1539 4.16976 18.1785 3.14854C17.203 2.12732 15.8484 1.52025 14.4107 1.45996Z" fill="currentColor"/>
</svg>
