<svg width="22" height="22" viewBox="0 0 22 22" fill="none" xmlns="http://www.w3.org/2000/svg" color="#010713">
<path d="M8.61371 13.1762C6.2371 13.3835 4.15008 15.0456 3.68428 17.0028C3.53564 17.6286 3.53715 18.0803 3.66112 18.388C3.75262 18.615 3.94258 18.8481 4.46077 19.0198L18.3003 19.0748C18.9778 18.9338 19.2117 18.68 19.32 18.4475C19.4664 18.1333 19.4808 17.6431 19.3054 16.949C18.8588 15.1832 17.0995 13.6615 14.9964 13.2703M8.61371 13.1762C9.32773 13.1137 10.5997 13.0743 11.8811 13.0846M8.61371 13.1762L11.8811 13.0846M14.9964 13.2703C14.3832 13.1567 13.1832 13.0951 11.8811 13.0846M14.9964 13.2703L11.8811 13.0846" stroke="currentColor" stroke-width="1.75"/>
<path d="M11.6035 10.1348C13.6563 10.1348 15.3204 8.47074 15.3204 6.41799C15.3204 4.36525 13.6563 2.70117 11.6035 2.70117C9.5508 2.70117 7.88672 4.36525 7.88672 6.41799C7.88672 8.47074 9.5508 10.1348 11.6035 10.1348Z" stroke="currentColor" stroke-width="1.75273"/>
</svg>
