<svg width="20" height="20" viewBox="0 0 20 20" fill="none" xmlns="http://www.w3.org/2000/svg" color="#4485F9">
<g clip-path="url(#clip0_211_7070)">
<path d="M13.8882 11.666C12.7771 12.7771 12.7771 13.8882 11.666 13.8882C10.5549 13.8882 9.44378 12.7771 8.33268 11.666C7.22158 10.5549 6.11045 9.44378 6.11045 8.33268C6.11045 7.22158 7.22155 7.22158 8.33268 6.11045C9.44382 4.99932 6.11045 1.66602 4.99935 1.66602C3.88825 1.66602 1.66602 4.99935 1.66602 4.99935C1.66602 7.22158 3.94902 11.7268 6.11045 13.8882C8.27188 16.0497 12.7771 18.3327 14.9993 18.3327C14.9993 18.3327 18.3327 16.1104 18.3327 14.9993C18.3327 13.8882 14.9993 10.5549 13.8882 11.666Z" stroke="currentColor" stroke-width="1.7"/>
</g>
<defs>
<clipPath id="clip0_211_7070">
<rect width="20" height="20" fill="white"/>
</clipPath>
</defs>
</svg>
