<svg width="260" height="52" viewBox="0 0 260 52" fill="none" xmlns="http://www.w3.org/2000/svg">
<path d="M11.5669 41.6342C9.58825 41.6342 7.85 41.2583 6.35218 40.5065C4.85434 39.7362 3.6801 38.6819 2.82949 37.3434C1.99736 35.9862 1.5813 34.4368 1.5813 32.6946V32.667C1.5813 30.87 2.03435 29.3388 2.94044 28.0735C3.84655 26.79 5.15946 25.7814 6.8792 25.0477C8.61742 24.2959 10.7162 23.8468 13.1756 23.7001L24.7422 22.9849V27.9634L14.3961 28.6236C12.8243 28.7155 11.6223 29.0821 10.7902 29.7241C9.97656 30.3474 9.56974 31.1909 9.56974 32.2545V32.282C9.56974 33.3823 9.9858 34.2442 10.8179 34.8677C11.6685 35.4729 12.7966 35.7753 14.2019 35.7753C15.4039 35.7753 16.4764 35.5461 17.4195 35.0876C18.3811 34.611 19.1392 33.9599 19.694 33.1348C20.2487 32.3095 20.5261 31.3926 20.5261 30.384V21.362C20.5261 20.06 20.1008 19.0331 19.2502 18.2812C18.4181 17.5294 17.2069 17.1535 15.6166 17.1535C14.1002 17.1535 12.8983 17.4561 12.0107 18.0612C11.1231 18.6663 10.5683 19.4457 10.3464 20.3993L10.2909 20.6468H2.88496L2.91271 20.3167C3.07913 18.5013 3.68937 16.8967 4.7434 15.5031C5.81591 14.0911 7.29526 12.9908 9.18142 12.2023C11.0861 11.3955 13.3513 10.992 15.9771 10.992C18.5475 10.992 20.7758 11.4046 22.662 12.2298C24.5482 13.055 26.009 14.2103 27.0444 15.6956C28.0986 17.181 28.6256 18.9139 28.6256 20.8944V41.1667H20.5261V36.8205H20.3319C19.7772 37.8109 19.056 38.6728 18.1684 39.4062C17.2993 40.1215 16.31 40.6716 15.2005 41.0566C14.091 41.4418 12.8798 41.6342 11.5669 41.6342ZM34.062 50.8215V11.5972H42.1616V16.7134H42.3556C42.9103 15.5214 43.6224 14.5037 44.4915 13.6602C45.379 12.8166 46.4054 12.1656 47.5704 11.7072C48.7537 11.2487 50.0483 11.0195 51.4536 11.0195C53.9684 11.0195 56.1321 11.6339 57.9442 12.8625C59.7563 14.0728 61.1525 15.824 62.1326 18.1162C63.1127 20.4084 63.6028 23.1591 63.6028 26.3681V26.3956C63.6028 29.5865 63.1127 32.328 62.1326 34.6201C61.171 36.9124 59.7841 38.6819 57.972 39.9288C56.1782 41.1576 54.0425 41.7718 51.5646 41.7718C50.1407 41.7718 48.8278 41.5426 47.6259 41.0841C46.4424 40.6256 45.3976 39.9839 44.4915 39.1586C43.6038 38.3151 42.892 37.3158 42.3556 36.1606H42.1616V50.8215H34.062ZM48.7631 35.1152C50.1315 35.1152 51.3057 34.7577 52.2858 34.0424C53.2657 33.3272 54.0239 32.328 54.5603 31.0442C55.0964 29.7423 55.3645 28.1927 55.3645 26.3956V26.3681C55.3645 24.5527 55.0964 22.994 54.5603 21.692C54.0239 20.3901 53.2566 19.3999 52.2581 18.7213C51.2779 18.0245 50.113 17.6761 48.7631 17.6761C47.45 17.6761 46.2945 18.0337 45.2958 18.7489C44.2973 19.4457 43.5114 20.4451 42.9381 21.747C42.3833 23.049 42.1061 24.5986 42.1061 26.3956V26.4231C42.1061 28.1836 42.3833 29.7147 42.9381 31.0167C43.5114 32.3186 44.2973 33.3272 45.2958 34.0424C46.2945 34.7577 47.45 35.1152 48.7631 35.1152ZM79.9402 41.7168C76.6118 41.7168 74.1523 41.0384 72.5619 39.6814C70.9717 38.3244 70.1764 36.078 70.1764 32.9422V17.6486H65.988V11.5972H70.1764V4.41796H78.3592V11.5972H83.8789V17.6486H78.3592V31.9796C78.3592 33.3365 78.6642 34.2901 79.2745 34.8402C79.9033 35.3903 80.8371 35.6653 82.0759 35.6653C82.4458 35.6653 82.7694 35.6562 83.0469 35.6378C83.3427 35.6011 83.62 35.5645 83.8789 35.5279V41.4143C83.4166 41.4875 82.8526 41.5517 82.1869 41.6067C81.5398 41.6802 80.7908 41.7168 79.9402 41.7168ZM101.659 41.7718C98.6261 41.7718 96.0095 41.1576 93.8089 39.9288C91.6269 38.6819 89.9443 36.9124 88.7608 34.6201C87.5958 32.3095 87.0133 29.5865 87.0133 26.4507V26.4231C87.0133 23.2873 87.5958 20.5643 88.7608 18.2537C89.9443 15.9432 91.6085 14.1553 93.7536 12.89C95.8985 11.6247 98.4227 10.992 101.326 10.992C104.248 10.992 106.763 11.6063 108.871 12.835C110.997 14.0636 112.634 15.7965 113.78 18.0337C114.945 20.2525 115.528 22.8473 115.528 25.818V28.2936H91.0075V23.2325H111.7L107.844 27.9634V24.8553C107.844 23.1315 107.576 21.692 107.04 20.5368C106.504 19.3632 105.755 18.483 104.793 17.8962C103.85 17.291 102.74 16.9884 101.465 16.9884C100.207 16.9884 99.0884 17.3002 98.1083 17.9237C97.1468 18.5288 96.3886 19.4182 95.8339 20.5918C95.2791 21.7655 95.0016 23.1866 95.0016 24.8553V27.9909C95.0016 29.6231 95.2791 31.026 95.8339 32.1995C96.3886 33.3547 97.1745 34.2442 98.1915 34.8677C99.2086 35.4729 100.42 35.7753 101.825 35.7753C102.953 35.7753 103.924 35.6102 104.738 35.2803C105.551 34.9319 106.208 34.4918 106.707 33.9599C107.225 33.4282 107.576 32.8963 107.761 32.3646L107.817 32.1995H115.278L115.195 32.5022C114.973 33.5658 114.538 34.6476 113.891 35.7478C113.244 36.8299 112.365 37.8291 111.256 38.7461C110.165 39.663 108.824 40.3964 107.234 40.9465C105.644 41.4966 103.785 41.7718 101.659 41.7718ZM120.188 41.1667V1.28223H128.287V41.1667H120.188ZM138.938 41.1667L129.757 28.1285L134.944 22.1321L148.313 41.1667H138.938ZM127.344 32.4196L127.316 23.4249H128.481L138.55 11.5972H147.731L134.112 26.9457L132.087 27.2484L127.344 32.4196ZM159.409 41.6342C157.43 41.6342 155.692 41.2583 154.194 40.5065C152.696 39.7362 151.522 38.6819 150.671 37.3434C149.839 35.9862 149.423 34.4368 149.423 32.6946V32.667C149.423 30.87 149.876 29.3388 150.782 28.0735C151.688 26.79 153.001 25.7814 154.721 25.0477C156.459 24.2959 158.558 23.8468 161.017 23.7001L172.584 22.9849V27.9634L162.238 28.6236C160.666 28.7155 159.464 29.0821 158.632 29.7241C157.818 30.3474 157.411 31.1909 157.411 32.2545V32.282C157.411 33.3823 157.827 34.2442 158.66 34.8677C159.51 35.4729 160.638 35.7753 162.044 35.7753C163.246 35.7753 164.318 35.5461 165.261 35.0876C166.223 34.611 166.981 33.9599 167.536 33.1348C168.09 32.3095 168.368 31.3926 168.368 30.384V21.362C168.368 20.06 167.943 19.0331 167.092 18.2812C166.26 17.5294 165.048 17.1535 163.458 17.1535C161.942 17.1535 160.74 17.4561 159.852 18.0612C158.965 18.6663 158.41 19.4457 158.188 20.3993L158.133 20.6468H150.727L150.754 20.3167C150.921 18.5013 151.531 16.8967 152.585 15.5031C153.658 14.0911 155.137 12.9908 157.023 12.2023C158.928 11.3955 161.193 10.992 163.819 10.992C166.389 10.992 168.617 11.4046 170.504 12.2298C172.39 13.055 173.851 14.2103 174.886 15.6956C175.94 17.181 176.467 18.9139 176.467 20.8944V41.1667H168.368V36.8205H168.174C167.619 37.8109 166.898 38.6728 166.01 39.4062C165.141 40.1215 164.152 40.6716 163.042 41.0566C161.933 41.4418 160.722 41.6342 159.409 41.6342ZM215.355 41.7718C213.932 41.7718 212.619 41.5426 211.417 41.0841C210.233 40.6256 209.198 39.9839 208.31 39.1586C207.441 38.3335 206.738 37.3434 206.202 36.1879H206.008V41.1667H197.909V1.28223H206.008V16.7134H206.202C206.738 15.5214 207.45 14.5037 208.338 13.6602C209.244 12.7983 210.289 12.1473 211.472 11.7072C212.656 11.2487 213.95 11.0195 215.355 11.0195C217.87 11.0195 220.024 11.6339 221.817 12.8625C223.631 14.0728 225.027 15.824 226.006 18.1162C226.987 20.4084 227.476 23.1591 227.476 26.3681V26.3956C227.476 29.5865 226.987 32.328 226.006 34.6201C225.044 36.9124 223.648 38.6819 221.817 39.9288C220.006 41.1576 217.852 41.7718 215.355 41.7718ZM212.637 35.1152C214.006 35.1152 215.18 34.7668 216.16 34.07C217.158 33.3547 217.917 32.3462 218.434 31.0442C218.971 29.7423 219.239 28.1927 219.239 26.3956V26.3681C219.239 24.5527 218.971 23.0033 218.434 21.7195C217.898 20.4176 217.131 19.4182 216.132 18.7213C215.152 18.0245 213.987 17.6761 212.637 17.6761C211.324 17.6761 210.169 18.0337 209.17 18.7489C208.171 19.4457 207.385 20.4451 206.812 21.747C206.257 23.049 205.98 24.5895 205.98 26.3681V26.3956C205.98 28.1745 206.257 29.7147 206.812 31.0167C207.385 32.3186 208.171 33.3272 209.17 34.0424C210.169 34.7577 211.324 35.1152 212.637 35.1152ZM235.381 50.9589C234.623 50.9589 233.884 50.9223 233.163 50.8491C232.442 50.794 231.842 50.7297 231.361 50.6564V44.66C231.656 44.715 232.025 44.77 232.469 44.8251C232.932 44.8801 233.45 44.9076 234.022 44.9076C235.261 44.9076 236.242 44.6966 236.963 44.275C237.684 43.8715 238.211 43.1654 238.545 42.1568L238.905 41.1667L228.365 11.5972H237.269L244.035 36.408L242.899 34.6476H244.479L243.343 36.408L250.112 11.5972H258.654L248.447 41.6617C247.651 43.9907 246.662 45.8337 245.48 47.1906C244.295 48.5658 242.871 49.5378 241.206 50.1063C239.561 50.6746 237.621 50.9589 235.381 50.9589Z" fill="#010713"/>
<path d="M187.035 41.7062C185.584 41.7062 184.357 41.2089 183.354 40.2144C182.351 39.2202 181.85 38.0034 181.85 36.5647C181.85 35.1258 182.351 33.9092 183.354 32.9147C184.357 31.9202 185.584 31.423 187.035 31.423C188.486 31.423 189.712 31.9202 190.715 32.9147C191.718 33.9092 192.219 35.1258 192.219 36.5647C192.219 38.0034 191.718 39.2202 190.715 40.2144C189.712 41.2089 188.486 41.7062 187.035 41.7062Z" fill="#FF3C6B"/>
</svg>
