<svg width="16" height="16" viewBox="0 0 16 16" fill="none" xmlns="http://www.w3.org/2000/svg" color="#010713">
<path d="M2.59717 1.27403C2.23179 0.908657 1.63941 0.908657 1.27403 1.27403C0.908657 1.63941 0.908657 2.23179 1.27403 2.59717L6.67687 8L1.27408 13.4028C0.908709 13.7681 0.908709 14.3606 1.27408 14.7259C1.63946 15.0914 2.23185 15.0914 2.59722 14.7259L8 9.32313L13.4028 14.7259C13.7681 15.0914 14.3606 15.0914 14.7259 14.7259C15.0914 14.3606 15.0914 13.7681 14.7259 13.4028L9.32313 8L14.726 2.59717C15.0914 2.23179 15.0914 1.63941 14.726 1.27403C14.3607 0.908657 13.7682 0.908657 13.4029 1.27403L8 6.67687L2.59717 1.27403Z" fill="currentColor"/>
</svg>
