<svg width="88" height="88" viewBox="0 0 88 88" fill="none" xmlns="http://www.w3.org/2000/svg" color="#E6EDFA">
<path d="M39.2749 44.117L43.4328 38.7042V74.9713L13.2846 63.6506C12.71 63.4238 12.332 62.8644 12.332 62.2445V37.6005L33.0911 45.2359L33.2271 45.2812L34.0436 45.5836C34.5576 45.7953 35.1171 45.9011 35.6916 45.9011C37.1128 45.9011 38.4585 45.2056 39.2749 44.117Z" fill="currentColor"/>
<path d="M76.3021 38.2358V61.7775C76.3021 62.3974 75.9241 62.9569 75.3496 63.1837L45.8213 75.6251V40.1711L49.2836 44.6919C50.1303 45.8409 51.4911 46.5364 52.9274 46.5364C53.502 46.5364 54.0614 46.4306 54.5755 46.2189L76.3021 38.2358Z" fill="currentColor"/>
<path d="M81.7443 30.8729L74.0031 21.5291C73.9729 21.4988 73.9427 21.4837 73.9124 21.4686C73.8217 21.3628 73.7159 21.2872 73.61 21.2116C73.5496 21.1813 73.4891 21.1511 73.4286 21.1208C73.3832 21.1057 73.3379 21.0755 73.2925 21.0604L44.7621 12.0794C44.4597 11.9736 44.1422 11.9736 43.8398 12.0794L15.3094 21.0604C15.264 21.0755 15.2187 21.1057 15.1733 21.1208C15.1128 21.1511 15.0523 21.1813 14.9919 21.2116C14.886 21.2872 14.7802 21.3628 14.6895 21.4535C14.6592 21.4837 14.629 21.4988 14.5988 21.5291L6.8576 30.8729C6.54009 31.2509 6.41913 31.7498 6.55521 32.2337C6.67616 32.7024 7.03903 33.0803 7.49261 33.2467L35.1461 43.4069C35.3124 43.4825 35.4939 43.5128 35.6753 43.5128C36.1289 43.5128 36.5825 43.3011 36.8697 42.908L44.3085 33.2164L51.7322 42.908C52.0194 43.3011 52.473 43.5128 52.9266 43.5128C53.108 43.5128 53.2895 43.4825 53.4558 43.4069L81.1093 33.2467C81.578 33.0803 81.9257 32.7024 82.0467 32.2337C82.1828 31.7498 82.0769 31.2509 81.7443 30.8729ZM44.3085 29.1493L21.0245 22.4362L44.3085 15.1033L67.5925 22.4362L44.3085 29.1493Z" fill="currentColor"/>
</svg>
