<svg width="20" height="20" viewBox="0 0 20 20" fill="none" xmlns="http://www.w3.org/2000/svg" color="#010713">
<path d="M10 4.24805C10.4142 4.24805 10.75 3.91226 10.75 3.49805C10.75 3.08383 10.4142 2.74805 10 2.74805C9.58579 2.74805 9.25 3.08383 9.25 3.49805C9.25 3.91226 9.58579 4.24805 10 4.24805Z" fill="currentColor" stroke="currentColor" stroke-width="1.8" stroke-linecap="round" stroke-linejoin="round"/>
<path d="M10 10.748C10.4142 10.748 10.75 10.4123 10.75 9.99805C10.75 9.58383 10.4142 9.24805 10 9.24805C9.58579 9.24805 9.25 9.58383 9.25 9.99805C9.25 10.4123 9.58579 10.748 10 10.748Z" fill="currentColor" stroke="currentColor" stroke-width="1.8" stroke-linecap="round" stroke-linejoin="round"/>
<path d="M10 17.248C10.4142 17.248 10.75 16.9123 10.75 16.498C10.75 16.0838 10.4142 15.748 10 15.748C9.58579 15.748 9.25 16.0838 9.25 16.498C9.25 16.9123 9.58579 17.248 10 17.248Z" fill="currentColor" stroke="currentColor" stroke-width="1.8" stroke-linecap="round" stroke-linejoin="round"/>
</svg>
