<svg width="20" height="20" viewBox="0 0 20 20" fill="none" xmlns="http://www.w3.org/2000/svg" color="#010713">
<path d="M17.752 5.92273C17.752 5.88091 17.7101 5.83909 17.7101 5.75546V5.71364C17.6683 5.67273 17.6683 5.63091 17.6265 5.58909L12.3765 0.380002C12.3347 0.339093 12.2929 0.298183 12.252 0.298183H12.2101C12.1683 0.254547 12.1265 0.254547 12.0847 0.254547H4.33468C3.78281 0.256703 3.25418 0.47695 2.86403 0.867267C2.47388 1.25758 2.25387 1.78632 2.25195 2.33818V17.7127C2.25387 18.2646 2.47388 18.7933 2.86403 19.1836C3.25418 19.574 3.78281 19.7942 4.33468 19.7964H15.6683C16.2203 19.7944 16.7492 19.5743 17.1396 19.184C17.5299 18.7936 17.75 18.2648 17.752 17.7127V5.92273ZM15.6265 5.42273H13.4174C13.1967 5.42177 12.9853 5.3336 12.8293 5.17745C12.6733 5.02129 12.5854 4.80981 12.5847 4.58909V2.33909L15.6265 5.42273ZM15.6683 18.5473H4.33468C4.11397 18.5463 3.90258 18.4582 3.74659 18.302C3.59061 18.1458 3.50267 17.9344 3.50195 17.7136V2.29727C3.50267 2.07656 3.59061 1.86507 3.74659 1.70892C3.90258 1.55276 4.11397 1.4646 4.33468 1.46364H11.2929V4.54727C11.2948 5.0993 11.5149 5.62817 11.9053 6.01851C12.2956 6.40885 12.8245 6.62899 13.3765 6.63091H16.4601V17.6727C16.4722 17.7835 16.4607 17.8956 16.4263 18.0017C16.3919 18.1077 16.3354 18.2052 16.2606 18.2878C16.1858 18.3705 16.0944 18.4363 15.9923 18.481C15.8902 18.5257 15.7798 18.5483 15.6683 18.5473Z" fill="currentColor"/>
<path d="M6.25 11.3354H5V15.5018H5.83364V14.1682H6.25C7.04091 14.1682 7.66636 13.5436 7.66636 12.7518C7.66636 12.0018 7.04182 11.3354 6.25 11.3354ZM6.25 13.3354H5.83364V12.2091H6.25C6.58364 12.2091 6.83364 12.4591 6.83364 12.7927C6.83364 13.0836 6.58364 13.3354 6.25 13.3354ZM9.79455 11.3354H8.66909C8.41909 11.3354 8.25273 11.5018 8.25273 11.7518V15.0427C8.25273 15.2936 8.41909 15.4609 8.66909 15.4609H9.79455C10.3466 15.459 10.8754 15.2388 11.2658 14.8485C11.6561 14.4582 11.8763 13.9293 11.8782 13.3773C11.8782 12.21 10.9609 11.3354 9.79455 11.3354ZM9.79455 14.6682H9.08545V12.21H9.79455C10.4609 12.21 11.0445 12.7518 11.0445 13.46C11.0445 14.1691 10.5027 14.6682 9.79455 14.6682ZM12.4145 11.7518V15.5018H13.2482V13.8364H14.8318V13.0027H13.2482V12.1691H14.9982V11.3364H12.7891C12.5818 11.3364 12.4145 11.5445 12.4145 11.7527" fill="currentColor"/>
</svg>
