<svg width="20" height="20" viewBox="0 0 20 20" fill="none" xmlns="http://www.w3.org/2000/svg" color="#010713">
<path d="M3.85731 16.8377C3.76663 16.848 3.58435 16.848 3.49367 16.8377C1.57617 16.6163 1.6705 13.7495 3.61944 13.6885C5.67456 13.6244 5.85729 16.6064 3.85731 16.8377Z" fill="currentColor"/>
<path d="M8.3581 9.17963L17.0989 9.17188C18.2919 9.29902 18.2919 10.7147 17.0989 10.8419H8.42047C7.27821 10.7438 7.23945 9.33818 8.3581 9.17963Z" fill="currentColor"/>
<path d="M8.32027 14.5312L17.1335 14.5234C18.298 14.6901 18.2691 16.0663 17.0974 16.1934H8.41917C7.30053 16.0779 7.22658 14.749 8.32027 14.5312Z" fill="currentColor"/>
<path d="M8.35677 3.82025L17.0972 3.8125C18.268 3.93923 18.2987 5.31585 17.1333 5.4825H8.41869C7.28181 5.36933 7.23192 3.99582 8.35677 3.82025Z" fill="currentColor"/>
<path d="M2.58967 5.85528C1.1243 4.4185 3.31592 2.18434 4.77596 3.61758C6.25155 5.06545 4.04217 7.2792 2.58967 5.85528Z" fill="currentColor"/>
<path d="M3.52455 8.43131C5.67831 8.226 5.89952 11.4369 3.8046 11.5753C1.72017 11.7128 1.4684 8.62765 3.52455 8.43131Z" fill="currentColor"/>
</svg>
