<svg width="20" height="20" viewBox="0 0 20 20" fill="none" xmlns="http://www.w3.org/2000/svg" color="#8A95A8">
<path d="M17.0727 14.2842L13.6852 11.2042C13.5252 11.0584 13.3147 10.9807 13.0984 10.9874C12.8821 10.9941 12.6768 11.0847 12.5261 11.24L10.5319 13.2909C10.0519 13.1992 9.0869 12.8984 8.09357 11.9075C7.10024 10.9134 6.7994 9.94585 6.71024 9.46918L8.7594 7.47418C8.91475 7.32346 9.00535 7.1182 9.01204 6.90186C9.01872 6.68551 8.94097 6.47505 8.79524 6.31502L5.71607 2.92835C5.57027 2.76781 5.36763 2.67044 5.1512 2.6569C4.93476 2.64336 4.72157 2.71473 4.5569 2.85585L2.74857 4.40668C2.60449 4.55128 2.5185 4.74373 2.5069 4.94752C2.4944 5.15585 2.25607 10.0909 6.08274 13.9192C9.42107 17.2567 13.6027 17.5008 14.7544 17.5008C14.9227 17.5008 15.0261 17.4958 15.0536 17.4942C15.2572 17.4822 15.4493 17.3959 15.5936 17.2517L17.1436 15.4425C17.2852 15.2784 17.3571 15.0654 17.3439 14.8489C17.3307 14.6325 17.2334 14.4298 17.0727 14.2842Z" fill="currentColor"/>
</svg>
