<svg width="16" height="16" viewBox="0 0 16 16" fill="none" xmlns="http://www.w3.org/2000/svg" color="#010713">
<path fill-rule="evenodd" clip-rule="evenodd" d="M8.04608 10.1631C7.427 10.1631 6.893 9.94889 6.44405 9.52026C5.9951 9.09164 5.77063 8.57964 5.77063 7.98413C5.77063 7.38862 5.9951 6.87883 6.44405 6.45476C6.893 6.02617 7.427 5.81188 8.04608 5.81188C8.66515 5.81188 9.18258 6.02392 9.59849 6.448C10.0191 6.86756 10.2293 7.3796 10.2293 7.98413C10.2293 8.58866 10.0214 9.10293 9.6056 9.52702C9.18969 9.95111 8.66988 10.1631 8.04608 10.1631ZM2.76507 7.95706C2.76507 8.48039 3.00607 8.92026 3.4881 9.27662C6.41335 11.7038 9.42124 11.7038 12.5119 9.27662C12.9325 8.87513 13.138 8.44656 13.1286 7.9909C13.1286 7.70668 12.9916 7.41344 12.7175 7.11117C12.6229 7.01192 12.4836 6.87433 12.2992 6.69838C10.8437 5.54796 9.3504 5.00209 7.81924 5.06073C6.65197 5.10585 5.48946 5.4848 4.33164 6.19761C4.04338 6.37807 3.7622 6.57882 3.4881 6.79988C3.30852 6.97132 3.17857 7.09989 3.09823 7.18561C2.87612 7.43374 2.76507 7.69089 2.76507 7.95706ZM1 7.94353C1 7.18561 1.27645 6.54048 1.82937 6.00813V5.98106C1.84355 5.93144 1.87899 5.90662 1.9357 5.90662C3.79292 4.04339 5.747 3.0757 7.79797 3.00353C9.10702 2.95841 10.4373 3.34639 11.7889 4.16747C12.526 4.61861 13.2491 5.19833 13.958 5.90662C14.2746 6.16377 14.5275 6.47731 14.7164 6.84726C14.9055 7.2172 15 7.59841 15 7.9909C15 8.72626 14.6881 9.45031 14.0643 10.1631C12.6419 11.4534 11.2312 12.3106 9.83244 12.7347C9.29369 12.8925 8.6935 12.9805 8.0319 12.9986C7.37029 13.0121 6.72051 12.9286 6.08253 12.7482C5.4351 12.5677 4.74279 12.2429 4.00557 11.7737C3.26835 11.3045 2.54296 10.7023 1.82937 9.96693V9.87217C1.27645 9.34435 1 8.70145 1 7.94353Z" fill="currentColor"/>
</svg>
