<svg width="20" height="20" viewBox="0 0 20 20" fill="none" xmlns="http://www.w3.org/2000/svg" color="#010713">
<path d="M18.576 15.0864L14.5595 11.4351C14.3698 11.2623 14.1203 11.1702 13.8638 11.1781C13.6074 11.1861 13.3641 11.2936 13.1855 11.4778L10.8216 13.908C10.2525 13.8013 9.10853 13.4433 7.93132 12.2697C6.75293 11.0901 6.3961 9.94376 6.29059 9.37829L8.72087 7.01326C8.90493 6.8345 9.01218 6.59113 9.01993 6.33468C9.02767 6.07822 8.9353 5.82882 8.76236 5.63929L5.11219 1.62407C4.93929 1.43347 4.6988 1.31789 4.44195 1.30195C4.18509 1.286 3.93216 1.37096 3.73701 1.53872L1.59599 3.37621C1.42442 3.5477 1.32225 3.77652 1.30909 4.01874C1.29368 4.26532 1.01272 10.1157 5.54846 14.6537C9.50568 18.6108 14.4635 18.9 15.828 18.9C16.0283 18.9 16.1504 18.8941 16.1836 18.8918C16.425 18.878 16.6529 18.7759 16.8238 18.6049L18.6613 16.4592C18.8294 16.2647 18.9147 16.0122 18.8989 15.7556C18.8832 15.4991 18.7665 15.2589 18.576 15.0864Z" fill="currentColor"/>
</svg>
