<svg width="20" height="20" viewBox="0 0 20 20" fill="none" xmlns="http://www.w3.org/2000/svg" color="#4485F9">
<circle cx="10.0156" cy="7.1875" r="2.1625" stroke="currentColor" stroke-width="1.7"/>
<path d="M10 1.91992C11.4322 1.91992 12.8057 2.48926 13.8184 3.50195C14.8311 4.51465 15.4004 5.88814 15.4004 7.32031C15.4004 8.32011 15.0621 9.50461 14.498 10.7637C13.9389 12.0117 13.1851 13.2721 12.4199 14.4062C11.6564 15.5379 10.8914 16.5289 10.3164 17.2373C10.2033 17.3767 10.0966 17.5041 10 17.6201C9.90338 17.5041 9.79671 17.3767 9.68359 17.2373C9.10864 16.5289 8.34361 15.5379 7.58008 14.4062C6.81488 13.2721 6.06108 12.0117 5.50195 10.7637C4.93793 9.50461 4.59961 8.32011 4.59961 7.32031C4.59961 5.88814 5.16894 4.51465 6.18164 3.50195C7.13109 2.5525 8.39767 1.99292 9.73242 1.92676L10 1.91992Z" stroke="currentColor" stroke-width="1.7"/>
</svg>
