<svg width="16" height="16" viewBox="0 0 16 16" fill="none" xmlns="http://www.w3.org/2000/svg" color="#010713">
<path d="M12.488 1.59204H6.68799C5.63999 1.59204 4.79199 2.44804 4.79199 3.49604V9.29604C4.79199 10.344 5.63999 11.192 6.68799 11.192H12.488C13.536 11.192 14.392 10.344 14.392 9.29604V3.49604C14.392 2.44804 13.536 1.59204 12.488 1.59204Z" fill="currentColor"/>
<path d="M6.03991 11.9599C4.91991 11.8479 4.04791 10.9039 4.04791 9.75195V5.54395H3.82391C2.59991 5.54395 1.60791 6.53595 1.60791 7.75995V12.1919C1.60791 13.4159 2.59991 14.4079 3.82391 14.4079H8.25591C9.47991 14.4079 10.4719 13.4159 10.4719 12.1919V11.9679H6.03991V11.9599Z" fill="currentColor"/>
</svg>
