<svg width="16" height="16" viewBox="0 0 16 16" fill="none" xmlns="http://www.w3.org/2000/svg" color="#010713">
<path d="M13.6576 11.4272L10.9472 8.96321C10.8192 8.84662 10.6508 8.78442 10.4778 8.7898C10.3047 8.79517 10.1405 8.8677 10.02 8.99201L8.42481 10.632C8.04081 10.56 7.26881 10.3184 6.47441 9.52641C5.67921 8.73041 5.43841 7.95681 5.36721 7.57521L7.00721 5.97921C7.13141 5.85858 7.20379 5.69435 7.20902 5.52128C7.21424 5.34822 7.15191 5.17992 7.03521 5.05201L4.57201 2.34241C4.45533 2.21378 4.29305 2.13579 4.11971 2.12503C3.94638 2.11427 3.7757 2.1716 3.64401 2.28481L2.19921 3.52481C2.08343 3.64054 2.01449 3.79496 2.00561 3.95841C1.99521 4.12481 1.80561 8.07281 4.86641 11.1352C7.53681 13.8056 10.8824 14.0008 11.8032 14.0008C11.9384 14.0008 12.0208 13.9968 12.0432 13.9952C12.2061 13.9859 12.3599 13.917 12.4752 13.8016L13.7152 12.3536C13.8286 12.2224 13.8862 12.052 13.8755 11.8788C13.8649 11.7057 13.7862 11.5436 13.6576 11.4272Z" fill="currentColor"/>
</svg>
