<svg width="20" height="20" viewBox="0 0 20 20" fill="none" xmlns="http://www.w3.org/2000/svg" color="#010713">
<path d="M17.5 5.98756L10.49 2.12756C10.18 1.95756 9.81 1.95756 9.51 2.12756L6.5 3.84756M17.5 5.98756V13.6176C17.5 13.9976 17.28 14.3476 16.93 14.5176C16.93 14.5176 12.7 16.5576 10 17.8576M17.5 5.98756L13.61 7.99756M10 17.8576C7.27 16.3576 3.02 14.0176 3.02 14.0176C2.7 13.8376 2.5 13.5076 2.5 13.1376V5.98756M10 17.8576V9.85756M13.61 7.99756L10 9.85756M13.61 7.99756C13.52 7.84756 13.4 7.72756 13.24 7.63756L6.5 3.85756L2.5 5.98756M13.61 7.99756C13.7 8.14756 13.75 8.32756 13.75 8.50756C13.75 8.68756 13.75 9.85756 13.75 9.85756M2.5 5.98756L10 9.85756" stroke="currentColor" stroke-width="1.65" stroke-linecap="round"/>
</svg>
