<svg width="22" height="22" viewBox="0 0 22 22" fill="none" xmlns="http://www.w3.org/2000/svg" color="#FF3C6B">
<g clip-path="url(#clip0_4610_25520)">
<path fill-rule="evenodd" clip-rule="evenodd" d="M11.2505 20.4477C10.9429 20.4477 10.6451 20.3376 10.3887 20.1293C9.48953 19.3984 7.17125 17.4547 5.06877 15.1985C3.89069 13.9343 2.95551 12.7579 2.2889 11.7019C1.43333 10.3461 1.01202 9.19511 1.00051 8.1832C0.98996 7.25426 1.14295 6.39438 1.45467 5.62801C1.73115 4.94845 2.13351 4.3389 2.65026 3.81616C4.07077 2.37959 5.91355 2 6.68951 2C7.41319 2 8.27212 2.04148 9.1543 2.34913C9.97171 2.63424 10.6662 3.1036 11.2277 3.74912C11.2558 3.78138 11.3053 3.78322 11.3354 3.75279C12.0911 2.98764 13.5286 2 15.9108 2C16.4446 2 17.0496 2.13092 17.6606 2.37887C18.3131 2.64359 18.9408 3.03229 19.4763 3.50324C20.0992 4.05116 20.5925 4.69859 20.9423 5.42755C21.3409 6.25794 21.5428 7.17729 21.5428 8.1597C21.5428 9.14212 21.1255 10.3269 20.2671 11.686C19.5995 12.743 18.6593 13.9216 17.4726 15.1886C15.3735 17.4302 13.025 19.3909 12.1128 20.1297C11.856 20.3376 11.558 20.4475 11.2505 20.4475V20.4477Z" fill="white" fill-opacity="0.8"/>
<path d="M15.9023 2.67188C16.9162 2.67188 18.4726 3.28107 19.5693 4.56152C19.6848 4.69633 19.7953 4.83854 19.8994 4.98828C20.3158 5.58709 20.6318 6.30612 20.7734 7.14941C20.8089 7.36035 20.8333 7.57908 20.8457 7.80566C20.8519 7.9189 20.8545 8.03419 20.8545 8.15137C20.8545 8.32797 20.8394 8.5099 20.8086 8.69629C20.7881 8.82034 20.7607 8.94637 20.7275 9.07422C20.7109 9.13825 20.6925 9.20267 20.6729 9.26758C20.5942 9.52735 20.4915 9.79383 20.3682 10.0654C18.7043 13.7291 13.2575 18.3133 11.6768 19.5938C11.4035 19.8148 11.0823 19.8154 10.8096 19.5938C8.94689 18.0795 1.71432 11.9384 1.67188 8.16699C1.62303 3.83818 5.42108 2.67188 6.68164 2.67188L7.18555 2.68066C8.42623 2.73008 10.0792 3.03917 11.1729 4.82617C11.2041 4.87687 11.2807 4.87795 11.3135 4.82812C11.5307 4.49549 12.2688 3.52748 13.7715 3.00879C13.9024 2.96361 14.039 2.92143 14.1816 2.88379C14.2527 2.86504 14.3254 2.84767 14.3994 2.83105C14.6223 2.78107 14.8588 2.74126 15.1094 2.71387C15.3594 2.68654 15.6236 2.67189 15.9023 2.67188Z" fill="currentColor"/>
</g>
<defs>
<clipPath id="clip0_4610_25520">
<rect width="20.5425" height="18.4477" fill="white" transform="translate(1 2)"/>
</clipPath>
</defs>
</svg>
