<svg width="24" height="24" viewBox="0 0 24 24" fill="none" xmlns="http://www.w3.org/2000/svg" color="blue">
<path d="M3.13086 4.55056C2.65369 4.55056 2.26686 4.93738 2.26686 5.41456C2.26686 5.89173 2.65369 6.27856 3.13086 6.27856L3.13086 4.55056ZM20.8909 6.27855C21.368 6.27855 21.7549 5.89173 21.7549 5.41455C21.7549 4.93738 21.368 4.55055 20.8909 4.55055V6.27855ZM10.7164 9.88427C10.7164 9.40709 10.3296 9.02027 9.85244 9.02027C9.37526 9.02027 8.98844 9.40709 8.98844 9.88427H10.7164ZM8.98844 16.7996C8.98844 17.2767 9.37526 17.6636 9.85244 17.6636C10.3296 17.6636 10.7164 17.2767 10.7164 16.7996L8.98844 16.7996ZM15.0333 9.88427C15.0333 9.40709 14.6465 9.02027 14.1693 9.02027C13.6921 9.02027 13.3053 9.40709 13.3053 9.88427H15.0333ZM13.3053 16.7996C13.3053 17.2767 13.6921 17.6636 14.1693 17.6636C14.6465 17.6636 15.0333 17.2767 15.0333 16.7996H13.3053ZM3.13086 5.41456L3.13086 6.27856L20.8909 6.27855V5.41455V4.55055L3.13086 4.55056L3.13086 5.41456ZM9.12017 4.5862H9.98417V2.75109H9.12017H8.25617V4.5862H9.12017ZM14.9015 2.75109H14.0375V4.5862H14.9015H15.7655V2.75109H14.9015ZM14.7947 2.63916V3.50316C14.3393 3.50316 14.0375 3.12838 14.0375 2.75109H14.9015H15.7655C15.7655 2.25017 15.3681 1.77516 14.7947 1.77516V2.63916ZM9.12017 2.75109H9.98417C9.98417 3.12838 9.6824 3.50316 9.22705 3.50316V2.63916V1.77516C8.65364 1.77516 8.25617 2.25017 8.25617 2.75109H9.12017ZM5.42077 6.27597H4.55677V21.1272H5.42077H6.28477V6.27597H5.42077ZM5.52765 21.2392V22.1032H18.4941V21.2392V20.3752H5.52765V21.2392ZM18.6009 21.1272H19.4649V6.27597H18.6009H17.7369V21.1272H18.6009ZM18.4941 21.2392V22.1032C19.0674 22.1032 19.4649 21.6282 19.4649 21.1272H18.6009H17.7369C17.7369 20.7499 18.0387 20.3752 18.4941 20.3752V21.2392ZM5.42077 21.1272H4.55677C4.55677 21.6282 4.95425 22.1032 5.52765 22.1032V21.2392V20.3752C5.983 20.3752 6.28477 20.7499 6.28477 21.1272H5.42077ZM9.85244 9.88427H8.98844L8.98844 16.7996H9.85244L10.7164 16.7996L10.7164 9.88427H9.85244ZM14.1693 9.88427H13.3053V16.7996H14.1693H15.0333V9.88427H14.1693ZM9.22705 2.63916V3.50316H12.0109V2.63916V1.77516H9.22705V2.63916ZM12.0109 2.63916V3.50316H14.7947V2.63916V1.77516H12.0109V2.63916Z" fill="currentColor"/>
</svg>
