<svg width="16" height="16" viewBox="0 0 16 16" fill="none" xmlns="http://www.w3.org/2000/svg" color="#010713">
<path fill-rule="evenodd" clip-rule="evenodd" d="M10.1231 8.00342C10.1231 8.4547 9.98604 8.86268 9.712 9.22738C9.43786 9.592 9.09058 9.8496 8.66996 10L9.08818 10.9983C10.2696 10.7704 11.3754 10.2052 12.4056 9.30258C12.8876 9.02453 13.1286 8.60741 13.1286 8.05128C13.1286 7.49516 12.8876 7.07806 12.4056 6.8C11.9236 6.37151 11.4227 6.02735 10.9028 5.76752C9.51822 5.0792 8.18795 4.85584 6.91202 5.09744L7.22391 5.89744C7.36096 5.82906 7.60196 5.79716 7.94693 5.80171C8.56128 5.80171 9.07635 6.01596 9.49226 6.44444C9.90809 6.87293 10.1184 7.39259 10.1231 8.00342ZM1.93588 10.1026C1.62871 9.85644 1.3948 9.5464 1.23412 9.17262C1.07345 8.79886 0.995474 8.40912 1.0002 8.00342C1.0002 7.20114 1.3121 6.49915 1.93588 5.89744C2.03985 5.79715 2.22887 5.63077 2.50297 5.39829C2.77706 5.16581 2.96608 4.99943 3.07004 4.89915L3.69383 6.69744C3.07004 7.14872 2.76051 7.58404 2.76524 8.00342C2.76996 8.2359 2.84794 8.48205 2.99916 8.74188C3.15038 9.00169 3.31341 9.18862 3.48827 9.30258C4.17822 9.804 4.69567 10.1367 5.04065 10.3009L5.87001 12.7009C4.35306 12.1539 3.0417 11.2877 1.93588 10.1026ZM15 7.95556C15 8.72137 14.7236 9.37093 14.1707 9.90427C12.8522 11.3493 11.366 12.3156 9.712 12.8034L10.1231 14H8.05326L7.94693 13.5009L3.8994 2H5.87001L6.28823 3.19658C7.37041 2.90028 8.40532 2.8661 9.39298 3.09402C11.1084 3.49516 12.63 4.39772 13.958 5.80171C14.0289 5.80171 14.0644 5.83362 14.0644 5.89744L14.1707 6C14.7236 6.53789 15 7.18974 15 7.95556Z" fill="currentColor"/>
</svg>
