<svg width="20" height="20" viewBox="0 0 20 20" fill="none" xmlns="http://www.w3.org/2000/svg" color="#8A95A8">
<path d="M17.6659 6.25718V13.7424C17.5051 14.9704 16.5343 15.9312 15.2871 16.0192H4.71512C3.42392 15.9228 2.41392 14.9024 2.33472 13.6088L2.33992 6.27558C2.47552 5.05038 3.45272 4.08278 4.68512 3.97998L15.3715 3.98518C16.5335 4.08678 17.5579 5.09038 17.6659 6.25678V6.25718ZM14.8751 6.71278C14.7783 6.72238 14.6559 6.77678 14.5811 6.84038L10.6303 10.884C10.1807 11.2136 9.61992 11.168 9.19192 10.8236C8.07432 9.68598 7.02632 8.47678 5.91392 7.33478C5.76032 7.17718 5.41352 6.77718 5.21752 6.74358C4.78232 6.66918 4.49672 6.94238 4.55032 7.38078C4.56952 7.53798 4.75672 7.72358 4.86472 7.84438C6.01592 9.13158 7.28112 10.3244 8.42912 11.6156C9.28992 12.3628 10.5295 12.4044 11.4079 11.6616L15.3851 7.55438C15.6407 7.18558 15.3123 6.66838 14.8747 6.71238L14.8751 6.71278Z" fill="currentColor"/>
</svg>
