<svg width="16" height="16" viewBox="0 0 16 16" fill="none" xmlns="http://www.w3.org/2000/svg" color="#010713">
<path d="M15.0838 4.52134V11.4947C14.9347 12.6387 14.0291 13.535 12.8674 13.616H3.01809C2.43878 13.5751 1.8942 13.3246 1.48613 12.9114C1.07806 12.4982 0.834432 11.9505 0.800781 11.3708L0.805439 4.53904C0.864806 3.98438 1.11525 3.46763 1.51383 3.07737C1.91242 2.68711 2.43434 2.44764 2.99014 2.39999L12.9466 2.40465C14.0291 2.49968 14.9831 3.43411 15.0838 4.52134ZM12.4845 4.94617C12.3838 4.9599 12.2888 5.0008 12.2096 5.06449L8.52967 8.83204C8.11043 9.13948 7.58778 9.09662 7.18811 8.77614C6.14746 7.71593 5.17111 6.58958 4.13512 5.52472C3.99165 5.37845 3.6693 5.00579 3.4867 4.97505C3.0805 4.90517 2.81499 5.15951 2.86436 5.5685C2.883 5.71477 3.05721 5.88805 3.15783 5.99985C4.22922 7.1998 5.40867 8.31032 6.4782 9.514C7.27941 10.2099 8.43464 10.2481 9.25355 9.55685L12.9587 5.72968C13.1972 5.38683 12.8907 4.90424 12.4835 4.94523" fill="currentColor"/>
</svg>
