<svg width="20" height="20" viewBox="0 0 20 20" fill="none" xmlns="http://www.w3.org/2000/svg" color="#010713">
<path d="M17.6669 6.25701V13.742C17.5069 14.97 16.5349 15.932 15.2879 16.019H4.71594C4.09413 15.9751 3.50959 15.7063 3.07158 15.2627C2.63356 14.8192 2.37206 14.2313 2.33594 13.609L2.34094 6.27601C2.40466 5.68065 2.67348 5.12599 3.10131 4.70709C3.52915 4.28819 4.08936 4.03115 4.68594 3.98001L15.3729 3.98501C16.5349 4.08701 17.5589 5.09001 17.6669 6.25701ZM14.8769 6.71301C14.7689 6.72775 14.6669 6.77166 14.5819 6.84001L10.6319 10.884C10.1819 11.214 9.62094 11.168 9.19194 10.824C8.07494 9.68601 7.02694 8.47701 5.91494 7.33401C5.76094 7.17701 5.41494 6.77701 5.21894 6.74401C4.78294 6.66901 4.49794 6.94201 4.55094 7.38101C4.57094 7.53801 4.75794 7.72401 4.86594 7.84401C6.01594 9.13201 7.28194 10.324 8.42994 11.616C9.28994 12.363 10.5299 12.404 11.4089 11.662L15.3859 7.55401C15.6419 7.18601 15.3129 6.66801 14.8759 6.71201" fill="currentColor"/>
</svg>
