<svg width="22" height="22" viewBox="0 0 22 22" fill="none" xmlns="http://www.w3.org/2000/svg" color="#010713">
<path fill-rule="evenodd" clip-rule="evenodd" d="M5.57451 4.67778L5.1079 3.34831C5.00318 3.01622 4.73184 2.30015 4.48421 2.09253C4.17466 1.83301 3.98372 1.83301 3.41109 1.83301H2.30778C2.05945 1.83301 1.82186 1.92729 1.64714 2.09421C1.47252 2.26104 1.375 2.48666 1.375 2.72126C1.375 2.95587 1.47252 3.18149 1.64714 3.34831C1.82186 3.51524 2.05945 3.60952 2.30778 3.60952H3.44738L6.1313 12.6735C6.23873 13.0872 6.46314 13.5706 6.7512 14.0181C7.03944 14.4659 7.38708 14.8708 7.73674 15.1318C8.07839 15.3868 8.53119 15.5006 8.96424 15.5492C9.31095 15.588 9.63517 15.5842 9.87085 15.5814C9.92933 15.5807 9.98232 15.5802 10.0288 15.5803H15.4018C16.3096 15.5832 17.1915 15.291 17.902 14.752C18.6123 14.213 19.109 13.4598 19.3111 12.6163L19.3122 12.6124L20.3327 7.66402L20.369 7.51509C20.4753 7.02114 20.664 5.99134 20.6179 5.6097C20.6146 5.58864 20.6109 5.56787 20.6068 5.54741C20.5559 5.29419 20.4429 5.09003 20.2414 4.94293C20.0381 4.79445 19.7342 4.69658 19.2875 4.67778H5.57451ZM17.5319 12.0866C17.4146 12.427 17.2167 12.8394 16.9301 13.1748C16.6431 13.5106 16.2602 13.7767 15.775 13.8034L15.6218 13.8038H11.7089H10.0288C9.55882 13.8038 9.15779 13.7873 8.81367 13.576C8.46771 13.3637 8.19646 12.9664 7.94642 12.252L7.94514 12.248L6.1313 6.44278L17.6074 6.45429H18.7166L17.617 11.7982L17.5319 12.0866Z" fill="currentColor"/>
<path d="M9.22363 20.627C10.167 20.627 10.9317 19.8623 10.9317 18.919C10.9317 17.9756 10.167 17.2109 9.22363 17.2109C8.28035 17.2109 7.51562 17.9756 7.51562 18.919C7.51562 19.8623 8.28035 20.627 9.22363 20.627Z" fill="currentColor"/>
<path d="M14.751 20.627C15.6943 20.627 16.459 19.8623 16.459 18.919C16.459 17.9756 15.6943 17.2109 14.751 17.2109C13.8077 17.2109 13.043 17.9756 13.043 18.919C13.043 19.8623 13.8077 20.627 14.751 20.627Z" fill="currentColor"/>
</svg>
