<svg width="88" height="88" viewBox="0 0 88 88" fill="none" xmlns="http://www.w3.org/2000/svg" color="#F0F5FF">
<path d="M60.332 59.8695V63.5117C60.332 65.7375 58.5109 67.5586 56.2852 67.5586H24.9941C22.7684 67.5586 20.9473 65.7375 20.9473 63.5117V15.3828C20.9473 13.157 22.7684 11.3359 24.9941 11.3359H56.2852C58.5109 11.3359 60.332 13.157 60.332 15.3828V19.025C61.2137 18.9094 62.0953 18.8516 62.9914 18.8516C63.5551 18.8516 64.1188 18.8805 64.668 18.9238V15.3828C64.668 10.7578 60.9102 7 56.2852 7H24.9941C20.3691 7 16.6113 10.7578 16.6113 15.3828V72.6172C16.6113 77.2422 20.3691 81 24.9941 81H56.2852C60.9102 81 64.668 77.2422 64.668 72.6172V59.9707C64.1188 60.0141 63.5551 60.043 62.9914 60.043C62.0953 60.0285 61.2137 59.9852 60.332 59.8695ZM44 76.6641H37.2793C35.9496 76.6352 34.909 75.5367 34.9379 74.207C34.9668 72.9352 35.993 71.8945 37.2793 71.8656H44C45.3297 71.8367 46.4281 72.8773 46.457 74.207C46.4859 75.5367 45.4453 76.6352 44.1156 76.6641C44.0723 76.6641 44.0289 76.6641 44 76.6641Z" fill="currentColor"/>
<path d="M62.9797 21.0342C52.8047 21.0342 44.5664 29.2725 44.5664 39.4475C44.5664 49.6225 52.8047 57.8607 62.9797 57.8607C73.1547 57.8607 81.393 49.6225 81.393 39.4475C81.393 29.2725 73.1547 21.0342 62.9797 21.0342ZM62.9797 50.0127C57.1406 50.0127 52.4145 45.2865 52.4145 39.4475C52.4145 38.8115 52.9348 38.2912 53.5707 38.2912C54.2066 38.2912 54.727 38.8115 54.727 39.4475C54.727 44.0146 58.427 47.7146 62.9797 47.7146C67.5324 47.7146 71.2469 44.0146 71.2469 39.4619C71.2469 34.8947 67.5469 31.1947 62.9941 31.1947C60.6961 31.1947 58.4992 32.1486 56.9383 33.8396H58.5859C59.2219 33.8396 59.7422 34.36 59.7422 34.9959C59.7422 35.6318 59.2219 36.1521 58.5859 36.1521H54.4379C53.802 36.1521 53.2816 35.6318 53.2816 34.9959V30.9346C53.2816 30.2986 53.802 29.7783 54.4379 29.7783C55.0738 29.7783 55.5941 30.2986 55.5941 30.9346V31.9029C59.7566 27.8127 66.4484 27.885 70.5387 32.0475C74.6289 36.21 74.5566 42.9018 70.3941 46.992C68.4141 48.9287 65.7547 50.0127 62.9797 50.0127Z" fill="currentColor"/>
</svg>
