<svg width="22" height="22" viewBox="0 0 22 22" fill="none" xmlns="http://www.w3.org/2000/svg" color="#6E7E96">
<g clip-path="url(#clip0_3122_92938)">
<path d="M15.9111 2C16.4447 2.00004 17.0494 2.13111 17.6602 2.37891C18.3126 2.64363 18.9411 3.03199 19.4766 3.50293C20.0995 4.05085 20.5925 4.69878 20.9424 5.42773C21.3409 6.25808 21.543 7.1778 21.543 8.16016C21.5428 9.14248 21.1259 10.3276 20.2676 11.6865C19.6 12.7434 18.6593 13.9215 17.4727 15.1885C15.3737 17.4299 13.0256 19.391 12.1133 20.1299C11.8566 20.3377 11.5582 20.4472 11.251 20.4473C10.9433 20.4473 10.645 20.3373 10.3887 20.1289C9.48929 19.3979 7.17064 17.4542 5.06836 15.1982C3.89052 13.9343 2.9556 12.758 2.28906 11.7021C1.43361 10.3466 1.01259 9.19541 1.00098 8.18359C0.990426 7.25465 1.14335 6.3943 1.45508 5.62793C1.73154 4.94848 2.13373 4.33908 2.65039 3.81641C4.07084 2.37989 5.91344 2.00003 6.68945 2C7.41314 2 8.27211 2.04196 9.1543 2.34961C9.97159 2.63469 10.6661 3.10362 11.2275 3.74902C11.2555 3.78118 11.3049 3.78304 11.335 3.75293C12.0906 2.98778 13.5289 2 15.9111 2Z" fill="white" fill-opacity="0.9"/>
<path fill-rule="evenodd" clip-rule="evenodd" d="M15.9028 2.67188C12.9259 2.67188 11.6162 4.3662 11.3139 4.82904C11.2813 4.87894 11.2042 4.87705 11.1731 4.82621C9.92291 2.78384 7.9184 2.67188 6.68147 2.67188C5.42106 2.67188 1.62355 3.83859 1.67234 8.16763C1.71485 11.939 8.94706 18.0797 10.8098 19.594C11.0827 19.8159 11.4038 19.815 11.677 19.5937C13.5506 18.0762 20.855 11.9184 20.855 8.15162C20.855 4.4019 17.6104 2.67188 15.9028 2.67188ZM19.18 8.15976C19.1576 11.1323 12.441 16.8704 11.383 17.756C11.2993 17.826 11.1879 17.8258 11.1046 17.7553C10.0448 16.8582 3.2744 11.0153 3.2744 8.15976C3.2744 4.56299 6.20181 4.28138 6.81982 4.28138C8.84678 4.27587 10.1721 5.72743 10.8062 6.64306C10.9932 6.91314 11.4763 6.90438 11.6566 6.62975C12.2585 5.7129 13.5441 4.27332 15.6833 4.27332C16.2932 4.27332 19.2044 4.93309 19.18 8.15976Z" fill="currentColor"/>
</g>
<defs>
<clipPath id="clip0_3122_92938">
<rect width="20.5425" height="18.4477" fill="white" transform="translate(1 2)"/>
</clipPath>
</defs>
</svg>
