<svg width="22" height="22" viewBox="0 0 22 22" fill="none" xmlns="http://www.w3.org/2000/svg" color="#8A95A8">
<g clip-path="url(#clip0_4610_25519)">
<path d="M15.9111 2C16.4449 2.00003 17.0502 2.131 17.6611 2.37891C18.3134 2.64362 18.9412 3.0321 19.4766 3.50293C20.0995 4.05085 20.5925 4.69878 20.9424 5.42773C21.3409 6.25809 21.543 7.17779 21.543 8.16016C21.5428 9.14248 21.1259 10.3276 20.2676 11.6865C19.6 12.7435 18.6593 13.9215 17.4727 15.1885C15.3737 17.4299 13.0255 19.391 12.1133 20.1299C11.8566 20.3377 11.5583 20.4472 11.251 20.4473C10.9433 20.4473 10.645 20.3373 10.3887 20.1289C9.48928 19.3979 7.17157 17.4541 5.06934 15.1982C3.89134 13.9342 2.95567 12.7581 2.28906 11.7021C1.43361 10.3466 1.01259 9.19541 1.00098 8.18359C0.990426 7.25465 1.14335 6.3943 1.45508 5.62793C1.73153 4.94848 2.13374 4.33908 2.65039 3.81641C4.07081 2.37992 5.91341 2.00005 6.68945 2C7.41314 2 8.27211 2.04196 9.1543 2.34961C9.9716 2.63469 10.6661 3.10362 11.2275 3.74902C11.2556 3.78128 11.3059 3.78335 11.3359 3.75293C12.0917 2.9878 13.529 2 15.9111 2Z" fill="white" fill-opacity="0.8"/>
<path fill-rule="evenodd" clip-rule="evenodd" d="M15.9028 2.67139C12.9259 2.67139 11.6162 4.36571 11.3139 4.82855C11.2813 4.87845 11.2042 4.87656 11.1731 4.82573C9.92291 2.78335 7.9184 2.67139 6.68147 2.67139C5.42106 2.67139 1.62355 3.8381 1.67234 8.16714C1.71485 11.9385 8.94706 18.0792 10.8098 19.5935C11.0827 19.8154 11.4038 19.8145 11.677 19.5932C13.5506 18.0757 20.855 11.9179 20.855 8.15113C20.855 4.40141 17.6104 2.67139 15.9028 2.67139ZM19.18 8.15928C19.1576 11.1318 12.441 16.87 11.383 17.7555C11.2993 17.8255 11.1879 17.8253 11.1046 17.7548C10.0448 16.8577 3.2744 11.0148 3.2744 8.15928C3.2744 4.5625 6.20181 4.28089 6.81982 4.28089C8.84678 4.27538 10.1721 5.72695 10.8062 6.64257C10.9932 6.91265 11.4763 6.90389 11.6566 6.62926C12.2585 5.71241 13.5441 4.27284 15.6833 4.27284C16.2932 4.27284 19.2044 4.93261 19.18 8.15928Z" fill="currentColor"/>
</g>
<defs>
<clipPath id="clip0_4610_25519">
<rect width="20.5425" height="18.4477" fill="white" transform="translate(1 2)"/>
</clipPath>
</defs>
</svg>
