<svg width="16" height="16" viewBox="0 0 16 16" fill="none" xmlns="http://www.w3.org/2000/svg" color="#FF3C6B">
<path d="M8.00065 6.83366C8.27678 6.83366 8.50065 7.05753 8.50065 7.33366V10.8337C8.50065 11.1098 8.27678 11.3337 8.00065 11.3337C7.72452 11.3337 7.50065 11.1098 7.50065 10.8337V7.33366C7.50065 7.05753 7.72452 6.83366 8.00065 6.83366ZM8.00065 6.00033C8.36885 6.00033 8.66732 5.70185 8.66732 5.33366C8.66732 4.96547 8.36885 4.66699 8.00065 4.66699C7.63245 4.66699 7.33398 4.96547 7.33398 5.33366C7.33398 5.70185 7.63245 6.00033 8.00065 6.00033Z" fill="currentColor"/>
<path fill-rule="evenodd" clip-rule="evenodd" d="M8.00065 14.6663C11.6825 14.6663 14.6673 11.6815 14.6673 7.99967C14.6673 4.31777 11.6825 1.33301 8.00065 1.33301C4.31875 1.33301 1.33398 4.31777 1.33398 7.99967C1.33398 11.6815 4.31875 14.6663 8.00065 14.6663ZM8.00065 13.6663C11.1302 13.6663 13.6673 11.1293 13.6673 7.99967C13.6673 4.87006 11.1302 2.33301 8.00065 2.33301C4.87104 2.33301 2.33398 4.87006 2.33398 7.99967C2.33398 11.1293 4.87104 13.6663 8.00065 13.6663Z" fill="currentColor"/>
</svg>
