<svg width="20" height="20" viewBox="0 0 20 20" fill="none" xmlns="http://www.w3.org/2000/svg" color="#010713">
<path d="M10.7862 15.5984C4.77297 15.5984 1.34311 11.3942 1.2002 4.39844H4.21232C4.31125 9.53318 6.53187 11.7082 8.29077 12.1566V4.39844H11.127V8.82687C12.8639 8.63628 14.6888 6.61826 15.3044 4.39844H18.1406C17.9086 5.5497 17.4462 6.63976 16.7823 7.60044C16.1184 8.56112 15.2672 9.37175 14.282 9.98163C15.3817 10.5389 16.353 11.3276 17.1318 12.2958C17.9106 13.264 18.4793 14.3897 18.8002 15.5984H15.6782C15.3901 14.5485 14.8045 13.6087 13.9949 12.8967C13.1853 12.1847 12.1877 11.7323 11.127 11.596V15.5984H10.7862Z" fill="currentColor"/>
</svg>
