<svg width="20" height="20" viewBox="0 0 20 20" fill="none" xmlns="http://www.w3.org/2000/svg" color="#4485F9">
<path d="M2.5 7.50326V14.1699C2.5 14.6119 2.67559 15.0359 2.98816 15.3484C3.30072 15.661 3.72464 15.8366 4.16667 15.8366H15.8333C16.2754 15.8366 16.6993 15.661 17.0118 15.3484C17.3244 15.0359 17.5 14.6119 17.5 14.1699V7.50326M2.5 7.50326V5.83659C2.5 5.39456 2.67559 4.97064 2.98816 4.65808C3.30072 4.34552 3.72464 4.16992 4.16667 4.16992H15.8333C16.2754 4.16992 16.6993 4.34552 17.0118 4.65808C17.3244 4.97064 17.5 5.39456 17.5 5.83659V7.50326M2.5 7.50326H17.5M5.83333 10.8366H10" stroke="currentColor" stroke-width="1.7" stroke-linecap="round" stroke-linejoin="round"/>
</svg>
