<svg width="20" height="20" viewBox="0 0 20 20" fill="none" xmlns="http://www.w3.org/2000/svg" color="#010713">
<path d="M15.0896 12.0343C15.5094 11.6145 15.5694 11.0148 15.2096 10.4151C14.9097 9.93537 14.37 9.69549 13.7703 9.81543C13.5304 9.8754 13.2906 9.99534 13.0507 10.1752C11.1917 11.4346 8.67297 11.3746 6.81393 10.1153C6.694 10.0553 6.57406 9.99533 6.45412 9.93536C5.79446 9.63552 5.13481 9.75547 4.775 10.3552C4.35521 10.9548 4.41518 11.6145 4.9549 12.1542C5.07483 12.2742 5.19477 12.3341 5.25474 12.4541L5.31471 12.514C6.15428 13.1737 7.17375 13.5935 8.49306 13.7734L7.71347 14.553C7.05381 15.2126 6.33419 15.9323 5.67453 16.5919C5.49462 16.7718 5.25474 17.0717 5.25474 17.4914C5.25474 18.0312 5.55459 18.5709 6.09431 18.8108C6.27422 18.9307 6.45412 18.9307 6.63403 18.9307C6.93387 18.9307 7.29368 18.8108 7.53356 18.5109C8.43309 17.6114 9.15272 16.8918 9.87235 16.1721C9.93232 16.1122 9.93231 16.1122 9.93231 16.1122C9.93231 16.1122 9.99229 16.1122 9.99229 16.1721C10.472 16.7119 11.0118 17.1916 11.4915 17.7313C11.7314 17.9712 11.9713 18.2111 12.2111 18.451C12.511 18.7508 12.7509 18.8707 13.1107 18.8707C13.6504 18.9307 14.2501 18.5709 14.49 18.0312C14.7298 17.5514 14.6099 16.9517 14.1901 16.5919C13.5904 15.9922 12.9907 15.3326 12.3311 14.7329L11.3116 13.7134C11.8513 13.6534 12.451 13.5335 12.9907 13.2936C13.8903 12.9938 14.5499 12.574 15.0896 12.0343Z" fill="currentColor"/>
<path d="M9.93231 10.3551C12.511 10.3551 14.6099 8.3162 14.6099 5.73754C14.6099 4.47819 14.1301 3.27882 13.2306 2.37929C12.3311 1.47975 11.1917 1 9.99228 1C7.41362 1 5.37468 3.09891 5.31471 5.6176C5.31471 6.87695 5.79446 8.01636 6.694 8.91589C7.53356 9.87539 8.67297 10.3551 9.93231 10.3551ZM8.613 4.35826C8.97281 3.99845 9.45256 3.81853 9.93231 3.81853C11.0118 3.81853 11.7914 4.6581 11.7914 5.67757C11.7914 6.75701 10.9518 7.5366 9.93231 7.5366C8.85287 7.5366 8.07328 6.69704 8.07328 5.67757C8.07328 5.19782 8.25319 4.71807 8.613 4.35826Z" fill="currentColor"/>
<path d="M15.0896 12.0343C15.5094 11.6145 15.5694 11.0148 15.2096 10.4151C14.9097 9.93537 14.37 9.69549 13.7703 9.81543C13.5304 9.8754 13.2906 9.99534 13.0507 10.1752C11.1917 11.4346 8.67297 11.3746 6.81393 10.1153C6.694 10.0553 6.57406 9.99533 6.45412 9.93536C5.79446 9.63552 5.13481 9.75547 4.775 10.3552C4.35521 10.9548 4.41518 11.6145 4.9549 12.1542C5.07483 12.2742 5.19477 12.3341 5.25474 12.4541L5.31471 12.514C6.15428 13.1737 7.17375 13.5935 8.49306 13.7734L7.71347 14.553C7.05381 15.2126 6.33419 15.9323 5.67453 16.5919C5.49462 16.7718 5.25474 17.0717 5.25474 17.4914C5.25474 18.0312 5.55459 18.5709 6.09431 18.8108C6.27422 18.9307 6.45412 18.9307 6.63403 18.9307C6.93387 18.9307 7.29368 18.8108 7.53356 18.5109C8.43309 17.6114 9.15272 16.8918 9.87235 16.1721C9.93232 16.1122 9.93231 16.1122 9.93231 16.1122C9.93231 16.1122 9.99229 16.1122 9.99229 16.1721C10.472 16.7119 11.0118 17.1916 11.4915 17.7313C11.7314 17.9712 11.9713 18.2111 12.2111 18.451C12.511 18.7508 12.7509 18.8707 13.1107 18.8707C13.6504 18.9307 14.2501 18.5709 14.49 18.0312C14.7298 17.5514 14.6099 16.9517 14.1901 16.5919C13.5904 15.9922 12.9907 15.3326 12.3311 14.7329L11.3116 13.7134C11.8513 13.6534 12.451 13.5335 12.9907 13.2936C13.8903 12.9938 14.5499 12.574 15.0896 12.0343Z" fill="currentColor"/>
</svg>
