<svg width="20" height="20" viewBox="0 0 20 20" fill="none" xmlns="http://www.w3.org/2000/svg" color="#8A95A8">
<path d="M14.036 1.61194C14.466 1.56194 14.886 1.68594 15.22 1.95394C16.222 2.75594 17.128 4.00194 18.12 4.84994C18.592 5.49794 18.524 6.25194 18.016 6.84994C17.384 7.59794 16.486 8.34194 15.782 9.04194C12.952 11.8519 10.146 14.8639 7.23996 17.5719C6.44996 18.3079 5.69996 18.7959 4.70596 17.9579C3.70596 17.1139 2.78796 15.9459 1.81996 15.0479C1.40796 14.4019 1.49796 13.7019 1.98196 13.1299C5.64796 9.68394 9.02596 5.91994 12.69 2.47794C13.096 2.09594 13.45 1.68194 14.036 1.61194ZM14.668 3.68194C14.292 3.75994 14.258 4.36394 14.642 4.46394C15.378 4.65794 15.39 3.53194 14.668 3.68194ZM13.472 4.83794C13.102 4.92194 13.088 5.62394 13.604 5.63994C14.202 5.65994 14.18 4.67594 13.472 4.83794ZM15.638 4.94794C15.208 5.40394 16.088 5.99394 16.326 5.40594C16.522 4.92194 15.934 4.63394 15.638 4.94794ZM14.478 6.67994C14.866 7.08594 15.494 6.45594 15.066 6.07594C14.67 5.72394 14.108 6.29194 14.478 6.67994ZM11.924 6.31194C11.872 6.32394 11.83 6.35594 11.792 6.39194L6.34796 11.8019C6.27596 11.9319 6.25596 12.0179 6.34196 12.1479L7.86196 13.6479C7.98196 13.7019 8.11396 13.6819 8.20596 13.5879L13.65 8.17794C13.732 8.02994 13.738 7.94994 13.64 7.81394C13.498 7.61794 12.39 6.50994 12.198 6.37594C12.104 6.30994 12.044 6.28594 11.924 6.31194ZM5.10396 13.1919C4.60996 13.2919 4.72796 14.1459 5.36796 13.9819C5.78796 13.8739 5.70996 13.0679 5.10396 13.1919ZM3.90796 14.3479C3.44796 14.4539 3.57796 15.3239 4.20196 15.1319C4.62596 14.9999 4.51196 14.2099 3.90796 14.3479ZM6.07396 14.4579C5.61396 14.9379 6.52796 15.4919 6.76196 14.9159C6.95196 14.4459 6.36996 14.1479 6.07396 14.4579ZM5.52396 16.1879C5.97796 15.7139 5.06996 15.1499 4.83596 15.7299C4.64596 16.1999 5.22796 16.4979 5.52396 16.1879Z" fill="currentColor"/>
<path d="M5.56195 1.61197C6.32995 1.51997 6.69595 1.89997 7.20595 2.37397C8.00595 3.11597 8.72995 3.94397 9.52595 4.68997L9.57595 4.77397L4.74395 9.56997L1.94995 6.81397C1.45795 6.23197 1.41995 5.41197 1.91195 4.81397C2.72195 3.83197 3.91595 2.94997 4.75995 1.97197C4.97795 1.79397 5.27995 1.64797 5.56195 1.61397V1.61197ZM5.06795 3.67997C4.70195 3.76397 4.69395 4.45797 5.16595 4.48197C5.84595 4.51797 5.75595 3.52397 5.06795 3.67997ZM3.90795 4.83797C3.44795 4.94397 3.57795 5.81397 4.20195 5.62197C4.62595 5.48997 4.51195 4.69997 3.90795 4.83797ZM6.07395 5.52197C6.45595 5.92197 7.10395 5.31597 6.66195 4.91797C6.27995 4.57597 5.70395 5.13397 6.07395 5.52197ZM5.52395 6.67997C5.88595 6.29997 5.33795 5.71797 4.93595 6.07597C4.49395 6.46797 5.13995 7.08197 5.52395 6.67997Z" fill="currentColor"/>
<path d="M15.23 10.4139C15.27 10.4039 15.302 10.4139 15.33 10.4439L18.052 13.1659C18.536 13.7619 18.582 14.5299 18.106 15.1479C17.132 16.0019 16.256 17.1479 15.276 17.9719C14.222 18.8579 13.448 18.2099 12.656 17.4639C11.91 16.7599 11.22 15.9939 10.476 15.2879L10.426 15.2039L15.23 10.4119V10.4139ZM14.668 13.1919C14.184 13.2899 14.288 14.1479 14.932 13.9819C15.346 13.8759 15.284 13.0659 14.668 13.1919ZM13.926 14.4579C13.548 14.0579 12.894 14.6639 13.338 15.0619C13.712 15.3979 14.292 14.8459 13.926 14.4579ZM15.638 14.4579C15.208 14.9139 16.088 15.5039 16.326 14.9159C16.522 14.4319 15.934 14.1439 15.638 14.4579ZM14.478 16.1879C14.86 16.5879 15.508 15.9819 15.066 15.5839C14.684 15.2419 14.108 15.7999 14.478 16.1879Z" fill="currentColor"/>
</svg>
