<svg width="22" height="22" viewBox="0 0 22 22" fill="none" xmlns="http://www.w3.org/2000/svg" color="#010713">
<path d="M1 4.47559C1 4.22695 1.09877 3.98849 1.27459 3.81267C1.4504 3.63686 1.68886 3.53809 1.9375 3.53809H15.0625C15.3111 3.53809 15.5496 3.63686 15.7254 3.81267C15.9012 3.98849 16 4.22695 16 4.47559C16 4.72423 15.9012 4.96268 15.7254 5.1385C15.5496 5.31431 15.3111 5.41309 15.0625 5.41309H1.9375C1.68886 5.41309 1.4504 5.31431 1.27459 5.1385C1.09877 4.96268 1 4.72423 1 4.47559ZM1 16.9756C1 16.7269 1.09877 16.4885 1.27459 16.3127C1.4504 16.1369 1.68886 16.0381 1.9375 16.0381H13.8125C14.0611 16.0381 14.2996 16.1369 14.4754 16.3127C14.6512 16.4885 14.75 16.7269 14.75 16.9756C14.75 17.2242 14.6512 17.4627 14.4754 17.6385C14.2996 17.8143 14.0611 17.9131 13.8125 17.9131H1.9375C1.68886 17.9131 1.4504 17.8143 1.27459 17.6385C1.09877 17.4627 1 17.2242 1 16.9756ZM1.9375 9.78809C1.68886 9.78809 1.4504 9.88686 1.27459 10.0627C1.09877 10.2385 1 10.4769 1 10.7256C1 10.9742 1.09877 11.2127 1.27459 11.3885C1.4504 11.5643 1.68886 11.6631 1.9375 11.6631H20.0625C20.3111 11.6631 20.5496 11.5643 20.7254 11.3885C20.9012 11.2127 21 10.9742 21 10.7256C21 10.4769 20.9012 10.2385 20.7254 10.0627C20.5496 9.88686 20.3111 9.78809 20.0625 9.78809H1.9375Z" fill="currentColor"/>
</svg>
