<svg width="20" height="20" viewBox="0 0 20 20" fill="none" xmlns="http://www.w3.org/2000/svg" color="#8A95A8">
<path d="M17.0115 3.49019C16.6644 3.54041 16.4053 3.87419 16.1706 4.1133C14.9573 5.34886 13.832 6.67641 12.6106 7.90575C11.9271 8.36663 10.9213 8.0933 10.2657 8.6213L5.52352 13.296C5.5013 13.3209 5.51018 13.3364 5.52352 13.3617C5.61996 13.5493 6.20218 13.8151 5.89863 14.1177C5.63374 14.3822 5.30841 13.8755 5.12174 13.7302C5.03463 13.7831 4.8053 13.944 4.87463 14.0449C4.99774 14.224 5.50752 14.508 5.2333 14.7831C4.94085 15.0764 4.65596 14.5035 4.42752 14.392C4.33952 14.4453 4.10618 14.6084 4.17596 14.7102C4.31374 14.9106 4.83018 15.1591 4.56663 15.4471C4.29774 15.7413 3.95285 15.1724 3.76218 15.0257C3.71107 15.1022 3.45063 15.2729 3.49418 15.3577C3.59774 15.5586 4.16796 15.7986 3.90218 16.1137C3.64307 16.4213 3.28352 15.8333 3.09685 15.6915C2.78174 16.0773 2.16707 16.4577 2.01374 16.9369C1.80618 17.5853 2.17641 18.2573 2.84041 18.4093C3.51952 18.5649 3.83507 18.1884 4.2613 17.7542C6.67774 15.2937 8.92885 12.6622 11.3471 10.2017C12.0817 9.77108 13.0942 10.028 13.7422 9.40308L17.8315 4.94263C18.3564 4.2973 17.84 3.37019 17.0115 3.49063V3.49019Z" fill="currentColor"/>
<path d="M12.1938 7.52753L16.3533 3.19909L14.9058 1.75287C14.7329 1.60887 14.4707 1.53465 14.2502 1.56087C13.9489 1.59642 13.6889 1.82131 13.5307 2.06265L14.7858 3.66931C14.9458 3.97731 14.6271 4.24887 14.372 4.01642L13.1422 2.45065L12.2973 3.2702L12.3262 3.33331C12.5249 3.61198 13.6991 4.57154 13.752 4.80309C13.8209 5.10531 13.5791 5.23509 13.328 5.09376L11.908 3.68354L11.0653 4.4982L12.6462 5.77509C12.8476 6.01509 12.5867 6.32131 12.3093 6.17865L10.676 4.91642C10.1951 5.19242 10.1151 5.87287 10.4858 6.27242L12.1938 7.52709V7.52753Z" fill="currentColor"/>
</svg>
