<svg width="20" height="20" viewBox="0 0 20 20" fill="none" xmlns="http://www.w3.org/2000/svg" color="#8A95A8">
<path d="M16.26 14.1604C15.8914 13.4433 15.7028 12.6404 15.2434 11.977L5.80396 2.57129L2.59253 5.881L11.9114 15.1947C13.0702 15.9347 14.5 16.2079 15.5411 17.1684L15.7091 17.1696L17.1982 15.6244C16.8662 15.149 16.5262 14.6781 16.26 14.1604ZM5.52396 4.63815C7.29424 4.33186 7.52739 6.84615 5.96224 7.01986C4.4091 7.19243 4.14567 4.87643 5.52396 4.63815ZM11.8542 10.397C11.7182 10.5736 10.3354 11.945 10.2262 11.9741C10.2165 11.977 10.1531 11.9027 10.1457 11.8953C9.55939 11.3227 8.97367 10.7496 8.38739 10.177C7.98396 9.78272 7.58167 9.38729 7.17881 8.99243C6.98967 8.80786 6.80739 8.609 6.61082 8.43357C6.48053 8.317 6.3491 8.16843 6.46396 7.98215C6.49196 7.93643 6.53139 7.89929 6.57024 7.86215C6.88567 7.561 7.18453 7.24329 7.46624 6.91072C7.59653 6.757 7.7251 6.59815 7.89024 6.48272C7.93539 6.45129 7.9851 6.42329 8.0371 6.40615C8.08339 6.39072 8.13139 6.38443 8.17939 6.39243C8.35653 6.42158 8.5011 6.63872 8.6251 6.76386C9.29653 7.43929 9.96739 8.11472 10.6388 8.79015C11.0885 9.24272 11.5377 9.69472 11.9874 10.1473C12.0045 10.2341 11.9051 10.3319 11.8542 10.3976V10.397Z" fill="currentColor"/>
<path d="M5.47367 2.24282C5.01596 1.52968 4.16682 1.22168 3.42853 1.74225C3.15653 1.93368 1.83767 3.27082 1.67996 3.53654C1.45367 3.91882 1.41939 4.25768 1.5691 4.67997C1.64453 4.89254 2.10453 5.56225 2.33825 5.45482C3.17767 4.62568 3.99025 3.77139 4.81653 2.93025C4.95825 2.78568 5.45653 2.43997 5.47425 2.24339L5.47367 2.24282Z" fill="currentColor"/>
<path d="M17.5023 16L16 17.4606C16.48 18.1371 17.42 18.9874 18.204 18.204C18.988 17.4206 18.1286 16.528 17.5023 16Z" fill="currentColor"/>
<path d="M9.12851 7.85656C8.84337 7.57256 8.55937 7.28799 8.27651 7.00171C8.24566 6.97028 8.21251 6.93771 8.16966 6.92628C8.0748 6.90113 7.9908 6.98856 7.92966 7.06513C7.66451 7.39713 7.36508 7.70113 7.03766 7.97142C7.00223 8.00056 6.96451 8.03542 6.93994 8.07428C6.91708 8.11028 6.90623 8.14971 6.91937 8.19028C6.93023 8.22285 6.95537 8.24856 6.97994 8.27256C7.52108 8.80742 8.05823 9.34685 8.59651 9.88456C9.12966 10.4166 9.66337 10.9491 10.1965 11.4811L11.4811 10.1966C11.4811 10.1966 10.3731 9.09485 10.3039 9.02571C9.91194 8.63599 9.52051 8.24628 9.12851 7.85713V7.85656Z" fill="currentColor"/>
<path d="M5.57943 5.0367C4.60343 5.25955 5.00914 6.98241 6.12172 6.54984C7.016 6.20184 6.59943 4.80412 5.57943 5.0367Z" fill="currentColor"/>
</svg>
