<svg width="16" height="16" viewBox="0 0 16 16" fill="none" xmlns="http://www.w3.org/2000/svg" color="#575E71">
<path d="M13.9275 1.33701L13.9981 1.33301L14.0848 1.33834L14.1448 1.34901L14.2268 1.37234L14.2981 1.40301L14.3648 1.44101L14.4248 1.48567L14.4794 1.53567L14.5141 1.57501L14.5688 1.65234L14.6034 1.71634C14.6346 1.78301 14.6546 1.85323 14.6635 1.92701L14.6668 1.99767C14.6668 2.0479 14.6614 2.09679 14.6508 2.14434L14.6274 2.22634L10.2728 14.2777C10.1902 14.4574 10.0578 14.6096 9.89134 14.7163C9.72484 14.823 9.53121 14.8797 9.33345 14.8797C9.15537 14.88 8.98023 14.8344 8.82499 14.7471C8.66976 14.6599 8.5397 14.534 8.44745 14.3817L8.40412 14.297L6.16945 9.82901L1.72278 7.60501C1.55825 7.52976 1.41636 7.41263 1.3113 7.26534C1.20624 7.11804 1.14169 6.94574 1.12412 6.76567L1.12012 6.66634C1.12012 6.29301 1.32078 5.95167 1.68078 5.75301L1.77412 5.70634L13.7854 1.36901L13.8561 1.34901L13.9275 1.33701Z" fill="currentColor"/>
</svg>
