<svg width="16" height="16" viewBox="0 0 16 16" fill="none" xmlns="http://www.w3.org/2000/svg" color="#010713">
<path d="M13.9284 1.33213L13.9991 1.32812L14.0858 1.33346L14.1458 1.34412L14.2278 1.36746L14.2991 1.39813L14.3658 1.43612L14.4258 1.48079L14.4804 1.53079L14.5151 1.57012L14.5698 1.64746L14.6044 1.71146C14.6355 1.77813 14.6555 1.84835 14.6644 1.92213L14.6678 1.99279C14.6678 2.04301 14.6624 2.0919 14.6518 2.13946L14.6284 2.22146L10.2738 14.2728C10.1912 14.4525 10.0588 14.6047 9.89232 14.7115C9.72582 14.8182 9.53219 14.8749 9.33443 14.8748C9.15635 14.8752 8.9812 14.8295 8.82597 14.7423C8.67073 14.655 8.54068 14.5291 8.44843 14.3768L8.40509 14.2921L6.17043 9.82413L1.72376 7.60013C1.55923 7.52488 1.41734 7.40775 1.31228 7.26045C1.20722 7.11316 1.14267 6.94086 1.12509 6.76079L1.12109 6.66146C1.12109 6.28813 1.32176 5.94679 1.68176 5.74813L1.77509 5.70146L13.7864 1.36412L13.8571 1.34412L13.9284 1.33213Z" fill="currentColor"/>
</svg>
