<svg width="20" height="20" viewBox="0 0 20 20" fill="none" xmlns="http://www.w3.org/2000/svg" color="#8A95A8">
<path d="M14.6201 4.7959C16.786 5.5479 19.2361 7.6719 17.2721 10.0239C15.1601 12.5479 9.33805 12.9899 6.40405 12.0539C6.34805 12.0359 6.07605 11.9599 6.07605 11.9199L14.6221 4.7979L14.6201 4.7959Z" fill="currentColor"/>
<path d="M13.92 4.53814L5.39799 11.6721C5.24199 11.7161 4.41999 11.2981 4.23199 11.1921C1.92799 9.89414 1.06199 7.59014 3.45999 5.79614C4.58599 4.95414 6.11799 4.43614 7.49599 4.19414C9.61999 3.82014 11.854 3.93814 13.922 4.54014L13.92 4.53814Z" fill="currentColor"/>
<path d="M17.9861 10.1141V11.8821C17.9861 12.8841 16.9681 13.9621 16.1861 14.4741C13.0081 16.5481 6.96406 16.5361 3.79406 14.4521C3.04606 13.9601 2.00806 12.8761 2.00806 11.9181V10.0781C3.23606 11.6201 5.09806 12.4321 6.99406 12.8181C9.02606 13.2341 11.2161 13.2261 13.2421 12.7761C15.0341 12.3781 16.8281 11.5841 17.9861 10.1141Z" fill="currentColor"/>
</svg>
