<svg width="14" height="14" viewBox="0 0 14 14" fill="none" xmlns="http://www.w3.org/2000/svg" color="#4485F9">
<g clip-path="url(#clip0_2157_16921)">
<path d="M13.5625 7C13.5625 7.56 12.8745 8.02156 12.7367 8.53781C12.5945 9.07156 12.9544 9.81531 12.6842 10.2823C12.4097 10.757 11.5839 10.8139 11.1989 11.1989C10.8139 11.5839 10.757 12.4097 10.2823 12.6842C9.81531 12.9544 9.07156 12.5945 8.53781 12.7367C8.02156 12.8745 7.56 13.5625 7 13.5625C6.44 13.5625 5.97844 12.8745 5.46219 12.7367C4.92844 12.5945 4.18469 12.9544 3.71766 12.6842C3.24297 12.4097 3.18609 11.5839 2.80109 11.1989C2.41609 10.8139 1.59031 10.757 1.31578 10.2823C1.04562 9.81531 1.40547 9.07156 1.26328 8.53781C1.12547 8.02156 0.4375 7.56 0.4375 7C0.4375 6.44 1.12547 5.97844 1.26328 5.46219C1.40547 4.92844 1.04562 4.18469 1.31578 3.71766C1.59031 3.24297 2.41609 3.18609 2.80109 2.80109C3.18609 2.41609 3.24297 1.59031 3.71766 1.31578C4.18469 1.04562 4.92844 1.40547 5.46219 1.26328C5.97844 1.12547 6.44 0.4375 7 0.4375C7.56 0.4375 8.02156 1.12547 8.53781 1.26328C9.07156 1.40547 9.81531 1.04562 10.2823 1.31578C10.757 1.59031 10.8139 2.41609 11.1989 2.80109C11.5839 3.18609 12.4097 3.24297 12.6842 3.71766C12.9544 4.18469 12.5945 4.92844 12.7367 5.46219C12.8745 5.97844 13.5625 6.44 13.5625 7Z" fill="currentColor"/>
<path d="M8.89674 5.04432L6.39861 7.54244L5.10361 6.24854C4.82252 5.96744 4.36643 5.96744 4.08533 6.24854C3.80424 6.52963 3.80424 6.98572 4.08533 7.26682L5.90205 9.08354C6.17549 9.35697 6.61955 9.35697 6.89299 9.08354L9.91393 6.0626C10.195 5.7815 10.195 5.32541 9.91393 5.04432C9.63283 4.76322 9.17783 4.76322 8.89674 5.04432Z" fill="#FFFCEE"/>
</g>
<defs>
<clipPath id="clip0_2157_16921">
<rect width="14" height="14" fill="white"/>
</clipPath>
</defs>
</svg>
