<svg width="24" height="24" viewBox="0 0 24 24" fill="none" xmlns="http://www.w3.org/2000/svg" color="#8A95A8">
<path fill-rule="evenodd" clip-rule="evenodd" d="M6.22692 5.0274L5.73035 3.61258C5.61891 3.25918 5.33016 2.49713 5.06663 2.27618C4.73721 2 4.53401 2 3.92462 2H2.75048C2.4862 2 2.23336 2.10033 2.04742 2.27797C1.8616 2.45551 1.75781 2.69562 1.75781 2.94527C1.75781 3.19495 1.8616 3.43505 2.04742 3.61258C2.23336 3.79023 2.4862 3.89056 2.75048 3.89056H3.96324L6.81946 13.5364C6.93379 13.9767 7.1726 14.4912 7.47916 14.9673C7.7859 15.4439 8.15585 15.8748 8.52796 16.1526C8.89155 16.424 9.37341 16.545 9.83427 16.5967C10.2032 16.638 10.5483 16.634 10.7991 16.6311C10.8613 16.6303 10.9177 16.6297 10.9672 16.6298H16.6851C17.6512 16.6329 18.5897 16.3219 19.3458 15.7483C20.1017 15.1748 20.6303 14.3732 20.8454 13.4756L20.8466 13.4714L21.9325 8.20536L21.9712 8.04687C22.0843 7.5212 22.2851 6.42529 22.236 6.01915C22.2326 5.99673 22.2286 5.97464 22.2242 5.95286C22.1701 5.68338 22.0499 5.46612 21.8354 5.30957C21.619 5.15156 21.2956 5.04741 20.8203 5.0274H6.22692Z" fill="currentColor"/>
<path d="M10.1106 21.9996C11.1145 21.9996 11.9284 21.1858 11.9284 20.1819C11.9284 19.178 11.1145 18.3643 10.1106 18.3643C9.10678 18.3643 8.29297 19.178 8.29297 20.1819C8.29297 21.1858 9.10678 21.9996 10.1106 21.9996Z" fill="currentColor"/>
<path d="M15.9935 21.9996C16.9974 21.9996 17.8111 21.1858 17.8111 20.1819C17.8111 19.178 16.9974 18.3643 15.9935 18.3643C14.9896 18.3643 14.1758 19.178 14.1758 20.1819C14.1758 21.1858 14.9896 21.9996 15.9935 21.9996Z" fill="currentColor"/>
</svg>
