<svg width="20" height="20" viewBox="0 0 20 20" fill="none" xmlns="http://www.w3.org/2000/svg" color="#010713">
<path d="M16.998 9.00125H5.13805L8.76805 4.64125C8.85209 4.54013 8.9154 4.42345 8.95435 4.29787C8.9933 4.17228 9.00714 4.04026 8.99507 3.90933C8.983 3.7784 8.94525 3.65112 8.884 3.53478C8.82274 3.41844 8.73916 3.3153 8.63805 3.23125C8.53693 3.1472 8.42025 3.0839 8.29466 3.04494C8.16908 3.00599 8.03705 2.99216 7.90612 3.00423C7.77519 3.0163 7.64792 3.05404 7.53158 3.1153C7.41523 3.17656 7.31209 3.26013 7.22805 3.36125L2.22805 9.36125C2.19441 9.40897 2.16433 9.45911 2.13805 9.51125C2.13805 9.56125 2.13805 9.59125 2.06805 9.64125C2.02272 9.75591 1.99899 9.87796 1.99805 10.0012C1.99899 10.1245 2.02272 10.2466 2.06805 10.3612C2.06805 10.4112 2.06805 10.4412 2.13805 10.4912C2.16433 10.5434 2.19441 10.5935 2.22805 10.6412L7.22805 16.6412C7.32207 16.7541 7.43981 16.8449 7.57289 16.9071C7.70598 16.9694 7.85114 17.0015 7.99805 17.0012C8.2317 17.0017 8.45813 16.9203 8.63805 16.7712C8.73931 16.6873 8.82301 16.5842 8.88436 16.4679C8.94571 16.3515 8.98351 16.2242 8.99558 16.0932C9.00766 15.9622 8.99378 15.8302 8.95473 15.7046C8.91569 15.579 8.85225 15.4623 8.76805 15.3613L5.13805 11.0012H16.998C17.2633 11.0012 17.5176 10.8959 17.7052 10.7084C17.8927 10.5208 17.998 10.2665 17.998 10.0012C17.998 9.73603 17.8927 9.48168 17.7052 9.29414C17.5176 9.10661 17.2633 9.00125 16.998 9.00125Z" fill="currentColor"/>
</svg>
