<svg width="20" height="20" viewBox="0 0 20 20" fill="none" xmlns="http://www.w3.org/2000/svg" color="#8A95A8">
<path d="M3.33333 6.23077C3.14924 6.23077 3 6.08153 3 5.89744V3.33333C3 3.14924 3.14924 3 3.33333 3H16.6667C16.8508 3 17 3.14924 17 3.33333V5.89744C17 6.08153 16.8508 6.23077 16.6667 6.23077H3.33333Z" fill="currentColor"/>
<path d="M3.33333 11.6155C3.14924 11.6155 3 11.4548 3 11.2565V8.74374C3 8.54548 3.14924 8.38477 3.33333 8.38477H16.6667C16.8508 8.38477 17 8.54548 17 8.74374V11.2565C17 11.4548 16.8508 11.6155 16.6667 11.6155H3.33333Z" fill="currentColor"/>
<path d="M3.33333 17.0003C3.14924 17.0003 3 16.8396 3 16.6413V14.1285C3 13.9302 3.14924 13.7695 3.33333 13.7695H16.6667C16.8508 13.7695 17 13.9302 17 14.1285V16.6413C17 16.8396 16.8508 17.0003 16.6667 17.0003H3.33333Z" fill="currentColor"/>
</svg>
