<svg width="20" height="20" viewBox="0 0 20 20" fill="none" xmlns="http://www.w3.org/2000/svg" color="#010713">
<path fill-rule="evenodd" clip-rule="evenodd" d="M14.6563 1.45996C11.6721 1.45996 10.3592 3.15842 10.0562 3.62239C10.0235 3.67241 9.94622 3.67052 9.91503 3.61956C8.66181 1.5722 6.6524 1.45996 5.41245 1.45996C4.14896 1.45996 0.342182 2.62952 0.391092 6.96913C0.4337 10.7497 7.68357 16.9054 9.5509 18.4234C9.82443 18.6458 10.1463 18.6449 10.4202 18.4231C12.2984 16.9019 19.6206 10.7291 19.6206 6.95308C19.6206 3.19421 16.3681 1.45996 14.6563 1.45996ZM17.9415 6.96125C17.919 9.94102 11.186 15.6932 10.1255 16.5809C10.0416 16.6511 9.92989 16.6509 9.84643 16.5802C8.78401 15.6809 1.99706 9.82374 1.99706 6.96125C1.99706 3.35569 4.93162 3.07339 5.55114 3.07339C7.58305 3.06787 8.91159 4.52298 9.54723 5.44084C9.73473 5.71158 10.219 5.7028 10.3997 5.4275C11.0031 4.50841 12.2918 3.06532 14.4363 3.06532C15.0477 3.06532 17.966 3.7267 17.9415 6.96125Z" fill="currentColor"/>
</svg>
