<svg width="140" height="140" viewBox="0 0 140 140" fill="none" xmlns="http://www.w3.org/2000/svg" color="#F4F6FA">
<rect width="140" height="140" fill="white"/>
<rect x="14.75" y="21.1365" width="112" height="96.7273" rx="8.48485" fill="currentColor"/>
<rect x="23.2344" y="29.6211" width="95.0303" height="79.7576" rx="6.78788" fill="white"/>
<path d="M92.1526 70.6652C90.5952 68.8918 87.8328 68.8918 86.2753 70.6652L82.4216 75.0475C80.8244 76.8664 77.9711 76.8095 76.4478 74.9338L63.8691 59.4791C62.3003 57.5522 59.3617 57.5522 57.7986 59.4791L23.2344 101.944V113.113H119.578V101.853L92.1526 70.6652Z" fill="currentColor"/>
<path d="M97.6829 61.1666C103.114 61.1666 107.516 56.764 107.516 51.3333C107.516 45.9025 103.114 41.5 97.6829 41.5C92.2521 41.5 87.8496 45.9025 87.8496 51.3333C87.8496 56.764 92.2521 61.1666 97.6829 61.1666Z" fill="currentColor"/>
</svg>
