<svg width="20" height="20" viewBox="0 0 20 20" fill="none" xmlns="http://www.w3.org/2000/svg" color="#8A95A8">
<path d="M14.0516 1.61882C12.8664 1.72922 11.5656 2.58282 11.0116 3.63802C10.6364 4.35322 10.7288 5.03402 10.5988 5.79282C10.4004 6.95082 9.77362 7.95162 9.05322 8.85002L10.936 10.804C11.8484 10.0512 12.9016 9.39242 14.1172 9.31122C15.4912 9.21962 15.8936 9.51802 17.0284 8.50482C19.9136 5.93002 17.9172 1.25842 14.0516 1.61882Z" fill="currentColor"/>
<path d="M5.39841 5.842C5.17601 5.6552 4.83561 5.5484 4.54801 5.5652C3.54201 5.6244 3.08881 6.8608 3.76881 7.5868L12.4316 16.2468C13.5972 17.1956 15.0972 15.7652 14.1176 14.5608L5.39841 5.842Z" fill="currentColor"/>
<path d="M3.48075 16.2294C1.50315 14.0162 3.03275 10.453 5.97275 10.3834L5.15075 9.53861C5.00515 9.45341 4.67195 9.60461 4.50675 9.66541C1.35635 10.8254 0.595546 14.9942 3.07995 17.243C5.61395 19.5366 9.75115 18.2438 10.4959 14.9274L9.61395 14.0246C9.52715 17.1562 5.58995 18.5902 3.48035 16.2294H3.48075Z" fill="currentColor"/>
</svg>
