<svg width="20" height="20" viewBox="0 0 20 20" fill="none" xmlns="http://www.w3.org/2000/svg" color="#010713">
<path d="M17.5815 5.60125C17.0296 5.60126 16.4831 5.49255 15.9732 5.28135C15.4633 5.07014 14.9999 4.76056 14.6097 4.37029C14.2194 3.98003 13.9098 3.51671 13.6986 3.0068C13.4874 2.49689 13.3787 1.95036 13.3787 1.39844H10.376V13.1564C10.3754 13.6924 10.2061 14.2147 9.89216 14.6492C9.57817 15.0837 9.1354 15.4084 8.6266 15.5771C8.11779 15.7459 7.56877 15.7503 7.05735 15.5896C6.54592 15.429 6.09804 15.1114 5.77717 14.682C5.4563 14.2525 5.27873 13.733 5.26962 13.197C5.26051 12.661 5.42033 12.1358 5.72642 11.6957C6.03251 11.2556 6.46935 10.923 6.97502 10.7451C7.48069 10.5671 8.02954 10.5528 8.54379 10.7042V7.78542C7.45092 7.63805 6.33911 7.8276 5.35681 8.32876C4.37451 8.82991 3.56848 9.61882 3.04635 10.5901C2.52421 11.5614 2.31083 12.6689 2.43469 13.7647C2.55854 14.8605 3.01375 15.8924 3.73952 16.7226C4.46529 17.5529 5.42708 18.142 6.49646 18.4112C7.56584 18.6805 8.69191 18.6171 9.72431 18.2295C10.7567 17.8419 11.6463 17.1486 12.2743 16.2421C12.9023 15.3356 13.2387 14.2591 13.2388 13.1564L13.3259 7.21305C14.5596 8.11874 16.0507 8.60607 17.5812 8.60381L17.5815 5.60125Z" fill="currentColor"/>
</svg>
