<svg width="24" height="24" viewBox="0 0 24 24" fill="none" xmlns="http://www.w3.org/2000/svg" color="#8A95A8">
<path d="M11.8082 23.8959C13.5291 23.8959 14.9691 22.6696 15.2997 21.0444H8.31519C8.64725 22.6696 10.0859 23.8959 11.8082 23.8959Z" fill="currentColor"/>
<path d="M20.672 17.1219C19.2437 15.9145 18.4246 14.1497 18.4246 12.2801V9.64618C18.4246 6.32174 15.955 3.50942 12.7562 3.04842V2.87032C12.7562 2.34791 12.3727 1.92773 11.8511 1.92773C11.3298 1.92773 10.8666 2.34791 10.8666 2.87032V3.04842C7.66674 3.50942 5.19822 6.32174 5.19822 9.64618V12.2801C5.19822 14.1497 4.37913 15.9145 2.94213 17.1294C2.57471 17.444 2.36401 17.9012 2.36401 18.3849C2.36401 19.2967 3.10561 20.0383 4.01724 20.0383H19.6054C20.5172 20.0383 21.2588 19.2967 21.2588 18.3849C21.2588 17.9012 21.0481 17.444 20.672 17.1219Z" fill="currentColor"/>
</svg>
