<svg width="20" height="20" viewBox="0 0 20 20" fill="none" xmlns="http://www.w3.org/2000/svg" color="#8A95A8">
<path d="M10.3471 11.8274C8.3289 11.8416 4.86445 11.8541 3.02356 11.0692C2.86045 10.9999 2.71112 10.8959 2.54712 10.8305V16.1034C2.54712 16.2092 2.8409 16.4545 2.93556 16.5132C4.11423 17.2434 7.13956 17.3683 8.55334 17.4159C10.2813 17.4741 12.0187 17.4616 13.7418 17.2839C14.5391 17.2016 16.8445 16.9114 17.3356 16.287C17.3587 16.2576 17.4511 16.1203 17.4511 16.103V10.8301C17.2796 10.9012 17.1222 11.0061 16.9511 11.0785C15.2405 11.8025 12.2205 11.8136 10.3471 11.827V11.8274Z" fill="currentColor"/>
<path d="M3.28218 8.54909C4.21907 9.22154 7.18929 9.38598 8.38529 9.43398C10.3164 9.51131 12.2844 9.49043 14.2031 9.22909C14.8453 9.14154 16.6493 8.89843 16.9706 8.3042C17.3426 7.61709 16.176 7.33043 15.7386 7.13754C15.3813 5.60865 13.648 4.43754 12.1106 4.54198C10.7822 4.6322 8.53729 5.90776 7.36973 5.59265C6.5284 5.36554 6.26662 4.1802 6.20529 3.42998C6.18529 3.18465 6.32173 2.55087 5.92396 2.55176C5.70396 2.5522 5.07907 3.12998 4.92573 3.31176C4.02485 4.37843 4.03418 5.84776 4.17285 7.16687C3.69685 7.32776 2.83329 7.53176 2.98662 8.2122C3.01729 8.34731 3.17462 8.47176 3.28218 8.54865V8.54909ZM5.55818 3.4122C5.5804 3.58198 5.51551 3.75843 5.50662 3.92643C5.43729 5.26509 5.75729 6.74687 6.98262 7.47665C7.19151 7.60109 7.7364 7.87531 7.96129 7.77843C8.07951 7.72731 8.12618 7.58954 8.0884 7.46954C8.02973 7.2842 7.49551 7.15043 7.29418 7.0322C6.6444 6.65087 6.1724 5.93043 6.10707 5.17576L6.35596 5.54198C7.85285 7.34331 11.1751 4.56731 13.0586 5.1602C14.3497 5.56687 15.1822 6.54598 15.3515 7.89087C15.3644 7.99265 15.408 8.37887 15.3844 8.4482C15.3635 8.50998 15.0808 8.54154 14.996 8.55843C14.4346 8.66954 13.8457 8.74376 13.276 8.80154C10.5853 9.07487 7.81285 8.97843 5.13996 8.58776C5.01107 8.54509 4.92707 8.10776 4.8924 7.97043C4.51729 6.49398 4.38485 4.56687 5.55818 3.41265V3.4122Z" fill="currentColor"/>
<path d="M3.40263 10.6576C5.04174 11.25 7.56752 11.2656 9.31819 11.2958C11.3831 11.3309 14.4946 11.346 16.4449 10.7069C17.1311 10.482 17.968 9.98334 17.0511 9.34379V9.00156C16.7253 9.13979 16.4204 9.30601 16.0791 9.40956C14.7586 9.80956 12.7733 9.95801 11.3809 10.0011C9.25597 10.0673 5.33908 10.0353 3.41241 9.21668C3.33952 9.18556 2.97285 8.97356 2.94574 9.00156V9.34379C2.11419 9.91712 2.72485 10.4127 3.40219 10.6576H3.40263Z" fill="currentColor"/>
</svg>
