<svg width="24" height="24" viewBox="0 0 24 24" fill="none" xmlns="http://www.w3.org/2000/svg" color="#4485F9">
<rect width="24" height="24" rx="4" fill="currentColor"/>
<path d="M17.7072 9.20711C18.0977 8.81658 18.0977 8.18342 17.7072 7.79289C17.3166 7.40237 16.6835 7.40237 16.293 7.79289L17.7072 9.20711ZM10 15.5L9.29294 16.2071C9.68346 16.5977 10.3166 16.5976 10.7071 16.2071L10 15.5ZM7.7071 11.7929C7.31658 11.4024 6.68341 11.4024 6.29289 11.7929C5.90237 12.1834 5.90237 12.8166 6.2929 13.2071L7.7071 11.7929ZM16.293 7.79289L9.29293 14.7929L10.7071 16.2071L17.7072 9.20711L16.293 7.79289ZM6.2929 13.2071L9.29294 16.2071L10.7071 14.7929L7.7071 11.7929L6.2929 13.2071Z" fill="white"/>
</svg>
