<svg width="73" height="18" viewBox="0 0 73 18" fill="none" xmlns="http://www.w3.org/2000/svg">
<rect width="73" height="18" rx="4" fill="url(#paint0_linear_5003_22296)"/>
<g clip-path="url(#clip0_5003_22296)">
<path d="M8.5 7.875C8.42583 7.875 8.35333 7.85301 8.29166 7.8118C8.22999 7.7706 8.18193 7.71203 8.15355 7.64351C8.12516 7.57498 8.11774 7.49958 8.13221 7.42684C8.14667 7.3541 8.18239 7.28728 8.23484 7.23484C8.28728 7.18239 8.3541 7.14667 8.42684 7.13221C8.49958 7.11774 8.57498 7.12516 8.64351 7.15355C8.71203 7.18193 8.7706 7.22999 8.8118 7.29166C8.85301 7.35333 8.875 7.42583 8.875 7.5C8.875 7.59946 8.83549 7.69484 8.76516 7.76516C8.69484 7.83549 8.59946 7.875 8.5 7.875ZM11.5 10.125C11.4258 10.125 11.3533 10.147 11.2917 10.1882C11.23 10.2294 11.1819 10.288 11.1535 10.3565C11.1252 10.425 11.1177 10.5004 11.1322 10.5732C11.1467 10.6459 11.1824 10.7127 11.2348 10.7652C11.2873 10.8176 11.3541 10.8533 11.4268 10.8678C11.4996 10.8823 11.575 10.8748 11.6435 10.8465C11.712 10.8181 11.7706 10.77 11.8118 10.7083C11.853 10.6467 11.875 10.5742 11.875 10.5C11.875 10.4005 11.8355 10.3052 11.7652 10.2348C11.6948 10.1645 11.5995 10.125 11.5 10.125ZM15.25 9C15.25 9.48937 14.898 9.85641 14.5872 10.1803C14.4105 10.365 14.2277 10.5553 14.1588 10.7227C14.095 10.8759 14.0912 11.13 14.0875 11.3761C14.0805 11.8336 14.073 12.352 13.7125 12.7125C13.352 13.073 12.8336 13.0805 12.3761 13.0875C12.13 13.0912 11.8759 13.095 11.7227 13.1588C11.5553 13.2277 11.365 13.4105 11.1803 13.5872C10.8564 13.898 10.4894 14.25 10 14.25C9.51063 14.25 9.14359 13.898 8.81969 13.5872C8.635 13.4105 8.44469 13.2277 8.27734 13.1588C8.12406 13.095 7.87 13.0912 7.62391 13.0875C7.16641 13.0805 6.64797 13.073 6.2875 12.7125C5.92703 12.352 5.91953 11.8336 5.9125 11.3761C5.90875 11.13 5.905 10.8759 5.84125 10.7227C5.77234 10.5553 5.58953 10.365 5.41281 10.1803C5.10203 9.85641 4.75 9.48937 4.75 9C4.75 8.51063 5.10203 8.14359 5.41281 7.81969C5.58953 7.635 5.77234 7.44469 5.84125 7.27734C5.905 7.12406 5.90875 6.87 5.9125 6.62391C5.91953 6.16641 5.92703 5.64797 6.2875 5.2875C6.64797 4.92703 7.16641 4.91953 7.62391 4.9125C7.87 4.90875 8.12406 4.905 8.27734 4.84125C8.44469 4.77234 8.635 4.58953 8.81969 4.41281C9.14359 4.10203 9.51063 3.75 10 3.75C10.4894 3.75 10.8564 4.10203 11.1803 4.41281C11.365 4.58953 11.5553 4.77234 11.7227 4.84125C11.8759 4.905 12.13 4.90875 12.3761 4.9125C12.8336 4.91953 13.352 4.92703 13.7125 5.2875C14.073 5.64797 14.0805 6.16641 14.0875 6.62391C14.0912 6.87 14.095 7.12406 14.1588 7.27734C14.2277 7.44469 14.4105 7.635 14.5872 7.81969C14.898 8.14359 15.25 8.51063 15.25 9ZM8.5 8.625C8.7225 8.625 8.94001 8.55902 9.12502 8.4354C9.31002 8.31179 9.45422 8.13609 9.53936 7.93052C9.62451 7.72495 9.64679 7.49875 9.60338 7.28052C9.55998 7.06229 9.45283 6.86184 9.2955 6.7045C9.13816 6.54717 8.93771 6.44002 8.71948 6.39662C8.50125 6.35321 8.27505 6.37549 8.06948 6.46064C7.86391 6.54578 7.68821 6.68998 7.5646 6.87498C7.44098 7.05999 7.375 7.2775 7.375 7.5C7.375 7.79837 7.49353 8.08452 7.7045 8.2955C7.91548 8.50647 8.20163 8.625 8.5 8.625ZM12.1403 7.39031C12.1752 7.35547 12.2028 7.31411 12.2216 7.26859C12.2405 7.22306 12.2502 7.17427 12.2502 7.125C12.2502 7.07573 12.2405 7.02694 12.2216 6.98141C12.2028 6.93589 12.1752 6.89453 12.1403 6.85969C12.1055 6.82485 12.0641 6.79721 12.0186 6.77835C11.9731 6.7595 11.9243 6.74979 11.875 6.74979C11.8257 6.74979 11.7769 6.7595 11.7314 6.77835C11.6859 6.79721 11.6445 6.82485 11.6097 6.85969L7.85969 10.6097C7.82485 10.6445 7.79721 10.6859 7.77835 10.7314C7.7595 10.7769 7.74979 10.8257 7.74979 10.875C7.74979 10.9243 7.7595 10.9731 7.77835 11.0186C7.79721 11.0641 7.82485 11.1055 7.85969 11.1403C7.93005 11.2107 8.02549 11.2502 8.125 11.2502C8.17427 11.2502 8.22306 11.2405 8.26859 11.2216C8.31411 11.2028 8.35547 11.1752 8.39031 11.1403L12.1403 7.39031ZM12.625 10.5C12.625 10.2775 12.559 10.06 12.4354 9.87498C12.3118 9.68998 12.1361 9.54578 11.9305 9.46064C11.725 9.37549 11.4988 9.35321 11.2805 9.39662C11.0623 9.44002 10.8618 9.54717 10.7045 9.7045C10.5472 9.86184 10.44 10.0623 10.3966 10.2805C10.3532 10.4988 10.3755 10.725 10.4606 10.9305C10.5458 11.1361 10.69 11.3118 10.875 11.4354C11.06 11.559 11.2775 11.625 11.5 11.625C11.7984 11.625 12.0845 11.5065 12.2955 11.2955C12.5065 11.0845 12.625 10.7984 12.625 10.5Z" fill="white"/>
</g>
<path d="M19.8691 13V11.8105H22.377C22.9316 11.8105 23.3516 11.6992 23.6367 11.4766C23.9258 11.25 24.0703 10.9219 24.0703 10.4922V10.4805C24.0703 10.1953 24.0039 9.95703 23.8711 9.76562C23.7383 9.57422 23.541 9.42969 23.2793 9.33203C23.0215 9.23438 22.7012 9.18555 22.3184 9.18555H19.8691V8.10156H22.0781C22.6133 8.10156 23.0176 8.00195 23.291 7.80273C23.5684 7.59961 23.707 7.30664 23.707 6.92383V6.91211C23.707 6.54102 23.5801 6.25195 23.3262 6.04492C23.0762 5.83789 22.7246 5.73438 22.2715 5.73438H19.8691V4.54492H22.6465C23.1855 4.54492 23.6465 4.63086 24.0293 4.80273C24.4121 4.9707 24.707 5.21289 24.9141 5.5293C25.1211 5.8418 25.2246 6.21484 25.2246 6.64844V6.66016C25.2246 6.95703 25.1562 7.23438 25.0195 7.49219C24.8867 7.75 24.707 7.96484 24.4805 8.13672C24.2578 8.30859 24.0039 8.41797 23.7188 8.46484V8.57031C24.0977 8.60156 24.4297 8.70898 24.7148 8.89258C25.0039 9.07617 25.2285 9.31445 25.3887 9.60742C25.5527 9.90039 25.6348 10.2285 25.6348 10.5918V10.6035C25.6348 11.0957 25.5176 11.5215 25.2832 11.8809C25.0488 12.2402 24.7148 12.5176 24.2812 12.7129C23.8516 12.9043 23.3359 13 22.7344 13H19.8691ZM19.1016 13V4.54492H20.6309V13H19.1016ZM26.6402 13V6.5957H28.1168V8.52344H29.3824C30.1324 8.52344 30.7281 8.72656 31.1695 9.13281C31.6148 9.53516 31.8375 10.0762 31.8375 10.7559V10.7676C31.8375 11.4473 31.6148 11.9902 31.1695 12.3965C30.7281 12.7988 30.1324 13 29.3824 13H26.6402ZM29.1832 9.66016H28.1168V11.8574H29.1832C29.5426 11.8574 29.8258 11.7578 30.0328 11.5586C30.2398 11.3555 30.3434 11.0898 30.3434 10.7617V10.75C30.3434 10.4219 30.2379 10.1582 30.027 9.95898C29.8199 9.75977 29.5387 9.66016 29.1832 9.66016ZM32.8863 13V6.5957H34.3688V13H32.8863ZM39.9797 7.73242H37.1262V13H35.6496V6.5957H39.9797V7.73242ZM43.4285 13.1289C42.7879 13.1289 42.2352 12.9961 41.7703 12.7305C41.3094 12.4609 40.9539 12.0781 40.7039 11.582C40.4578 11.0859 40.3348 10.4922 40.3348 9.80078V9.78906C40.3348 9.10156 40.4598 8.50977 40.7098 8.01367C40.9598 7.51758 41.3152 7.13672 41.7762 6.87109C42.241 6.60156 42.7918 6.4668 43.4285 6.4668C44.0652 6.4668 44.6141 6.59961 45.075 6.86523C45.5359 7.13086 45.8914 7.51367 46.1414 8.01367C46.3914 8.50977 46.5164 9.10156 46.5164 9.78906V9.80078C46.5164 10.4922 46.3914 11.0859 46.1414 11.582C45.8953 12.0781 45.5418 12.4609 45.0809 12.7305C44.6199 12.9961 44.0691 13.1289 43.4285 13.1289ZM43.4285 11.9336C43.7645 11.9336 44.0477 11.8496 44.2781 11.6816C44.5125 11.5098 44.6922 11.2656 44.8172 10.9492C44.9422 10.6328 45.0047 10.25 45.0047 9.80078V9.78906C45.0047 9.34375 44.9422 8.96289 44.8172 8.64648C44.6922 8.32617 44.5125 8.08203 44.2781 7.91406C44.0438 7.74609 43.7605 7.66211 43.4285 7.66211C43.0926 7.66211 42.8074 7.74609 42.573 7.91406C42.3387 8.08203 42.159 8.32617 42.034 8.64648C41.9129 8.96289 41.8523 9.34375 41.8523 9.78906V9.80078C41.8523 10.25 41.9129 10.6348 42.034 10.9551C42.159 11.2715 42.3387 11.5137 42.573 11.6816C42.8074 11.8496 43.0926 11.9336 43.4285 11.9336ZM48.0316 14.6699H46.6781V11.8457H47.182C47.4164 11.7051 47.5883 11.4609 47.6977 11.1133C47.8109 10.7656 47.8813 10.377 47.9086 9.94727L48.1371 6.5957H52.977V11.8457H53.9613V14.6699H52.6078V13H48.0316V14.6699ZM51.5004 11.8457V7.75H49.3969L49.2328 10.0234C49.2094 10.375 49.1586 10.6992 49.0805 10.9961C49.0063 11.293 48.8988 11.541 48.7582 11.7402V11.8457H51.5004ZM58.7637 13V10.2695H56.0801V13H54.6035V6.5957H56.0801V9.12695H58.7637V6.5957H60.2402V13H58.7637ZM64.3043 13.1289C63.6637 13.1289 63.1109 12.9961 62.6461 12.7305C62.1852 12.4609 61.8297 12.0781 61.5797 11.582C61.3336 11.0859 61.2105 10.4922 61.2105 9.80078V9.78906C61.2105 9.10156 61.3355 8.50977 61.5855 8.01367C61.8355 7.51758 62.191 7.13672 62.652 6.87109C63.1168 6.60156 63.6676 6.4668 64.3043 6.4668C64.941 6.4668 65.4898 6.59961 65.9508 6.86523C66.4117 7.13086 66.7672 7.51367 67.0172 8.01367C67.2672 8.50977 67.3922 9.10156 67.3922 9.78906V9.80078C67.3922 10.4922 67.2672 11.0859 67.0172 11.582C66.7711 12.0781 66.4176 12.4609 65.9566 12.7305C65.4957 12.9961 64.9449 13.1289 64.3043 13.1289ZM64.3043 11.9336C64.6402 11.9336 64.9234 11.8496 65.1539 11.6816C65.3883 11.5098 65.568 11.2656 65.693 10.9492C65.818 10.6328 65.8805 10.25 65.8805 9.80078V9.78906C65.8805 9.34375 65.818 8.96289 65.693 8.64648C65.568 8.32617 65.3883 8.08203 65.1539 7.91406C64.9195 7.74609 64.6363 7.66211 64.3043 7.66211C63.9684 7.66211 63.6832 7.74609 63.4488 7.91406C63.2145 8.08203 63.0348 8.32617 62.9098 8.64648C62.7887 8.96289 62.7281 9.34375 62.7281 9.78906V9.80078C62.7281 10.25 62.7887 10.6348 62.9098 10.9551C63.0348 11.2715 63.2145 11.5137 63.4488 11.6816C63.6832 11.8496 63.9684 11.9336 64.3043 11.9336Z" fill="white"/>
<defs>
<linearGradient id="paint0_linear_5003_22296" x1="-4.52479" y1="9" x2="80.5413" y2="9" gradientUnits="userSpaceOnUse">
<stop stop-color="#6B75FE"/>
<stop offset="1" stop-color="#FF3C6B"/>
</linearGradient>
<clipPath id="clip0_5003_22296">
<rect width="12" height="12" fill="white" transform="translate(4 3)"/>
</clipPath>
</defs>
</svg>
