<svg width="74" height="20" viewBox="0 0 74 20" fill="none" xmlns="http://www.w3.org/2000/svg">
<rect width="74" height="20" rx="6" fill="url(#paint0_linear_3122_37825)"/>
<mask id="mask0_3122_37825" style="mask-type:luminance" maskUnits="userSpaceOnUse" x="5" y="4" width="12" height="12">
<path d="M17 4H5V16H17V4Z" fill="white"/>
</mask>
<g mask="url(#mask0_3122_37825)">
<path d="M9.5 8.875C9.42583 8.875 9.35333 8.85301 9.29166 8.8118C9.22999 8.7706 9.18193 8.71203 9.15355 8.64351C9.12516 8.57498 9.11774 8.49958 9.13221 8.42684C9.14667 8.3541 9.18239 8.28728 9.23484 8.23484C9.28728 8.18239 9.3541 8.14667 9.42684 8.13221C9.49958 8.11774 9.57498 8.12516 9.64351 8.15355C9.71203 8.18193 9.7706 8.22999 9.8118 8.29166C9.85301 8.35333 9.875 8.42583 9.875 8.5C9.875 8.59946 9.83549 8.69484 9.76516 8.76516C9.69484 8.83549 9.59946 8.875 9.5 8.875ZM12.5 11.125C12.4258 11.125 12.3533 11.147 12.2917 11.1882C12.23 11.2294 12.1819 11.288 12.1535 11.3565C12.1252 11.425 12.1177 11.5004 12.1322 11.5732C12.1467 11.6459 12.1824 11.7127 12.2348 11.7652C12.2873 11.8176 12.3541 11.8533 12.4268 11.8678C12.4996 11.8823 12.575 11.8748 12.6435 11.8465C12.712 11.8181 12.7706 11.77 12.8118 11.7083C12.853 11.6467 12.875 11.5742 12.875 11.5C12.875 11.4005 12.8355 11.3052 12.7652 11.2348C12.6948 11.1645 12.5995 11.125 12.5 11.125ZM16.25 10C16.25 10.4894 15.898 10.8564 15.5872 11.1803C15.4105 11.365 15.2277 11.5553 15.1588 11.7227C15.095 11.8759 15.0912 12.13 15.0875 12.3761C15.0805 12.8336 15.073 13.352 14.7125 13.7125C14.352 14.073 13.8336 14.0805 13.3761 14.0875C13.13 14.0912 12.8759 14.095 12.7227 14.1588C12.5553 14.2277 12.365 14.4105 12.1803 14.5872C11.8564 14.898 11.4894 15.25 11 15.25C10.5106 15.25 10.1436 14.898 9.81969 14.5872C9.635 14.4105 9.44469 14.2277 9.27734 14.1588C9.12406 14.095 8.87 14.0912 8.62391 14.0875C8.16641 14.0805 7.64797 14.073 7.2875 13.7125C6.92703 13.352 6.91953 12.8336 6.9125 12.3761C6.90875 12.13 6.905 11.8759 6.84125 11.7227C6.77234 11.5553 6.58953 11.365 6.41281 11.1803C6.10203 10.8564 5.75 10.4894 5.75 10C5.75 9.51063 6.10203 9.14359 6.41281 8.81969C6.58953 8.635 6.77234 8.44469 6.84125 8.27734C6.905 8.12406 6.90875 7.87 6.9125 7.62391C6.91953 7.16641 6.92703 6.64797 7.2875 6.2875C7.64797 5.92703 8.16641 5.91953 8.62391 5.9125C8.87 5.90875 9.12406 5.905 9.27734 5.84125C9.44469 5.77234 9.635 5.58953 9.81969 5.41281C10.1436 5.10203 10.5106 4.75 11 4.75C11.4894 4.75 11.8564 5.10203 12.1803 5.41281C12.365 5.58953 12.5553 5.77234 12.7227 5.84125C12.8759 5.905 13.13 5.90875 13.3761 5.9125C13.8336 5.91953 14.352 5.92703 14.7125 6.2875C15.073 6.64797 15.0805 7.16641 15.0875 7.62391C15.0912 7.87 15.095 8.12406 15.1588 8.27734C15.2277 8.44469 15.4105 8.635 15.5872 8.81969C15.898 9.14359 16.25 9.51063 16.25 10ZM9.5 9.625C9.7225 9.625 9.94001 9.55902 10.125 9.4354C10.31 9.31179 10.4542 9.13609 10.5394 8.93052C10.6245 8.72495 10.6468 8.49875 10.6034 8.28052C10.56 8.06229 10.4528 7.86184 10.2955 7.7045C10.1382 7.54717 9.93771 7.44002 9.71948 7.39662C9.50125 7.35321 9.27505 7.37549 9.06948 7.46064C8.86391 7.54578 8.68821 7.68998 8.5646 7.87498C8.44098 8.05999 8.375 8.2775 8.375 8.5C8.375 8.79837 8.49353 9.08452 8.7045 9.2955C8.91548 9.50647 9.20163 9.625 9.5 9.625ZM13.1403 8.39031C13.1752 8.35547 13.2028 8.31411 13.2216 8.26859C13.2405 8.22306 13.2502 8.17427 13.2502 8.125C13.2502 8.07573 13.2405 8.02694 13.2216 7.98141C13.2028 7.93589 13.1752 7.89453 13.1403 7.85969C13.1055 7.82485 13.0641 7.79721 13.0186 7.77835C12.9731 7.7595 12.9243 7.74979 12.875 7.74979C12.8257 7.74979 12.7769 7.7595 12.7314 7.77835C12.6859 7.79721 12.6445 7.82485 12.6097 7.85969L8.85969 11.6097C8.82485 11.6445 8.79721 11.6859 8.77835 11.7314C8.7595 11.7769 8.74979 11.8257 8.74979 11.875C8.74979 11.9243 8.7595 11.9731 8.77835 12.0186C8.79721 12.0641 8.82485 12.1055 8.85969 12.1403C8.93005 12.2107 9.02549 12.2502 9.125 12.2502C9.17427 12.2502 9.22306 12.2405 9.26859 12.2216C9.31411 12.2028 9.35547 12.1752 9.39031 12.1403L13.1403 8.39031ZM13.625 11.5C13.625 11.2775 13.559 11.06 13.4354 10.875C13.3118 10.69 13.1361 10.5458 12.9305 10.4606C12.725 10.3755 12.4988 10.3532 12.2805 10.3966C12.0623 10.44 11.8618 10.5472 11.7045 10.7045C11.5472 10.8618 11.44 11.0623 11.3966 11.2805C11.3532 11.4988 11.3755 11.725 11.4606 11.9305C11.5458 12.1361 11.69 12.3118 11.875 12.4354C12.06 12.559 12.2775 12.625 12.5 12.625C12.7984 12.625 13.0845 12.5065 13.2955 12.2955C13.5065 12.0845 13.625 11.7984 13.625 11.5Z" fill="white"/>
</g>
<path d="M20.8574 14V12.8281H23.3711C23.9297 12.8281 24.3535 12.7148 24.6426 12.4883C24.9316 12.2578 25.0762 11.9277 25.0762 11.498V11.4863C25.0762 11.2012 25.0098 10.9609 24.877 10.7656C24.7441 10.5703 24.5449 10.4238 24.2793 10.3262C24.0176 10.2285 23.6934 10.1797 23.3066 10.1797H20.8574V9.10742H23.0723C23.6074 9.10742 24.0137 9.00586 24.291 8.80273C24.5723 8.59961 24.7129 8.30664 24.7129 7.92383V7.91211C24.7129 7.53711 24.5859 7.24414 24.332 7.0332C24.0781 6.82227 23.7227 6.7168 23.2656 6.7168H20.8574V5.54492H23.6289C24.168 5.54492 24.6289 5.63086 25.0117 5.80273C25.3945 5.9707 25.6895 6.21289 25.8965 6.5293C26.1035 6.8418 26.207 7.21484 26.207 7.64844V7.66016C26.207 7.95703 26.1387 8.23438 26.002 8.49219C25.8691 8.75 25.6895 8.96484 25.4629 9.13672C25.2402 9.30859 24.9863 9.41797 24.7012 9.46484V9.57031C25.0801 9.60547 25.4121 9.71484 25.6973 9.89844C25.9863 10.0781 26.2109 10.3145 26.3711 10.6074C26.5352 10.9004 26.6172 11.2285 26.6172 11.5918V11.6035C26.6172 12.0957 26.5 12.5215 26.2656 12.8809C26.0352 13.2402 25.7031 13.5176 25.2695 13.7129C24.8359 13.9043 24.3184 14 23.7168 14H20.8574ZM20.1016 14V5.54492H21.6133V14H20.1016ZM27.6285 14V7.5957H29.0875V9.5293H30.3473C31.0973 9.5293 31.693 9.73242 32.1344 10.1387C32.5797 10.541 32.8023 11.082 32.8023 11.7617V11.7734C32.8023 12.4531 32.5797 12.9941 32.1344 13.3965C31.693 13.7988 31.0973 14 30.3473 14H27.6285ZM30.1598 10.6543H29.0875V12.875H30.1598C30.5191 12.875 30.8043 12.7734 31.0152 12.5703C31.2262 12.3633 31.3316 12.0957 31.3316 11.7676V11.7559C31.3316 11.4238 31.2262 11.1582 31.0152 10.959C30.8043 10.7559 30.5191 10.6543 30.1598 10.6543ZM33.8512 14V7.5957H35.3102V14H33.8512ZM40.9211 8.72656H38.0617V14H36.6027V7.5957H40.9211V8.72656ZM44.3641 14.1289C43.7273 14.1289 43.1785 13.9961 42.7176 13.7305C42.2566 13.4609 41.9012 13.0781 41.6512 12.582C41.4051 12.0859 41.282 11.4922 41.282 10.8008V10.7891C41.282 10.1055 41.407 9.51562 41.657 9.01953C41.907 8.51953 42.2605 8.13672 42.7176 7.87109C43.1785 7.60547 43.7273 7.47266 44.3641 7.47266C45.0008 7.47266 45.5477 7.60547 46.0047 7.87109C46.4656 8.13672 46.8211 8.51758 47.0711 9.01367C47.3211 9.50977 47.4461 10.1016 47.4461 10.7891V10.8008C47.4461 11.4922 47.3211 12.0859 47.0711 12.582C46.825 13.0781 46.4715 13.4609 46.0105 13.7305C45.5535 13.9961 45.0047 14.1289 44.3641 14.1289ZM44.3641 12.9453C44.7 12.9453 44.9852 12.8613 45.2195 12.6934C45.4578 12.5215 45.6395 12.2773 45.7645 11.9609C45.8895 11.6406 45.952 11.2559 45.952 10.8066V10.7949C45.952 10.3418 45.8895 9.95703 45.7645 9.64062C45.6395 9.32031 45.4578 9.07617 45.2195 8.9082C44.9852 8.73633 44.7 8.65039 44.3641 8.65039C44.0281 8.65039 43.741 8.73633 43.5027 8.9082C43.2645 9.07617 43.0828 9.32031 42.9578 9.64062C42.8328 9.95703 42.7703 10.3418 42.7703 10.7949V10.8066C42.7703 11.2559 42.8328 11.6406 42.9578 11.9609C43.0828 12.2812 43.2625 12.5254 43.4969 12.6934C43.7352 12.8613 44.0242 12.9453 44.3641 12.9453ZM48.9438 15.6699H47.6078V12.8574H48.1117C48.3461 12.7207 48.5199 12.4785 48.6332 12.1309C48.7465 11.7793 48.8168 11.3887 48.8441 10.959L49.0668 7.5957H53.8832V12.8574H54.8676V15.6699H53.5375V14H48.9438V15.6699ZM52.4242 12.8574V8.73828H50.3148L50.1449 11.0352C50.1215 11.3867 50.0707 11.7129 49.9926 12.0137C49.9145 12.3105 49.807 12.5586 49.6703 12.7578V12.8574H52.4242ZM59.6699 14V11.2637H56.9688V14H55.5098V7.5957H56.9688V10.1328H59.6699V7.5957H61.1289V14H59.6699ZM65.193 14.1289C64.5563 14.1289 64.0074 13.9961 63.5465 13.7305C63.0855 13.4609 62.7301 13.0781 62.4801 12.582C62.234 12.0859 62.1109 11.4922 62.1109 10.8008V10.7891C62.1109 10.1055 62.2359 9.51562 62.4859 9.01953C62.7359 8.51953 63.0895 8.13672 63.5465 7.87109C64.0074 7.60547 64.5563 7.47266 65.193 7.47266C65.8297 7.47266 66.3766 7.60547 66.8336 7.87109C67.2945 8.13672 67.65 8.51758 67.9 9.01367C68.15 9.50977 68.275 10.1016 68.275 10.7891V10.8008C68.275 11.4922 68.15 12.0859 67.9 12.582C67.6539 13.0781 67.3004 13.4609 66.8395 13.7305C66.3824 13.9961 65.8336 14.1289 65.193 14.1289ZM65.193 12.9453C65.5289 12.9453 65.8141 12.8613 66.0484 12.6934C66.2867 12.5215 66.4684 12.2773 66.5934 11.9609C66.7184 11.6406 66.7809 11.2559 66.7809 10.8066V10.7949C66.7809 10.3418 66.7184 9.95703 66.5934 9.64062C66.4684 9.32031 66.2867 9.07617 66.0484 8.9082C65.8141 8.73633 65.5289 8.65039 65.193 8.65039C64.857 8.65039 64.5699 8.73633 64.3316 8.9082C64.0934 9.07617 63.9117 9.32031 63.7867 9.64062C63.6617 9.95703 63.5992 10.3418 63.5992 10.7949V10.8066C63.5992 11.2559 63.6617 11.6406 63.7867 11.9609C63.9117 12.2812 64.0914 12.5254 64.3258 12.6934C64.5641 12.8613 64.8531 12.9453 65.193 12.9453Z" fill="white"/>
<defs>
<linearGradient id="paint0_linear_3122_37825" x1="0" y1="10" x2="74" y2="10" gradientUnits="userSpaceOnUse">
<stop stop-color="#7671F3"/>
<stop offset="1" stop-color="#F14179"/>
</linearGradient>
</defs>
</svg>
