<svg width="16" height="16" viewBox="0 0 16 16" fill="none" xmlns="http://www.w3.org/2000/svg">
<path d="M1.00001 8.04399C1.00001 4.31873 4.12057 1.29883 7.97 1.29883C11.8194 1.29883 14.94 4.31873 14.94 8.04399C14.94 11.7692 11.8194 14.7892 7.97 14.7892C6.79108 14.7892 5.67886 14.5054 4.70406 14.0043L1.95191 14.7617C1.824 14.7968 1.68873 14.7982 1.56007 14.7658C1.43141 14.7333 1.31403 14.6683 1.22004 14.5773C1.12606 14.4863 1.05888 14.3726 1.02545 14.2481C0.992023 14.1236 0.99355 13.9927 1.02988 13.8689L1.81251 11.206C1.27758 10.2325 0.998535 9.14656 1.00001 8.04399ZM4.98286 6.5986C4.98286 6.72638 5.03531 6.84893 5.12868 6.93928C5.22205 7.02963 5.34868 7.08039 5.48072 7.08039H10.4593C10.5913 7.08039 10.718 7.02963 10.8113 6.93928C10.9047 6.84893 10.9571 6.72638 10.9571 6.5986C10.9571 6.47082 10.9047 6.34827 10.8113 6.25792C10.718 6.16756 10.5913 6.1168 10.4593 6.1168H5.48072C5.34868 6.1168 5.22205 6.16756 5.12868 6.25792C5.03531 6.34827 4.98286 6.47082 4.98286 6.5986ZM5.48072 9.00758C5.34868 9.00758 5.22205 9.05834 5.12868 9.1487C5.03531 9.23905 4.98286 9.3616 4.98286 9.48938C4.98286 9.61716 5.03531 9.73971 5.12868 9.83006C5.22205 9.92042 5.34868 9.97118 5.48072 9.97118H8.46786C8.5999 9.97118 8.72653 9.92042 8.8199 9.83006C8.91326 9.73971 8.96572 9.61716 8.96572 9.48938C8.96572 9.3616 8.91326 9.23905 8.8199 9.1487C8.72653 9.05834 8.5999 9.00758 8.46786 9.00758H5.48072Z" fill="#8A95A8"/>
</svg>
