<svg width="20" height="20" viewBox="0 0 20 20" fill="none" xmlns="http://www.w3.org/2000/svg" color="white">
<path d="M3 3.22222C3 3.09949 3.09949 3 3.22222 3H6.77778C6.90051 3 7 3.09949 7 3.22222V6.77778C7 6.90051 6.90051 7 6.77778 7H3.22222C3.09949 7 3 6.90051 3 6.77778V3.22222Z" fill="currentColor"/>
<path d="M3 8.22222C3 8.09949 3.09949 8 3.22222 8H6.77778C6.90051 8 7 8.09949 7 8.22222V11.7778C7 11.9005 6.90051 12 6.77778 12H3.22222C3.09949 12 3 11.9005 3 11.7778V8.22222Z" fill="currentColor"/>
<path d="M3 13.2222C3 13.0995 3.09949 13 3.22222 13H6.77778C6.90051 13 7 13.0995 7 13.2222V16.7778C7 16.9005 6.90051 17 6.77778 17H3.22222C3.09949 17 3 16.9005 3 16.7778V13.2222Z" fill="currentColor"/>
<path d="M8 3.22222C8 3.09949 8.09949 3 8.22222 3H11.7778C11.9005 3 12 3.09949 12 3.22222V6.77778C12 6.90051 11.9005 7 11.7778 7H8.22222C8.09949 7 8 6.90051 8 6.77778V3.22222Z" fill="currentColor"/>
<path d="M8 8.22222C8 8.09949 8.09949 8 8.22222 8H11.7778C11.9005 8 12 8.09949 12 8.22222V11.7778C12 11.9005 11.9005 12 11.7778 12H8.22222C8.09949 12 8 11.9005 8 11.7778V8.22222Z" fill="currentColor"/>
<path d="M8 13.2222C8 13.0995 8.09949 13 8.22222 13H11.7778C11.9005 13 12 13.0995 12 13.2222V16.7778C12 16.9005 11.9005 17 11.7778 17H8.22222C8.09949 17 8 16.9005 8 16.7778V13.2222Z" fill="currentColor"/>
<path d="M13 3.22222C13 3.09949 13.0995 3 13.2222 3H16.7778C16.9005 3 17 3.09949 17 3.22222V6.77778C17 6.90051 16.9005 7 16.7778 7H13.2222C13.0995 7 13 6.90051 13 6.77778V3.22222Z" fill="currentColor"/>
<path d="M13 8.22222C13 8.09949 13.0995 8 13.2222 8H16.7778C16.9005 8 17 8.09949 17 8.22222V11.7778C17 11.9005 16.9005 12 16.7778 12H13.2222C13.0995 12 13 11.9005 13 11.7778V8.22222Z" fill="currentColor"/>
<path d="M13 13.2222C13 13.0995 13.0995 13 13.2222 13H16.7778C16.9005 13 17 13.0995 17 13.2222V16.7778C17 16.9005 16.9005 17 16.7778 17H13.2222C13.0995 17 13 16.9005 13 16.7778V13.2222Z" fill="currentColor"/>
</svg>
