<svg width="16" height="16" viewBox="0 0 16 16" fill="none" xmlns="http://www.w3.org/2000/svg" color="#010713">
<path d="M2 6.0026V11.3359C2 11.6896 2.14048 12.0287 2.39052 12.2787C2.64057 12.5288 2.97971 12.6693 3.33333 12.6693H12.6667C13.0203 12.6693 13.3594 12.5288 13.6095 12.2787C13.8595 12.0287 14 11.6896 14 11.3359V6.0026M2 6.0026V4.66927C2 4.31565 2.14048 3.97651 2.39052 3.72646C2.64057 3.47641 2.97971 3.33594 3.33333 3.33594H12.6667C13.0203 3.33594 13.3594 3.47641 13.6095 3.72646C13.8595 3.97651 14 4.31565 14 4.66927V6.0026M2 6.0026H14" stroke="currentColor" stroke-width="1.32" stroke-linecap="round" stroke-linejoin="round"/>
<path d="M4.5 1.5V4" stroke="currentColor" stroke-width="1.32" stroke-linecap="round"/>
<path d="M11 1.49805V3.99805" stroke="currentColor" stroke-width="1.32" stroke-linecap="round"/>
<path d="M5.33333 7.96549C5.33333 8.14231 5.2631 8.31187 5.13807 8.4369C5.01305 8.56192 4.84348 8.63216 4.66667 8.63216C4.48986 8.63216 4.32029 8.56192 4.19526 8.4369C4.07024 8.31187 4 8.14231 4 7.96549C4 7.78868 4.07024 7.61911 4.19526 7.49409C4.32029 7.36907 4.48986 7.29883 4.66667 7.29883C4.84348 7.29883 5.01305 7.36907 5.13807 7.49409C5.2631 7.61911 5.33333 7.78868 5.33333 7.96549ZM5.33333 10.6322C5.33333 10.809 5.2631 10.9785 5.13807 11.1036C5.01305 11.2286 4.84348 11.2988 4.66667 11.2988C4.48986 11.2988 4.32029 11.2286 4.19526 11.1036C4.07024 10.9785 4 10.809 4 10.6322C4 10.4554 4.07024 10.2858 4.19526 10.1608C4.32029 10.0357 4.48986 9.96549 4.66667 9.96549C4.84348 9.96549 5.01305 10.0357 5.13807 10.1608C5.2631 10.2858 5.33333 10.4554 5.33333 10.6322ZM8.66667 7.96549C8.66667 8.14231 8.59643 8.31187 8.4714 8.4369C8.34638 8.56192 8.17681 8.63216 8 8.63216C7.82319 8.63216 7.65362 8.56192 7.5286 8.4369C7.40357 8.31187 7.33333 8.14231 7.33333 7.96549C7.33333 7.78868 7.40357 7.61911 7.5286 7.49409C7.65362 7.36907 7.82319 7.29883 8 7.29883C8.17681 7.29883 8.34638 7.36907 8.4714 7.49409C8.59643 7.61911 8.66667 7.78868 8.66667 7.96549ZM8.66667 10.6322C8.66667 10.809 8.59643 10.9785 8.4714 11.1036C8.34638 11.2286 8.17681 11.2988 8 11.2988C7.82319 11.2988 7.65362 11.2286 7.5286 11.1036C7.40357 10.9785 7.33333 10.809 7.33333 10.6322C7.33333 10.4554 7.40357 10.2858 7.5286 10.1608C7.65362 10.0357 7.82319 9.96549 8 9.96549C8.17681 9.96549 8.34638 10.0357 8.4714 10.1608C8.59643 10.2858 8.66667 10.4554 8.66667 10.6322ZM12 7.96549C12 8.14231 11.9298 8.31187 11.8047 8.4369C11.6797 8.56192 11.5101 8.63216 11.3333 8.63216C11.1565 8.63216 10.987 8.56192 10.8619 8.4369C10.7369 8.31187 10.6667 8.14231 10.6667 7.96549C10.6667 7.78868 10.7369 7.61911 10.8619 7.49409C10.987 7.36907 11.1565 7.29883 11.3333 7.29883C11.5101 7.29883 11.6797 7.36907 11.8047 7.49409C11.9298 7.61911 12 7.78868 12 7.96549ZM12 10.6322C12 10.809 11.9298 10.9785 11.8047 11.1036C11.6797 11.2286 11.5101 11.2988 11.3333 11.2988C11.1565 11.2988 10.987 11.2286 10.8619 11.1036C10.7369 10.9785 10.6667 10.809 10.6667 10.6322C10.6667 10.4554 10.7369 10.2858 10.8619 10.1608C10.987 10.0357 11.1565 9.96549 11.3333 9.96549C11.5101 9.96549 11.6797 10.0357 11.8047 10.1608C11.9298 10.2858 12 10.4554 12 10.6322Z" fill="currentColor"/>
</svg>
