<svg width="20" height="20" viewBox="0 0 20 20" fill="none" xmlns="http://www.w3.org/2000/svg" color="#8A95A8">
<path d="M16.3158 6.69392C16.1308 5.93779 15.5252 5.30116 14.7621 5.11845C14.3243 5.01387 13.9531 5.10466 13.6118 4.74268L6.75029 4.74957C6.43542 5.12649 5.94014 5.02077 5.51151 5.15177C4.78525 5.37241 4.21987 6.01593 4.06244 6.75598C3.99119 10.385 3.96246 14.0496 4.07738 17.6751C4.29571 18.5692 5.06219 19.2276 5.98036 19.3219L14.3783 19.3242C15.4746 19.2242 16.2974 18.3784 16.3801 17.2798C16.3399 13.7543 16.4629 10.2103 16.3169 6.69392H16.3158ZM15.7688 16.3444H4.62322V8.02348H15.7688V16.3444Z" fill="currentColor"/>
<path d="M6.78044 4.13027C8.9868 4.01536 11.3494 4.28426 13.5374 4.13257C14.0132 4.09924 14.4728 3.86482 14.5441 3.3454C14.5866 3.03743 14.5843 2.09743 14.5441 1.78716C14.5211 1.6102 14.3958 1.36543 14.2671 1.24362C14.12 1.10572 13.8925 1.01839 13.6902 1L6.59887 1.01034C6.31274 1.05516 5.98293 1.3298 5.89445 1.6033C5.81516 1.85037 5.80711 3.09949 5.85423 3.37758C5.92777 3.8154 6.35641 4.10959 6.78044 4.13027Z" fill="currentColor"/>
<path d="M9.25098 14.8449C10.1209 14.7472 10.1163 14.43 9.79453 13.7118C9.33832 12.6914 8.33741 12.4018 7.28824 12.5006C6.57577 12.5684 6.57807 12.7787 6.84352 13.3809C7.28824 14.3875 8.12827 14.9713 9.25098 14.8449Z" fill="currentColor"/>
<path d="M10.4913 13.9865C10.3672 14.3819 10.2844 14.5979 10.7395 14.7519C11.9622 15.169 13.0562 14.4979 13.5503 13.3809C13.6514 13.1523 13.8571 12.7455 13.5526 12.588C13.3239 12.4697 12.5574 12.4697 12.2874 12.4996C11.4278 12.5961 10.7475 13.1684 10.4913 13.9854V13.9865Z" fill="currentColor"/>
<path d="M9.85229 13.0428C10.1729 13.3278 10.3372 13.252 10.6176 12.967C11.4312 12.1407 11.4025 11.0732 10.8233 10.1251C10.6705 9.87463 10.4085 9.41727 10.0706 9.51955C9.92468 9.56322 9.5064 10.2033 9.42596 10.363C8.97089 11.2754 9.06398 12.343 9.85229 13.0417V13.0428Z" fill="currentColor"/>
</svg>
