<svg width="20" height="20" viewBox="0 0 20 20" fill="none" xmlns="http://www.w3.org/2000/svg" color="#010713">
<path d="M14.2282 9.35649C14.1521 9.32015 14.0748 9.28518 13.9965 9.25169C13.8601 6.74856 12.4871 5.31551 10.1817 5.30085C10.1712 5.30078 10.1608 5.30078 10.1504 5.30078C8.77143 5.30078 7.62458 5.88714 6.91869 6.95412L8.18662 7.82057C8.71394 7.02357 9.54152 6.85366 10.151 6.85366C10.158 6.85366 10.1651 6.85366 10.1721 6.85373C10.9312 6.85855 11.504 7.07841 11.8747 7.50718C12.1445 7.81933 12.325 8.25068 12.4143 8.79507C11.7413 8.68112 11.0134 8.64609 10.2353 8.69053C8.04341 8.8163 6.63427 10.0898 6.72891 11.8593C6.77694 12.7569 7.22582 13.5291 7.99283 14.0336C8.64132 14.46 9.47653 14.6685 10.3446 14.6213C11.4909 14.5587 12.3902 14.123 13.0176 13.3264C13.4941 12.7214 13.7954 11.9373 13.9285 10.9494C14.4748 11.2779 14.8797 11.7101 15.1033 12.2297C15.4835 13.1129 15.5057 14.5642 14.3169 15.7475C13.2753 16.784 12.0233 17.2325 10.1312 17.2463C8.03232 17.2308 6.44496 16.5603 5.41291 15.2533C4.44647 14.0294 3.94701 12.2617 3.92838 9.99923C3.94701 7.73669 4.44647 5.96897 5.41291 4.74514C6.44496 3.43817 8.03229 2.76764 10.1312 2.7521C12.2453 2.76776 13.8603 3.44152 14.9319 4.75479C15.4573 5.3988 15.8534 6.2087 16.1146 7.153L17.6004 6.75809C17.2839 5.59576 16.7858 4.59416 16.108 3.7635C14.7342 2.07983 12.7251 1.21711 10.1364 1.19922H10.126C7.54254 1.21705 5.5559 2.08305 4.22128 3.77316C3.03365 5.27714 2.42104 7.36983 2.40046 9.99304L2.40039 9.99923L2.40046 10.0054C2.42104 12.6286 3.03365 14.7213 4.22128 16.2253C5.5559 17.9154 7.54254 18.7815 10.126 18.7992H10.1364C12.4332 18.7834 14.0522 18.1843 15.3859 16.8569C17.1308 15.1203 17.0783 12.9435 16.5032 11.6072C16.0906 10.6489 15.3039 9.87055 14.2282 9.35649ZM10.2625 13.0707C9.30184 13.1246 8.30379 12.6951 8.25458 11.775C8.21811 11.0928 8.74193 10.3316 10.3215 10.2409C10.5024 10.2305 10.6799 10.2255 10.8542 10.2255C11.428 10.2255 11.9647 10.281 12.4527 10.3873C12.2707 12.6516 11.2031 13.0193 10.2625 13.0707Z" fill="currentColor"/>
</svg>
