<svg width="20" height="20" viewBox="0 0 20 20" fill="none" xmlns="http://www.w3.org/2000/svg" color="#010713">
<path fill-rule="evenodd" clip-rule="evenodd" d="M3.01019 15.6455C2.69638 15.5526 2.41005 15.3875 2.17536 15.1639C1.94068 14.9403 1.76452 14.665 1.66175 14.361C1.07453 12.7899 0.90054 6.22955 2.03149 4.93446C2.40788 4.51316 2.93931 4.25378 3.51041 4.21261C6.54439 3.89414 15.9182 3.93661 16.9948 4.31876C17.2976 4.41466 17.5742 4.57621 17.804 4.7913C18.0337 5.00639 18.2106 5.26945 18.3214 5.56077C18.963 7.18494 18.9848 13.0871 18.2345 14.6476C18.0354 15.0538 17.7022 15.3828 17.2884 15.5818C16.1574 16.1338 4.51087 16.1232 3.01019 15.6455ZM7.82758 12.567L13.2648 9.80696L7.82758 7.02571V12.567Z" fill="currentColor"/>
</svg>
