<svg width="26" height="26" viewBox="0 0 26 26" fill="none" xmlns="http://www.w3.org/2000/svg" color="#010713">
<rect x="8.09609" y="4.01211" width="13.9" height="13.9" rx="2.75" stroke="currentColor" stroke-width="1.7"/>
<mask id="mask0_4032_48728" style="mask-type:alpha" maskUnits="userSpaceOnUse" x="2" y="7" width="17" height="17">
<path d="M7.93047 17.4234V7.02344H2.73047V23.9234H18.9805V17.4234H7.93047Z" fill="currentColor"/>
</mask>
<g mask="url(#mask0_4032_48728)">
<path d="M7.34375 9.98145H6.97852C5.92949 9.98166 5.07931 10.8318 5.0791 11.8809V19.0811C5.07918 20.1302 5.9294 20.9812 6.97852 20.9814H14.1787C15.2279 20.9813 16.079 20.1303 16.0791 19.0811V18.7217H17.7793V19.0811L17.7744 19.2666C17.681 21.1072 16.2048 22.5833 14.3643 22.6768L14.1787 22.6816H6.97852L6.79395 22.6768C4.89172 22.5805 3.37898 21.0072 3.37891 19.0811V11.8809C3.37912 9.89294 4.9906 8.28146 6.97852 8.28125H7.34375V9.98145ZM14.1787 8.28125C16.1667 8.28135 17.7791 9.89287 17.7793 11.8809V16.668H16.0791V11.8809C16.0789 10.8318 15.2278 9.98154 14.1787 9.98145H9.39746V8.28125H14.1787Z" fill="currentColor"/>
</g>
</svg>
