<svg width="16" height="16" viewBox="0 0 16 16" fill="none" xmlns="http://www.w3.org/2000/svg" color="#010713">
<path d="M3.27252 2.11477C2.95281 1.79508 2.43448 1.79508 2.11477 2.11477C1.79508 2.43448 1.79508 2.95281 2.11477 3.27252L6.84226 8L2.11482 12.7275C1.79512 13.0471 1.79512 13.5655 2.11482 13.8852C2.43453 14.2049 2.95287 14.2049 3.27257 13.8852L8 9.15774L12.7275 13.8852C13.0471 14.2049 13.5655 14.2049 13.8852 13.8852C14.2049 13.5655 14.2049 13.0471 13.8852 12.7275L9.15774 8L13.8853 3.27252C14.2049 2.95281 14.2049 2.43448 13.8853 2.11477C13.5656 1.79508 13.0472 1.79508 12.7275 2.11477L8 6.84226L3.27252 2.11477Z" fill="currentColor"/>
</svg>
