<svg width="22" height="22" viewBox="0 0 22 22" fill="none" xmlns="http://www.w3.org/2000/svg" color="#010713">
<path d="M17.1105 10.4275H11.5724V4.88933C11.5724 4.73738 11.512 4.59165 11.4046 4.48421C11.2971 4.37677 11.1514 4.31641 10.9995 4.31641C10.8475 4.31641 10.7018 4.37677 10.5944 4.48421C10.4869 4.59165 10.4265 4.73738 10.4265 4.88933V10.4275H4.88835C4.7364 10.4275 4.59068 10.4879 4.48323 10.5953C4.37579 10.7028 4.31543 10.8485 4.31543 11.0004C4.31543 11.1524 4.37579 11.2981 4.48323 11.4055C4.59068 11.513 4.7364 11.5734 4.88835 11.5734H10.4265V17.1115C10.4265 17.2635 10.4869 17.4092 10.5944 17.5166C10.7018 17.6241 10.8475 17.6845 10.9995 17.6845C11.1514 17.6845 11.2971 17.6241 11.4046 17.5166C11.512 17.4092 11.5724 17.2635 11.5724 17.1115V11.5734H17.1105C17.2625 11.5734 17.4082 11.513 17.5157 11.4055C17.6231 11.2981 17.6835 11.1524 17.6835 11.0004C17.6835 10.8485 17.6231 10.7028 17.5157 10.5953C17.4082 10.4879 17.2625 10.4275 17.1105 10.4275Z" fill="currentColor"/>
</svg>
