<svg width="80" height="80" viewBox="0 0 80 80" fill="none" xmlns="http://www.w3.org/2000/svg" color="#010713">
<path d="M39.3309 15.8136L32.3588 22.7857C31.0701 24.0744 31.0701 26.1639 32.3588 27.4526C33.6476 28.7413 35.737 28.7413 37.0257 27.4526L43.9978 20.4805C49.2304 15.2479 55.9881 13.577 61.1924 18.7813C66.3967 23.9856 64.7562 30.7738 59.5237 36.0064L52.5516 42.9785C51.2629 44.2672 51.2629 46.3566 52.5516 47.6454C53.8403 48.9341 55.9298 48.9341 57.2185 47.6454L64.1906 40.6733C71.997 32.8668 73.6658 21.9208 65.8593 14.1144C58.0529 6.30791 47.1374 8.00717 39.3309 15.8136ZM14.0708 65.9029C21.8773 73.7093 32.8516 72.0123 40.6298 64.2341L47.6018 57.262C48.8906 55.9733 48.8906 53.8838 47.6018 52.5951C46.3131 51.3064 44.2237 51.3064 42.9349 52.5951L35.9629 59.5672C30.7586 64.7715 23.9703 66.4686 18.7377 61.236C13.5052 56.0034 15.2327 49.2456 20.437 44.0413L27.4091 37.0693C28.6978 35.7805 28.6978 33.6911 27.4091 32.4024C26.1203 31.1136 24.0309 31.1136 22.7422 32.4024L15.7701 39.3744C7.99193 47.1526 6.29266 58.1247 14.0708 65.9029Z" fill="currentColor"/>
<path d="M43.6775 31.6501L31.685 43.6426C30.3963 44.9314 30.3963 47.0208 31.685 48.3095C32.9737 49.5983 35.0632 49.5983 36.3519 48.3095L48.3444 36.317C49.6332 35.0283 49.6332 32.9388 48.3444 31.6501C47.0557 30.3614 44.9663 30.3614 43.6775 31.6501Z" fill="currentColor"/>
<path d="M24.9569 22.3163L16.0548 13.4142C15.2738 12.6332 14.0075 12.6332 13.2264 13.4142C12.4454 14.1953 12.4454 15.4616 13.2264 16.2426L22.1285 25.1447C22.9095 25.9257 24.1758 25.9257 24.9569 25.1447C25.7379 24.3636 25.7379 23.0973 24.9569 22.3163Z" fill="currentColor"/>
<path d="M55.9962 58.6339L64.8983 67.536C65.6793 68.317 66.9457 68.317 67.7267 67.536C68.5078 66.7549 68.5078 65.4886 67.7267 64.7076L58.8247 55.8055C58.0436 55.0245 56.7773 55.0245 55.9962 55.8055C55.2152 56.5866 55.2152 57.8529 55.9962 58.6339Z" fill="currentColor"/>
<path d="M31.9542 15.703L26.7187 6.63488C26.1665 5.6783 24.9433 5.35055 23.9867 5.90283C23.0301 6.45512 22.7024 7.6783 23.2546 8.63488L28.4901 17.703C29.0424 18.6596 30.2656 18.9873 31.2222 18.435C32.1787 17.8827 32.5065 16.6596 31.9542 15.703Z" fill="currentColor"/>
<path d="M48.9989 65.2472L54.2344 74.3153C54.7867 75.2719 56.0098 75.5996 56.9664 75.0474C57.923 74.4951 58.2508 73.2719 57.6985 72.3153L52.463 63.2472C51.9107 62.2906 50.6875 61.9629 49.731 62.5152C48.7744 63.0675 48.4466 64.2906 48.9989 65.2472Z" fill="currentColor"/>
<path d="M17.5759 28.7155L8.45861 23.4517C7.50203 22.8994 6.27885 23.2271 5.72656 24.1837C5.17428 25.1403 5.50203 26.3635 6.45861 26.9158L15.5759 32.1796C16.5325 32.7319 17.7556 32.4041 18.3079 31.4476C18.8602 30.491 18.5325 29.2678 17.5759 28.7155Z" fill="currentColor"/>
<path d="M63.3773 52.2347L72.4945 57.4985C73.4511 58.0508 74.6743 57.7231 75.2266 56.7665C75.7788 55.8099 75.4511 54.5867 74.4945 54.0344L65.3773 48.7706C64.4207 48.2183 63.1975 48.546 62.6452 49.5026C62.0929 50.4592 62.4207 51.6824 63.3773 52.2347Z" fill="currentColor"/>
</svg>
