<svg width="192" height="192" viewBox="0 0 192 192" fill="none" xmlns="http://www.w3.org/2000/svg">
<path d="M60.0069 146.506C53.7062 146.506 48.095 145.413 43.1675 143.221C38.24 140.99 34.3409 137.705 31.4703 133.367C28.6393 128.989 27.2266 123.535 27.2266 117.005C27.2266 111.512 28.2324 106.89 30.2441 103.158C32.2614 99.4205 35.0021 96.4189 38.4716 94.1423C41.9412 91.8656 45.8799 90.1496 50.2932 88.9886C54.7516 87.8276 59.4192 87.0121 64.3072 86.542C70.0484 85.9417 74.6764 85.381 78.1855 84.8657C81.7003 84.305 84.2489 83.4895 85.8311 82.4191C87.4133 81.3431 88.2101 79.7573 88.2101 77.6505V77.2654C88.2101 73.1878 86.9273 70.0277 84.3562 67.7963C81.8303 65.5649 78.2307 64.4493 73.5575 64.4493C68.63 64.4493 64.7084 65.5423 61.7982 67.734C58.888 69.8804 56.9555 72.5875 56.0174 75.8496L30.6962 73.7881C31.9789 67.7793 34.5105 62.5804 38.2795 58.2026C42.0486 53.7795 46.914 50.3871 52.8643 48.0255C58.8654 45.6186 65.8046 44.418 73.6875 44.418C79.1688 44.418 84.4184 45.0636 89.4306 46.3492C94.4881 47.6348 98.9635 49.6339 102.863 52.341C106.807 55.0481 109.909 58.5254 112.181 62.7729C114.452 66.9808 115.588 72.0268 115.588 77.9111V144.637H89.6228V130.92H88.8486C87.2664 134.012 85.1473 136.736 82.4858 139.098C79.8299 141.414 76.6372 143.244 72.9077 144.574C69.1838 145.86 64.8779 146.506 59.9899 146.506H60.0069ZM67.8446 127.567C71.8679 127.567 75.4279 126.775 78.5133 125.183C81.5986 123.552 84.0172 121.36 85.7746 118.614C87.532 115.867 88.4079 112.752 88.4079 109.275V98.7749C87.5489 99.3355 86.3736 99.8509 84.8704 100.321C83.4125 100.751 81.7625 101.159 79.9203 101.544C78.0782 101.89 76.236 102.207 74.3938 102.513C72.5517 102.768 70.879 103.005 69.3816 103.221C66.1663 103.691 63.3635 104.444 60.9619 105.475C58.5603 106.505 56.6955 107.899 55.3676 109.66C54.0396 111.376 53.3785 113.522 53.3785 116.099C53.3785 119.837 54.729 122.691 57.4245 124.668C60.1651 126.599 63.6347 127.567 67.8389 127.567H67.8446Z" fill="#010713"/>
<path d="M147.134 144.532C156.847 144.532 164.721 136.658 164.721 126.945C164.721 117.231 156.847 109.357 147.134 109.357C137.421 109.357 129.547 117.231 129.547 126.945C129.547 136.658 137.421 144.532 147.134 144.532Z" fill="#FF3C6B"/>
</svg>
