<svg width="192" height="192" viewBox="0 0 192 192" fill="none" xmlns="http://www.w3.org/2000/svg" color="white">
<g clip-path="url(#clip0_3534_21574)">
<path d="M192 0H0V192H192V0Z" fill="currentColor"/>
<path d="M75.1038 141.696C69.4633 141.696 64.4399 140.717 60.0286 138.755C55.6173 136.758 52.1268 133.817 49.5569 129.934C47.0225 126.014 45.7578 121.132 45.7578 115.286C45.7578 110.369 46.6584 106.231 48.4593 102.89C50.2651 99.5441 52.7188 96.8569 55.8247 94.8188C58.9308 92.7806 62.4568 91.2444 66.4078 90.2051C70.3991 89.1658 74.5777 88.4357 78.9534 88.0149C84.0931 87.4774 88.2363 86.9754 91.3777 86.5142C94.5243 86.0123 96.8058 85.2821 98.2224 84.3238C99.6387 83.3606 100.352 81.9411 100.352 80.055V79.7102C100.352 76.0598 99.2038 73.2308 96.902 71.2331C94.6408 69.2355 91.4182 68.2369 87.2347 68.2369C82.8234 68.2369 79.3126 69.2153 76.7073 71.1775C74.1022 73.099 72.3719 75.5224 71.5323 78.4427L48.8639 76.5973C50.0124 71.2179 52.2787 66.5636 55.6527 62.6445C59.027 58.6849 63.3826 55.6479 68.7095 53.5339C74.0819 51.3791 80.294 50.3042 87.3509 50.3042C92.258 50.3042 96.9577 50.8823 101.445 52.0331C105.972 53.184 109.979 54.9737 113.469 57.3971C117 59.8206 119.778 62.9336 121.811 66.7361C123.845 70.503 124.862 75.0204 124.862 80.2883V140.023H101.617V127.743H100.924C99.5071 130.512 97.6102 132.95 95.2274 135.065C92.8499 137.138 89.9917 138.776 86.6529 139.967C83.3191 141.118 79.4643 141.696 75.0886 141.696H75.1038ZM82.1202 124.742C85.7221 124.742 88.9091 124.032 91.6711 122.607C94.4332 121.147 96.5984 119.185 98.1718 116.726C99.7449 114.267 100.529 111.479 100.529 108.366V98.9661C99.7601 99.468 98.708 99.9294 97.3623 100.35C96.0571 100.736 94.58 101.101 92.9308 101.445C91.2817 101.755 89.6324 102.038 87.9834 102.312C86.3341 102.54 84.8368 102.753 83.4961 102.946C80.6178 103.367 78.1087 104.041 75.9586 104.964C73.8087 105.887 72.1393 107.134 70.9505 108.711C69.7618 110.247 69.1698 112.168 69.1698 114.475C69.1698 117.821 70.3788 120.377 72.7919 122.146C75.2454 123.875 78.3515 124.742 82.1152 124.742H82.1202Z" fill="#010713"/>
<path d="M153.381 141.646C162.077 141.646 169.126 134.596 169.126 125.901C169.126 117.205 162.077 110.156 153.381 110.156C144.686 110.156 137.637 117.205 137.637 125.901C137.637 134.596 144.686 141.646 153.381 141.646Z" fill="#FF3C6B"/>
</g>
<defs>
<clipPath id="clip0_3534_21574">
<rect width="192" height="192" fill="currentColor"/>
</clipPath>
</defs>
</svg>
