<svg width="192" height="192" viewBox="0 0 192 192" fill="none" xmlns="http://www.w3.org/2000/svg">
<path d="M62.5065 148.61C55.9434 148.61 50.0983 147.472 44.9655 145.189C39.8327 142.864 35.7712 139.443 32.7809 134.924C29.8319 130.363 28.3604 124.682 28.3604 117.881C28.3604 112.158 29.4081 107.344 31.5036 103.457C33.605 99.5631 36.4598 96.4365 40.074 94.0649C43.6881 91.6934 47.7909 89.9059 52.3881 88.6965C57.0323 87.4872 61.8944 86.6377 66.986 86.148C72.9664 85.5227 77.7872 84.9387 81.4426 84.4018C85.1039 83.8178 87.7586 82.9683 89.4067 81.8533C91.0549 80.7324 91.8848 79.0806 91.8848 76.8861V76.4849C91.8848 72.2374 90.5486 68.9456 87.8704 66.6212C85.2392 64.2969 81.4897 63.1347 76.6218 63.1347C71.4889 63.1347 67.4039 64.2733 64.3725 66.5563C61.341 68.7922 59.328 71.6121 58.3508 75.0101L31.9745 72.8627C33.3107 66.6035 35.9477 61.188 39.8739 56.6278C43.8 52.0204 48.8681 48.4867 55.0663 46.0267C61.3175 43.5195 68.5458 42.2688 76.7571 42.2688C82.4668 42.2688 87.9352 42.9413 93.1563 44.2805C98.4245 45.6196 103.086 47.7021 107.148 50.522C111.256 53.3418 114.488 56.964 116.854 61.3885C119.221 65.7717 120.404 71.028 120.404 77.1574V146.663H93.3564V132.375H92.55C90.9018 135.596 88.6945 138.434 85.922 140.894C83.1555 143.307 79.8298 145.212 75.9448 146.598C72.0658 147.938 67.5805 148.61 62.4889 148.61H62.5065ZM70.6708 128.883C74.8618 128.883 78.5701 128.057 81.784 126.399C84.9979 124.7 87.5172 122.417 89.3478 119.556C91.1785 116.695 92.0909 113.45 92.0909 109.828V98.8906C91.1962 99.4746 89.9718 100.011 88.4061 100.501C86.8874 100.949 85.1686 101.374 83.2497 101.775C81.3308 102.135 79.4118 102.466 77.4929 102.784C75.574 103.05 73.8317 103.297 72.2718 103.522C68.9225 104.011 66.003 104.796 63.5013 105.869C60.9997 106.943 59.0572 108.394 57.6739 110.229C56.2906 112.017 55.6019 114.252 55.6019 116.937C55.6019 120.83 57.0088 123.803 59.8165 125.862C62.6713 127.874 66.2855 128.883 70.6649 128.883H70.6708Z" fill="#010713"/>
<path d="M153.263 152.554C163.381 152.554 171.583 144.352 171.583 134.234C171.583 124.116 163.381 115.914 153.263 115.914C143.146 115.914 134.943 124.116 134.943 134.234C134.943 144.352 143.146 152.554 153.263 152.554Z" fill="#FF3C6B"/>
</svg>
