<svg width="20" height="20" viewBox="0 0 20 20" fill="none" xmlns="http://www.w3.org/2000/svg" color="#8A95A8">
<path fill-rule="evenodd" clip-rule="evenodd" d="M10.7073 12.8288C10.7073 12.4381 10.3927 12.1216 10.0002 12.1216C8.79452 12.1216 6.46448 12.1216 6.46448 12.1216C5.29416 12.1216 4.34305 11.1709 4.34305 10.0002C4.34305 8.82952 5.29416 7.87877 6.46448 7.87877H10.0002C10.3927 7.87877 10.7073 7.56232 10.7073 7.17162C10.7073 6.23395 10.7073 4.69662 10.7073 4.69662C10.7073 4.13409 10.4846 3.59454 10.085 3.19642C9.68905 2.79865 9.14809 2.5752 8.58591 2.5752C7.44387 2.5752 5.83866 2.5752 4.69662 2.5752C4.13445 2.5752 3.59348 2.79865 3.19748 3.19642C2.79795 3.59454 2.5752 4.13409 2.5752 4.69662V15.3038C2.5752 15.8663 2.79795 16.4058 3.19748 16.804C3.59348 17.2017 4.13445 17.4252 4.69662 17.4252H8.58591C9.14809 17.4252 9.68905 17.2017 10.085 16.804C10.4846 16.4058 10.7073 15.8663 10.7073 15.3038C10.7073 15.3038 10.7073 13.7664 10.7073 12.8288ZM15.3639 9.29305H6.46448C6.07555 9.29305 5.75734 9.60985 5.75734 10.0002C5.75734 10.3905 6.07555 10.7073 6.46448 10.7073H15.3639L13.0374 13.036C12.7616 13.3117 12.7616 13.7601 13.0374 14.0359C13.3131 14.312 13.7587 14.312 14.0345 14.0359C14.0345 14.0359 16.2195 11.8543 16.9691 11.1037C17.2625 10.8109 17.4252 10.4142 17.4252 10.0002C17.4252 9.58616 17.2625 9.1891 16.9691 8.8967C16.2195 8.14607 14.0345 5.96453 14.0345 5.96453C13.7587 5.68839 13.3131 5.68839 13.0374 5.96453C12.7616 6.24032 12.7616 6.68865 13.0374 6.96443L15.3639 9.29305Z" fill="currentColor"/>
</svg>
