<svg width="16" height="16" viewBox="0 0 16 16" fill="none" xmlns="http://www.w3.org/2000/svg" color="#010713">
<path d="M6.15332 2.61816C7.00225 2.70455 7.71406 3.24901 8.04199 4H14.4805C14.8781 4 15.2002 4.32209 15.2002 4.71973V4.87988C15.2 5.27735 14.878 5.59961 14.4805 5.59961H8.13867C7.85037 6.55363 6.96399 7.24882 5.91602 7.24902L5.67871 7.2373C4.73611 7.14165 3.96181 6.48057 3.69531 5.59961H1.52051C1.12305 5.59954 0.80097 5.27731 0.800781 4.87988V4.71973C0.800781 4.32214 1.12293 4.00007 1.52051 4H3.78809C4.14611 3.17972 4.96385 2.60547 5.91602 2.60547L6.15332 2.61816ZM5.91602 3.94238C5.37191 3.94238 4.93066 4.38363 4.93066 4.92773C4.93098 5.47157 5.3721 5.91309 5.91602 5.91309C6.45972 5.91284 6.90105 5.47142 6.90137 4.92773C6.90137 4.38378 6.45991 3.94263 5.91602 3.94238Z" fill="currentColor"/>
<path d="M10.3326 8.61768C11.3257 8.71869 12.1309 9.4465 12.3522 10.3989H14.4801C14.8777 10.3989 15.1997 10.7211 15.1998 11.1187V11.2788C15.1998 11.6764 14.8777 11.9985 14.4801 11.9985H12.152C11.7647 12.7393 10.9892 13.2455 10.0953 13.2456L9.85803 13.2339C9.06555 13.1534 8.39252 12.6728 8.03967 11.9985H1.52112C1.1236 11.9985 0.800603 11.6763 0.800415 11.2788V11.1187C0.800415 10.721 1.12349 10.3989 1.52112 10.3989H7.8385C8.07738 9.37179 8.99561 8.60509 10.0953 8.60498L10.3326 8.61768ZM10.0953 9.99463C9.58112 9.99476 9.1637 10.412 9.1637 10.9263C9.16413 11.4402 9.58138 11.8568 10.0953 11.8569C10.6093 11.8568 11.0256 11.4401 11.026 10.9263C11.026 10.412 10.6095 9.9948 10.0953 9.99463Z" fill="currentColor"/>
</svg>
