<svg width="20" height="20" viewBox="0 0 20 20" fill="none" xmlns="http://www.w3.org/2000/svg" color="#010713">
<path d="M2.9611 4.08762C2.87106 4.08762 2.78189 4.10535 2.69869 4.13981C2.6155 4.17427 2.53991 4.22478 2.47623 4.28846C2.41256 4.35213 2.36205 4.42772 2.32759 4.51092C2.29313 4.59411 2.27539 4.68328 2.27539 4.77333C2.27539 4.86338 2.29313 4.95255 2.32759 5.03574C2.36205 5.11894 2.41256 5.19453 2.47623 5.2582C2.53991 5.32188 2.6155 5.37239 2.69869 5.40685C2.78189 5.44131 2.87106 5.45904 2.9611 5.45904V4.08762ZM17.0563 5.45904C17.2382 5.45904 17.4126 5.3868 17.5412 5.2582C17.6698 5.12961 17.7421 4.95519 17.7421 4.77333C17.7421 4.59147 17.6698 4.41705 17.5412 4.28846C17.4126 4.15986 17.2382 4.08762 17.0563 4.08762V5.45904ZM8.98015 8.32095C8.98015 8.13909 8.90791 7.96467 8.77931 7.83608C8.65072 7.70748 8.4763 7.63524 8.29444 7.63524C8.11258 7.63524 7.93816 7.70748 7.80957 7.83608C7.68097 7.96467 7.60872 8.13909 7.60872 8.32095H8.98015ZM7.60872 13.8095C7.60872 13.9914 7.68097 14.1658 7.80957 14.2944C7.93816 14.423 8.11258 14.4952 8.29444 14.4952C8.4763 14.4952 8.65072 14.423 8.77931 14.2944C8.90791 14.1658 8.98015 13.9914 8.98015 13.8095H7.60872ZM12.4068 8.32095C12.4068 8.13909 12.3346 7.96467 12.206 7.83608C12.0774 7.70748 11.903 7.63524 11.7211 7.63524C11.5392 7.63524 11.3648 7.70748 11.2362 7.83608C11.1076 7.96467 11.0354 8.13909 11.0354 8.32095H12.4068ZM11.0354 13.8095C11.0354 13.9914 11.1076 14.1658 11.2362 14.2944C11.3648 14.423 11.5392 14.4952 11.7211 14.4952C11.903 14.4952 12.0774 14.423 12.206 14.2944C12.3346 14.1658 12.4068 13.9914 12.4068 13.8095H11.0354ZM2.9611 4.77333V5.45904H17.0563V4.08762H2.9611V4.77333ZM7.71444 4.11619H8.40015V2.65904H7.02777V4.11619H7.71444ZM12.303 2.65904H11.6173V4.11619H12.9887V2.65904H12.303ZM12.2182 2.57143V3.25714C12.0598 3.25714 11.9077 3.19445 11.7953 3.08275C11.6829 2.97105 11.6193 2.81942 11.6182 2.66095H12.9897C12.9902 2.55932 12.9706 2.4586 12.9321 2.36457C12.8935 2.27053 12.8368 2.18504 12.7651 2.113C12.6934 2.04097 12.6082 1.9838 12.5143 1.9448C12.4205 1.90579 12.3199 1.88571 12.2182 1.88571V2.57143ZM7.71349 2.66H8.3992C8.39819 2.81847 8.33454 2.9701 8.22212 3.0818C8.10971 3.1935 7.95767 3.25619 7.7992 3.25619V1.88571C7.69765 1.88571 7.59711 1.90576 7.50333 1.94471C7.40955 1.98365 7.32438 2.04073 7.25271 2.11267C7.18103 2.1846 7.12427 2.26998 7.08567 2.36391C7.04707 2.45783 7.0274 2.5575 7.02777 2.65904L7.71349 2.66ZM4.77825 5.45714H4.09253V17.2438H5.46396V5.45714H4.77825ZM4.86301 17.3333V18.019H15.1535V16.6476H4.86301V17.3333ZM15.2373 17.2429H15.923V5.45714H14.5516V17.2438L15.2373 17.2429ZM15.1525 17.3314V18.0171C15.6078 18.0171 15.923 17.64 15.923 17.2429H14.5525C14.5525 16.9429 14.7906 16.6457 15.1525 16.6457V17.3314ZM4.7773 17.2429H4.09158C4.09158 17.64 4.40587 18.0171 4.86206 18.0171V16.6457C5.22396 16.6457 5.46206 16.9438 5.46206 17.2429H4.7773ZM8.29444 8.31904H7.60872V13.8095H8.98015V8.32095L8.29444 8.31904ZM11.7202 8.31904H11.0344L11.0354 13.8095H12.4068V8.32095L11.7202 8.31904ZM7.7992 2.57143V3.25619L10.0087 3.25714V1.88571H7.7992V2.57143ZM10.0087 2.57143V3.25714H12.2182V1.88571H10.0087V2.57143Z" fill="currentColor"/>
</svg>
