<svg width="32" height="32" viewBox="0 0 32 32" fill="none" xmlns="http://www.w3.org/2000/svg" color="#010713">
<path d="M22.998 15.0012H11.138L14.768 10.6412C14.8521 10.5401 14.9154 10.4234 14.9544 10.2979C14.9933 10.1723 15.0071 10.0403 14.9951 9.90933C14.983 9.7784 14.9453 9.65112 14.884 9.53478C14.8227 9.41844 14.7392 9.3153 14.638 9.23125C14.5369 9.1472 14.4202 9.0839 14.2947 9.04494C14.1691 9.00599 14.0371 8.99216 13.9061 9.00423C13.7752 9.0163 13.6479 9.05404 13.5316 9.1153C13.4152 9.17656 13.3121 9.26013 13.228 9.36125L8.22805 15.3612C8.19441 15.409 8.16433 15.4591 8.13805 15.5112C8.13805 15.5612 8.13805 15.5912 8.06805 15.6413C8.02272 15.7559 7.99899 15.878 7.99805 16.0012C7.99899 16.1245 8.02272 16.2466 8.06805 16.3612C8.06805 16.4112 8.06805 16.4412 8.13805 16.4912C8.16433 16.5434 8.19441 16.5935 8.22805 16.6412L13.228 22.6412C13.3221 22.7541 13.4398 22.8449 13.5729 22.9071C13.706 22.9694 13.8511 23.0015 13.998 23.0012C14.2317 23.0017 14.4581 22.9203 14.638 22.7712C14.7393 22.6873 14.823 22.5842 14.8844 22.4679C14.9457 22.3515 14.9835 22.2242 14.9956 22.0932C15.0077 21.9622 14.9938 21.8302 14.9547 21.7046C14.9157 21.579 14.8522 21.4623 14.768 21.3613L11.138 17.0012H22.998C23.2633 17.0012 23.5176 16.8959 23.7052 16.7084C23.8927 16.5208 23.998 16.2665 23.998 16.0012C23.998 15.736 23.8927 15.4817 23.7052 15.2941C23.5176 15.1066 23.2633 15.0012 22.998 15.0012Z" fill="currentColor"/>
</svg>
