<svg width="16" height="16" viewBox="0 0 16 16" fill="none" xmlns="http://www.w3.org/2000/svg" color="#010713">
<path d="M2.40235 8.79922L11.8903 8.79922L8.98634 12.2872C8.85055 12.4506 8.78522 12.6612 8.80473 12.8728C8.82423 13.0843 8.92697 13.2794 9.09034 13.4152C9.25372 13.551 9.46434 13.6163 9.67588 13.5968C9.88742 13.5773 10.0826 13.4746 10.2183 13.3112L14.2183 8.51122C14.2458 8.4734 14.2699 8.43325 14.2903 8.39122C14.2903 8.35122 14.2903 8.32722 14.3463 8.28722C14.3826 8.19549 14.4016 8.09785 14.4023 7.99922C14.4016 7.90059 14.3826 7.80295 14.3463 7.71122C14.3463 7.67122 14.3463 7.64722 14.2903 7.60722C14.2695 7.56509 14.2455 7.52509 14.2183 7.48722L10.2183 2.68722C10.1431 2.59691 10.0489 2.52429 9.94247 2.47451C9.836 2.42474 9.71987 2.39903 9.60234 2.39922C9.4502 2.39897 9.30113 2.44212 9.17264 2.52359C9.04415 2.60507 8.94155 2.7215 8.87689 2.85922C8.81223 2.99694 8.78818 3.15025 8.80756 3.30116C8.82695 3.45206 8.88897 3.59431 8.98634 3.71122L11.8903 7.19922L2.40235 7.19922C2.19017 7.19922 1.98669 7.2835 1.83666 7.43353C1.68663 7.58356 1.60235 7.78704 1.60235 7.99922C1.60234 8.21139 1.68663 8.41487 1.83666 8.5649C1.98669 8.71493 2.19017 8.79922 2.40235 8.79922Z" fill="currentColor"/>
</svg>
