<svg width="20" height="20" viewBox="0 0 20 20" fill="none" xmlns="http://www.w3.org/2000/svg" color="#8A95A8">
<path d="M5.26404 13.1909C5.48776 13.0697 6.0236 12.7053 6.21557 12.5658C7.46017 11.6597 10.0554 12.0023 11.3444 12.7012C12.1719 13.1497 12.6081 13.505 13.6778 13.4037C14.4637 13.3293 14.8423 12.8952 15.5589 12.7328C16.2989 12.5648 17.0218 12.7903 17.7438 12.4645C18.1624 12.2757 19.3835 11.1945 18.8804 10.7023C18.6328 10.46 17.5108 10.6101 17.1063 10.5659C16.6091 10.5114 16.0786 10.2126 15.5853 10.1658C15.1574 10.125 14.6948 10.2121 14.2693 10.265L14.158 10.2289C12.5812 9.02045 10.8281 8.10064 9.16637 7.03016C8.61294 6.67385 6.9888 5.71281 6.62636 5.29948C6.49838 5.1539 6.31765 4.70138 6.22289 4.49827C6.06903 4.16741 5.93714 3.82229 5.80233 3.48022C5.67972 3.16921 5.37834 2.9768 5.05595 3.00225C5.05351 3.00225 5.05156 3.00225 5.04912 3.00276C4.10589 3.07199 2.16181 3.33821 1.34461 3.77495C0.889854 4.01775 0.978266 4.201 1.08964 4.65556C1.46917 6.21165 2.35085 7.3539 2.17109 9.06423C2.0861 9.87307 1.56735 11.4276 1.82428 12.1362C2.26048 13.339 4.32766 13.6989 5.26355 13.1914L5.26404 13.1909Z" fill="currentColor"/>
<path d="M17.94 13.7526C16.4093 13.9828 14.8771 14.8234 13.3197 15.0593C11.6576 15.3113 10.7824 14.1047 9.31467 13.6139C7.60163 13.0409 6.65758 13.8769 5.0963 14.3924C4.10377 14.7198 3.07536 14.8349 2.05423 14.9862C1.98828 14.996 1.94125 15.0667 1.94804 15.145L1.99556 15.6881C2.00186 15.7601 2.0518 15.8153 2.11241 15.8182C2.84408 15.851 3.5772 15.8475 4.30936 15.8711C5.64178 15.9137 6.9999 15.8642 8.33378 15.9287C9.9581 16.0075 11.5451 16.3918 13.1801 16.2186C14.8407 16.0426 17.0799 15.5213 18.5044 14.4816C19.6002 13.6818 18.6363 13.6485 17.9391 13.7532L17.94 13.7526Z" fill="currentColor"/>
</svg>
