<svg width="20" height="20" viewBox="0 0 20 20" fill="none" xmlns="http://www.w3.org/2000/svg" color="#010713">
<path d="M6.18914 8.42003C7.47044 8.42003 8.50914 7.38133 8.50914 6.10003C8.50914 4.81873 7.47044 3.78003 6.18914 3.78003C4.90784 3.78003 3.86914 4.81873 3.86914 6.10003C3.86914 7.38133 4.90784 8.42003 6.18914 8.42003Z" stroke="currentColor" stroke-width="1.76"/>
<path d="M11.4693 5.65991H18.6093C18.8493 5.65991 19.0493 5.85991 19.0493 6.09991C19.0493 6.33991 18.8493 6.53991 18.6093 6.53991H11.4693C11.2293 6.53991 11.0293 6.33991 11.0293 6.09991C11.0293 5.85991 11.2293 5.65991 11.4693 5.65991Z" fill="currentColor" stroke="currentColor" stroke-width="0.88"/>
<path d="M1.38922 5.65991H3.12922C3.36922 5.65991 3.56922 5.85991 3.56922 6.09991C3.56922 6.33991 3.36922 6.53991 3.12922 6.53991H1.38922C1.14922 6.53991 0.949219 6.33991 0.949219 6.09991C0.949219 5.85991 1.14922 5.65991 1.38922 5.65991Z" fill="currentColor" stroke="currentColor" stroke-width="0.88"/>
<path d="M13.8083 16.2201C15.0896 16.2201 16.1283 15.1814 16.1283 13.9001C16.1283 12.6188 15.0896 11.5801 13.8083 11.5801C12.527 11.5801 11.4883 12.6188 11.4883 13.9001C11.4883 15.1814 12.527 16.2201 13.8083 16.2201Z" stroke="currentColor" stroke-width="1.76"/>
<path d="M8.52922 13.46H1.38922C1.14922 13.46 0.949219 13.66 0.949219 13.9C0.949219 14.14 1.14922 14.34 1.38922 14.34H8.52922C8.76922 14.34 8.96922 14.14 8.96922 13.9C8.96922 13.66 8.76922 13.46 8.52922 13.46Z" fill="currentColor" stroke="currentColor" stroke-width="0.88"/>
<path d="M18.6097 13.46H16.8697C16.6297 13.46 16.4297 13.66 16.4297 13.9C16.4297 14.14 16.6297 14.34 16.8697 14.34H18.6097C18.8497 14.34 19.0497 14.14 19.0497 13.9C19.0497 13.66 18.8497 13.46 18.6097 13.46Z" fill="currentColor" stroke="currentColor" stroke-width="0.88"/>
</svg>
