<svg width="20" height="20" viewBox="0 0 20 20" fill="none" xmlns="http://www.w3.org/2000/svg" color="#010713">
<path d="M12.6238 15.6969C13.7461 15.6969 14.6559 14.7871 14.6559 13.6649C14.6559 12.5426 13.7461 11.6328 12.6238 11.6328C11.5016 11.6328 10.5918 12.5426 10.5918 13.6649C10.5918 14.7871 11.5016 15.6969 12.6238 15.6969Z" stroke="currentColor" stroke-width="1.8"/>
<path d="M1.83608 14.0742H7.73484C7.96542 14.0742 8.15234 13.8873 8.15234 13.6567C8.15234 13.4261 7.96542 13.2392 7.73484 13.2392H1.83608C1.60551 13.2392 1.41858 13.4261 1.41858 13.6567C1.41858 13.8873 1.60551 14.0742 1.83608 14.0742Z" stroke="currentColor" stroke-width="1.15"/>
<path d="M7.39462 8.23454C8.53591 8.23454 9.46111 7.30934 9.46111 6.16805C9.46111 5.02676 8.53591 4.10156 7.39462 4.10156C6.25332 4.10156 5.32812 5.02676 5.32812 6.16805C5.32812 7.30934 6.25332 8.23454 7.39462 8.23454Z" stroke="currentColor" stroke-width="1.8"/>
<path d="M18.1662 5.68359H12.2691C12.0385 5.68359 11.8516 5.87051 11.8516 6.10109C11.8516 6.33167 12.0385 6.51859 12.2691 6.51859H18.1662C18.3968 6.51859 18.5837 6.33167 18.5837 6.10109C18.5837 5.87051 18.3968 5.68359 18.1662 5.68359Z" fill="currentColor" stroke="currentColor" stroke-width="1.15"/>
<path d="M4.66533 5.68359H1.83547C1.60489 5.68359 1.41797 5.87051 1.41797 6.10109C1.41797 6.33167 1.60489 6.51859 1.83547 6.51859H4.66533C4.89591 6.51859 5.08283 6.33167 5.08283 6.10109C5.08283 5.87051 4.89591 5.68359 4.66533 5.68359Z" fill="currentColor" stroke="currentColor" stroke-width="1.15"/>
<path d="M18.1653 13.2461H15.3355C15.1049 13.2461 14.918 13.433 14.918 13.6636C14.918 13.8942 15.1049 14.0811 15.3355 14.0811H18.1653C18.3959 14.0811 18.5828 13.8942 18.5828 13.6636C18.5828 13.433 18.3959 13.2461 18.1653 13.2461Z" fill="currentColor" stroke="currentColor" stroke-width="1.15"/>
</svg>
