<svg width="88" height="88" viewBox="0 0 88 88" fill="none" xmlns="http://www.w3.org/2000/svg" color="#F0F5FF">
<path d="M65.9994 29.334H62.3327V25.6673C62.3327 15.5583 54.1083 7.33398 43.9993 7.33398C33.8903 7.33398 25.666 15.5583 25.666 25.6673V29.334H21.9993C20.0544 29.334 18.1892 30.1066 16.8139 31.4819C15.4386 32.8571 14.666 34.7224 14.666 36.6673V73.334C14.666 75.2789 15.4386 77.1442 16.8139 78.5194C18.1892 79.8947 20.0544 80.6673 21.9993 80.6673H65.9994C67.9443 80.6673 69.8095 79.8947 71.1848 78.5194C72.5601 77.1442 73.3327 75.2789 73.3327 73.334V36.6673C73.3327 34.7224 72.5601 32.8571 71.1848 31.4819C69.8095 30.1066 67.9443 29.334 65.9994 29.334ZM32.9993 25.6673C32.9993 19.6027 37.9347 14.6673 43.9993 14.6673C50.064 14.6673 54.9993 19.6027 54.9993 25.6673V29.334H32.9993V25.6673ZM47.666 57.6517V66.0007H40.3327V57.6517C38.151 56.383 36.666 54.0437 36.666 51.334C36.666 49.3891 37.4386 47.5238 38.8139 46.1485C40.1892 44.7733 42.0544 44.0007 43.9993 44.0007C45.9443 44.0007 47.8095 44.7733 49.1848 46.1485C50.5601 47.5238 51.3327 49.3891 51.3327 51.334C51.3327 54.04 49.8477 56.3793 47.666 57.6517Z" fill="currentColor"/>
</svg>
