<svg width="20" height="20" viewBox="0 0 20 20" fill="none" xmlns="http://www.w3.org/2000/svg" color="#010713">
<path d="M5.62402 3.4375C5.74001 3.4375 5.85156 3.48344 5.93359 3.56543L9.42773 7.05957V7.06055C9.50742 7.14306 9.55178 7.25346 9.55078 7.36816C9.54976 7.48283 9.50394 7.59274 9.42285 7.67383C9.34176 7.75491 9.23185 7.80073 9.11719 7.80176C9.00248 7.80275 8.89111 7.7584 8.80859 7.67871L6.80859 5.67773L6.06152 4.93066V16.125C6.06152 16.241 6.01564 16.3525 5.93359 16.4346C5.85155 16.5166 5.74005 16.5625 5.62402 16.5625C5.50799 16.5625 5.3965 16.5166 5.31445 16.4346C5.23241 16.3525 5.18652 16.241 5.18652 16.125V4.93066L2.43848 7.67871C2.35596 7.7584 2.24557 7.80275 2.13086 7.80176C2.01619 7.80073 1.90629 7.75492 1.8252 7.67383C1.74411 7.59274 1.69829 7.48283 1.69727 7.36816C1.69627 7.25345 1.73964 7.14208 1.81934 7.05957L5.31445 3.56543C5.39649 3.48344 5.50804 3.4375 5.62402 3.4375ZM14.374 3.4375C14.4901 3.4375 14.6015 3.48339 14.6836 3.56543C14.7656 3.64748 14.8115 3.75897 14.8115 3.875V15.0693L15.5586 14.3223L17.5586 12.3203L17.5596 12.3213C17.6421 12.2416 17.7525 12.1972 17.8672 12.1982C17.9819 12.1993 18.0918 12.2451 18.1729 12.3262C18.2539 12.4073 18.2998 12.5172 18.3008 12.6318C18.3018 12.7465 18.2574 12.8569 18.1777 12.9395L14.6836 16.4346C14.6016 16.5166 14.49 16.5625 14.374 16.5625C14.258 16.5625 14.1465 16.5166 14.0645 16.4346L10.5693 12.9395H10.5703C10.4906 12.8569 10.4463 12.7465 10.4473 12.6318C10.4483 12.5172 10.4941 12.4073 10.5752 12.3262C10.6563 12.2451 10.7662 12.1993 10.8809 12.1982C10.9953 12.1972 11.106 12.2409 11.1885 12.3203L13.1895 14.3223L13.9365 15.0693V3.875C13.9365 3.75897 13.9824 3.64748 14.0645 3.56543C14.1465 3.48339 14.258 3.4375 14.374 3.4375Z" fill="white" stroke="currentColor" stroke-width="0.875"/>
</svg>
