<svg width="32" height="32" viewBox="0 0 32 32" fill="none" xmlns="http://www.w3.org/2000/svg" color="#010713">
<path d="M11.624 9.4375C11.74 9.4375 11.8516 9.48344 11.9336 9.56543L15.4277 13.0596V13.0605C15.5074 13.1431 15.5518 13.2535 15.5508 13.3682C15.5498 13.4828 15.5039 13.5927 15.4229 13.6738C15.3418 13.7549 15.2319 13.8007 15.1172 13.8018C15.0025 13.8028 14.8911 13.7584 14.8086 13.6787L12.8086 11.6777L12.0615 10.9307V22.125C12.0615 22.241 12.0156 22.3525 11.9336 22.4346C11.8515 22.5166 11.7401 22.5625 11.624 22.5625C11.508 22.5625 11.3965 22.5166 11.3145 22.4346C11.2324 22.3525 11.1865 22.241 11.1865 22.125V10.9307L8.43848 13.6787C8.35596 13.7584 8.24557 13.8028 8.13086 13.8018C8.01619 13.8007 7.90629 13.7549 7.8252 13.6738C7.74411 13.5927 7.69829 13.4828 7.69727 13.3682C7.69627 13.2535 7.73964 13.1421 7.81934 13.0596L11.3145 9.56543C11.3965 9.48344 11.508 9.4375 11.624 9.4375ZM20.374 9.4375C20.4901 9.4375 20.6015 9.48339 20.6836 9.56543C20.7656 9.64748 20.8115 9.75897 20.8115 9.875V21.0693L21.5586 20.3223L23.5586 18.3203L23.5596 18.3213C23.6421 18.2416 23.7525 18.1972 23.8672 18.1982C23.9819 18.1993 24.0918 18.2451 24.1729 18.3262C24.2539 18.4073 24.2998 18.5172 24.3008 18.6318C24.3018 18.7465 24.2574 18.8569 24.1777 18.9395L20.6836 22.4346C20.6016 22.5166 20.49 22.5625 20.374 22.5625C20.258 22.5625 20.1465 22.5166 20.0645 22.4346L16.5693 18.9395H16.5703C16.4906 18.8569 16.4463 18.7465 16.4473 18.6318C16.4483 18.5172 16.4941 18.4073 16.5752 18.3262C16.6563 18.2451 16.7662 18.1993 16.8809 18.1982C16.9953 18.1972 17.106 18.2409 17.1885 18.3203L19.1895 20.3223L19.9365 21.0693V9.875C19.9365 9.75897 19.9824 9.64748 20.0645 9.56543C20.1465 9.48339 20.258 9.4375 20.374 9.4375Z" fill="white" stroke="currentColor" stroke-width="0.875"/>
</svg>
