<svg width="20" height="20" viewBox="0 0 20 20" fill="none" xmlns="http://www.w3.org/2000/svg" color="#010713">
<path d="M6.6543 6.59332V5.75434C6.6543 4.8643 7.00786 4.01071 7.63722 3.38136C8.26657 2.752 9.12016 2.39844 10.0102 2.39844C10.9002 2.39844 11.7538 2.752 12.3832 3.38136C13.0125 4.01071 13.3661 4.8643 13.3661 5.75434V6.59332M12.5271 11.6272V9.94922M7.49327 11.6272V9.94922" stroke="currentColor" stroke-width="1.6" stroke-linecap="round"/>
<path d="M3.29883 9.9477C3.29883 8.36539 3.29883 7.57508 3.79047 7.08344C4.28211 6.5918 5.07242 6.5918 6.65473 6.5918H13.3665C14.9488 6.5918 15.7392 6.5918 16.2308 7.08344C16.7224 7.57508 16.7224 8.36539 16.7224 9.9477V10.7867C16.7224 13.9505 16.7224 15.5328 15.7392 16.5152C14.7559 17.4976 13.1744 17.4985 10.0106 17.4985C6.84686 17.4985 5.26455 17.4985 4.28211 16.5152C3.29967 15.5319 3.29883 13.9505 3.29883 10.7867V9.9477Z" stroke="currentColor" stroke-width="1.6"/>
</svg>
