<svg width="20" height="20" viewBox="0 0 20 20" fill="none" xmlns="http://www.w3.org/2000/svg" color="#010713">
<path d="M6.39941 6.40054V5.50051C6.39941 4.5457 6.77871 3.62999 7.45386 2.95484C8.12902 2.27969 9.04472 1.90039 9.99953 1.90039C10.9543 1.90039 11.87 2.27969 12.5452 2.95484C13.2203 3.62999 13.5996 4.5457 13.5996 5.50051V6.40054M12.6996 11.8007V10.0007M7.29944 11.8007V10.0007" stroke="currentColor" stroke-width="1.62004" stroke-linecap="round" fill="currentColor" fill-opacity="0"/>
<path d="M2.7998 9.99855C2.7998 8.3011 2.7998 7.45327 3.32722 6.92585C3.85464 6.39844 4.70247 6.39844 6.39992 6.39844H13.6002C15.2976 6.39844 16.1454 6.39844 16.6729 6.92585C17.2003 7.45327 17.2003 8.3011 17.2003 9.99855V10.8986C17.2003 14.2926 17.2003 15.99 16.1454 17.044C15.0906 18.0979 13.394 18.0988 10 18.0988C6.60603 18.0988 4.90857 18.0988 3.85464 17.044C2.8007 15.9891 2.7998 14.2926 2.7998 10.8986V9.99855Z" stroke="currentColor" stroke-width="1.62004" fill="currentColor" fill-opacity="0"/>
</svg>
