<svg width="14" height="14" viewBox="0 0 14 14" fill="none" xmlns="http://www.w3.org/2000/svg" color="white">
<path d="M12.7072 4.20711C13.0977 3.81658 13.0977 3.18342 12.7072 2.79289C12.3166 2.40237 11.6835 2.40237 11.293 2.79289L12.7072 4.20711ZM5.00004 10.5L4.29294 11.2071C4.68346 11.5977 5.31662 11.5976 5.70715 11.2071L5.00004 10.5ZM2.7071 6.79289C2.31658 6.40237 1.68341 6.40237 1.29289 6.7929C0.902368 7.18342 0.90237 7.81659 1.2929 8.20711L2.7071 6.79289ZM11.293 2.79289L4.29293 9.79291L5.70715 11.2071L12.7072 4.20711L11.293 2.79289ZM1.2929 8.20711L4.29294 11.2071L5.70715 9.79291L2.7071 6.79289L1.2929 8.20711Z" fill="currentColor"/>
</svg>
