<svg width="24" height="24" viewBox="0 0 24 24" fill="none" xmlns="http://www.w3.org/2000/svg" color="#8A95A8">
<path d="M9.60405 23.8959C11.325 23.8959 12.765 22.6696 13.0956 21.0444H6.11108C6.44315 22.6696 7.88176 23.8959 9.60405 23.8959Z" fill="currentColor"/>
<path d="M16.8042 14.8616C16.7798 14.8616 16.7558 14.8658 16.7315 14.8658C12.5385 14.8658 9.12803 11.4539 9.12803 7.26236C9.12803 5.6156 9.6599 4.0931 10.5538 2.84698C10.5538 2.32104 10.1604 1.92773 9.63584 1.92773C9.11129 1.92773 8.65325 2.53476 8.65325 3.0607C5.43388 3.524 2.95034 6.29296 2.95034 9.63765V12.2879C2.95034 14.1686 2.12643 15.9438 0.680516 17.1669C0.311205 17.4833 0.098877 17.9438 0.098877 18.4301C0.098877 19.3469 0.844461 20.0939 1.76269 20.0939H17.4457C18.3626 20.0939 19.1095 19.3483 19.1095 18.4301C19.1095 17.9438 18.8972 17.4833 18.5192 17.1596C17.768 16.5254 17.1906 15.737 16.8042 14.8616Z" fill="currentColor"/>
</svg>
