<svg width="20" height="20" viewBox="0 0 20 20" fill="none" xmlns="http://www.w3.org/2000/svg" color="#4485F9">
<path d="M10 9.55392C9.408 9.55392 8.84024 9.31875 8.42164 8.90014C8.00303 8.48153 7.76786 7.91378 7.76786 7.32178C7.76786 6.72978 8.00303 6.16202 8.42164 5.74341C8.84024 5.32481 9.408 5.08963 10 5.08963C10.592 5.08963 11.1598 5.32481 11.5784 5.74341C11.997 6.16202 12.2321 6.72978 12.2321 7.32178C12.2321 7.61491 12.1744 7.90517 12.0622 8.17598C11.9501 8.4468 11.7856 8.69287 11.5784 8.90014C11.3711 9.10741 11.125 9.27183 10.8542 9.38401C10.5834 9.49618 10.2931 9.55392 10 9.55392ZM10 1.07178C8.3424 1.07178 6.75268 1.73026 5.58058 2.90236C4.40848 4.07446 3.75 5.66417 3.75 7.32178C3.75 12.0093 10 18.9289 10 18.9289C10 18.9289 16.25 12.0093 16.25 7.32178C16.25 5.66417 15.5915 4.07446 14.4194 2.90236C13.2473 1.73026 11.6576 1.07178 10 1.07178Z" fill="currentColor"/>
</svg>
