<svg width="20" height="20" viewBox="0 0 20 20" fill="none" xmlns="http://www.w3.org/2000/svg" color="#010713">
<circle cx="10.0156" cy="7.1875" r="2.1375" stroke="currentColor" stroke-width="1.65"/>
<path d="M10 1.89551C11.4388 1.89551 12.8186 2.46699 13.8359 3.48438C14.8533 4.50176 15.4248 5.88151 15.4248 7.32031C15.4248 8.32526 15.0853 9.51379 14.5205 10.7744C13.9607 12.024 13.2069 13.2852 12.4414 14.4199C11.6774 15.5524 10.9112 16.5441 10.3359 17.2529C10.215 17.4019 10.102 17.5379 10 17.6602C9.89803 17.5379 9.78499 17.4019 9.66406 17.2529C9.08876 16.5441 8.32265 15.5524 7.55859 14.4199C6.79305 13.2852 6.03934 12.024 5.47949 10.7744C4.91473 9.51379 4.5752 8.32526 4.5752 7.32031C4.5752 5.88151 5.14668 4.50176 6.16406 3.48438C7.11796 2.53047 8.39043 1.96876 9.73145 1.90234L10 1.89551Z" stroke="currentColor" stroke-width="1.65"/>
</svg>
