<svg width="20" height="20" viewBox="0 0 20 20" fill="none" xmlns="http://www.w3.org/2000/svg" color="#010713">
<g clip-path="url(#clip0_3398_66073)">
<path d="M14.4658 1.81818C14.9511 1.81818 15.5012 1.9375 16.0566 2.1629C16.6496 2.40352 17.2204 2.7564 17.707 3.18439C18.2734 3.68249 18.722 4.2717 19.04 4.93439C19.4022 5.68919 19.5859 6.52483 19.5859 7.41779C19.5859 8.31089 19.2062 9.38827 18.4258 10.6238C17.819 11.5846 16.9644 12.6558 15.8857 13.8074C13.9775 15.8452 11.8419 17.628 11.0127 18.2996C10.7793 18.4885 10.5088 18.5886 10.2295 18.5887L10.125 18.5838C9.88257 18.5621 9.64926 18.4654 9.44531 18.2996C8.62779 17.6351 6.52057 15.8681 4.60938 13.8172C3.53846 12.668 2.68804 11.5985 2.08203 10.6385C1.30424 9.40597 0.921596 8.35919 0.911133 7.43927C0.901542 6.59478 1.04083 5.81272 1.32422 5.11603C1.57556 4.49841 1.94147 3.94465 2.41113 3.46954C3.7025 2.16359 5.3776 1.81818 6.08301 1.81818C6.74079 1.81818 7.52143 1.85599 8.32324 2.13556C9.06618 2.39469 9.69759 2.82138 10.208 3.40802C10.2335 3.43735 10.2793 3.43958 10.3066 3.41193C10.9936 2.71634 12.3001 1.81818 14.4658 1.81818Z" fill="white" fill-opacity="0.9"/>
<path fill-rule="evenodd" clip-rule="evenodd" d="M14.4567 2.42899C11.7504 2.42899 10.5598 3.96928 10.285 4.39004C10.2554 4.4354 10.1853 4.43369 10.157 4.38748C9.02047 2.53077 7.19819 2.42899 6.07371 2.42899C4.92788 2.42899 1.4756 3.48963 1.51995 7.42512C1.55859 10.8536 8.13333 16.4361 9.82677 17.8127C10.0748 18.0144 10.3667 18.0136 10.6151 17.8125C12.3184 16.4329 18.9587 10.835 18.9587 7.41057C18.9587 4.00174 16.0091 2.42899 14.4567 2.42899ZM17.436 7.41798C17.4156 10.1203 11.3096 15.3368 10.3479 16.1418C10.2718 16.2055 10.1705 16.2053 10.0948 16.1412C9.13129 15.3256 2.97637 10.0139 2.97637 7.41798C2.97637 4.14818 5.63765 3.89217 6.19948 3.89217C8.04217 3.88716 9.24699 5.20677 9.82344 6.03915C9.99348 6.28468 10.4327 6.27672 10.5965 6.02705C11.1437 5.19355 12.3124 3.88485 14.2572 3.88485C14.8117 3.88485 17.4582 4.48464 17.436 7.41798Z" fill="currentColor"/>
</g>
<defs>
<clipPath id="clip0_3398_66073">
<rect width="18.675" height="16.7706" fill="white" transform="translate(0.908203 1.81818)"/>
</clipPath>
</defs>
</svg>
