<svg width="20" height="20" viewBox="0 0 20 20" fill="none" xmlns="http://www.w3.org/2000/svg" color="#010713">
<path d="M14.1367 1.90961C14.5663 1.93499 15.0363 2.04875 15.5068 2.23969H15.5059C16.0807 2.47292 16.6349 2.8142 17.1064 3.22894C17.6551 3.71157 18.089 4.2834 18.3975 4.92621C18.749 5.65878 18.9267 6.46872 18.9268 7.33246L18.9229 7.49847C18.8793 8.33926 18.5097 9.32693 17.8086 10.437C17.2265 11.3586 16.4078 12.3832 15.3779 13.4828C13.5566 15.4278 11.519 17.1289 10.7275 17.77C10.4897 17.9623 10.2104 18.0658 9.9209 18.0659H9.91602L9.81641 18.062H9.8125C9.56185 18.0393 9.32187 17.9386 9.11426 17.77C8.33419 17.1359 6.32327 15.4501 4.49902 13.4926C3.47656 12.3954 2.66229 11.3713 2.08105 10.4506C1.33609 9.27005 0.961474 8.25504 0.951172 7.35394C0.941929 6.53858 1.07637 5.78049 1.35156 5.10394C1.59563 4.50427 1.95136 3.96653 2.40723 3.50531C3.65831 2.24015 5.27974 1.90483 5.97168 1.90472L6.4668 1.91351C6.9817 1.93636 7.5536 2.0077 8.1377 2.21136C8.84973 2.45978 9.45616 2.86814 9.94922 3.42621C10.6241 2.75257 11.8876 1.90493 13.9551 1.90472L14.1367 1.90961Z" fill="white" fill-opacity="0.9"/>
<path d="M13.9502 2.53131C14.7033 2.53136 15.7868 2.91124 16.6816 3.6983C17.5781 4.48691 18.288 5.68623 18.2881 7.32526C18.2881 8.15492 17.8862 9.10963 17.2666 10.0909C16.646 11.0736 15.8022 12.0895 14.9092 13.043C13.1234 14.9499 11.1353 16.6129 10.3232 17.2706C10.1974 17.3725 10.0576 17.4257 9.91602 17.4258C9.7744 17.426 9.63454 17.3738 9.50879 17.2715C8.70167 16.6154 6.73094 14.9565 4.95703 13.0528C4.07017 12.1011 3.232 11.0863 2.6123 10.1046C1.99344 9.12413 1.58846 8.17027 1.5791 7.3399C1.55779 5.44864 2.37815 4.24447 3.34277 3.51471C4.30444 2.78726 5.40941 2.53143 5.96582 2.53131C7.0387 2.53131 8.8001 2.62756 9.89746 4.41998C9.90103 4.42582 9.90839 4.43054 9.91699 4.43073L9.93555 4.42096C10.2035 4.01095 11.3513 2.53131 13.9502 2.53131ZM13.7598 4.01764C11.933 4.01776 10.8331 5.24667 10.3154 6.03522C10.2261 6.17132 10.0646 6.23771 9.9082 6.2403C9.75195 6.24279 9.58887 6.18188 9.49609 6.04791C8.94959 5.25878 7.81521 4.01978 6.08594 4.02448C5.82332 4.02448 5.06702 4.08473 4.37793 4.5274C3.69238 4.968 3.06653 5.79162 3.06641 7.33209C3.06641 7.93393 3.42498 8.70298 3.98828 9.53619C4.55 10.3671 5.30941 11.2534 6.09863 12.088C7.67685 13.7567 9.36983 15.2147 9.82812 15.6026L9.87109 15.628C9.91555 15.6448 9.96462 15.6363 10.0049 15.6026C10.4625 15.2196 12.1433 13.7873 13.7119 12.1299C14.4963 11.3012 15.2515 10.4174 15.8115 9.58112C16.3729 8.74268 16.7326 7.95983 16.7373 7.33209C16.7477 5.95362 16.1326 5.12723 15.4512 4.64362C14.7664 4.1578 14.0138 4.01764 13.7598 4.01764Z" fill="currentColor" stroke="currentColor" stroke-width="0.1"/>
</svg>
