<svg width="20" height="20" viewBox="0 0 20 20" fill="none" xmlns="http://www.w3.org/2000/svg" color="#010713">
<path opacity="0.9" fill-rule="evenodd" clip-rule="evenodd" d="M19.5702 7.18C19.5702 11.02 12.8002 16.74 10.7302 18.4C10.5202 18.56 10.2502 18.66 9.98021 18.66C9.71021 18.66 9.45021 18.56 9.24021 18.39C7.18021 16.75 0.480214 11.07 0.430214 7.2C0.410214 5.55 0.960214 4.12 2.00021 3.06C3.35021 1.7 5.10021 1.34 5.84021 1.34C6.58021 1.34 8.46021 1.34 9.89021 2.74C9.96021 2.82 10.0802 2.83 10.1602 2.76C10.9302 2.08 12.2202 1.34 14.2202 1.34C16.4102 1.34 19.5702 3.42 19.5702 7.17V7.18Z" fill="white"/>
<path fill-rule="evenodd" clip-rule="evenodd" d="M14.2196 2.2C11.5096 2.2 10.3196 3.74 10.0496 4.16C10.0196 4.21 9.94964 4.2 9.91964 4.16C8.77964 2.3 6.95964 2.2 5.83964 2.2C4.71964 2.2 1.23964 3.26 1.27964 7.19C1.31964 10.76 8.43964 16.66 9.76964 17.72C9.88964 17.82 10.0696 17.82 10.1996 17.72C11.5396 16.65 18.7296 10.73 18.7296 7.17C18.7296 3.61 15.7796 2.19 14.2296 2.19L14.2196 2.2ZM17.1996 7.19C17.1796 9.89 11.0696 15.11 10.1096 15.91C10.0296 15.97 9.92964 15.97 9.85964 15.91C8.89964 15.09 2.73964 9.78 2.73964 7.19C2.73964 3.92 5.39964 3.66 5.95964 3.66C7.95964 3.66 9.20964 5.22 9.71964 6.01C9.83964 6.2 10.1096 6.19 10.2196 6.01C10.6996 5.21 11.8896 3.66 14.0096 3.66C14.5596 3.66 17.2096 4.26 17.1896 7.19H17.1996Z" fill="currentColor"/>
</svg>
