<svg width="20" height="20" viewBox="0 0 20 20" fill="none" xmlns="http://www.w3.org/2000/svg" color="#010713">
<path d="M12.6238 15.6976C13.7461 15.6976 14.6559 14.7879 14.6559 13.6656C14.6559 12.5433 13.7461 11.6335 12.6238 11.6335C11.5016 11.6335 10.5918 12.5433 10.5918 13.6656C10.5918 14.7879 11.5016 15.6976 12.6238 15.6976Z" stroke="currentColor" stroke-width="1.7359"/>
<path d="M1.83608 14.0747H7.73484C7.96542 14.0747 8.15234 13.8878 8.15234 13.6572C8.15234 13.4266 7.96542 13.2397 7.73484 13.2397H1.83608C1.60551 13.2397 1.41858 13.4266 1.41858 13.6572C1.41858 13.8878 1.60551 14.0747 1.83608 14.0747Z" stroke="currentColor" stroke-width="0.835"/>
<path d="M7.39462 8.2336C8.53591 8.2336 9.46111 7.3084 9.46111 6.16711C9.46111 5.02582 8.53591 4.10062 7.39462 4.10062C6.25332 4.10062 5.32812 5.02582 5.32812 6.16711C5.32812 7.3084 6.25332 8.2336 7.39462 8.2336Z" stroke="currentColor" stroke-width="1.67"/>
<path d="M18.1662 5.68311H12.2691C12.0385 5.68311 11.8516 5.87003 11.8516 6.10061C11.8516 6.33118 12.0385 6.51811 12.2691 6.51811H18.1662C18.3968 6.51811 18.5837 6.33118 18.5837 6.10061C18.5837 5.87003 18.3968 5.68311 18.1662 5.68311Z" fill="currentColor" stroke="currentColor" stroke-width="0.835"/>
<path d="M4.66533 5.68311H1.83547C1.60489 5.68311 1.41797 5.87003 1.41797 6.10061C1.41797 6.33118 1.60489 6.51811 1.83547 6.51811H4.66533C4.89591 6.51811 5.08283 6.33118 5.08283 6.10061C5.08283 5.87003 4.89591 5.68311 4.66533 5.68311Z" fill="currentColor" stroke="currentColor" stroke-width="0.835"/>
<path d="M18.1653 13.2456H15.3355C15.1049 13.2456 14.918 13.4325 14.918 13.6631C14.918 13.8937 15.1049 14.0806 15.3355 14.0806H18.1653C18.3959 14.0806 18.5828 13.8937 18.5828 13.6631C18.5828 13.4325 18.3959 13.2456 18.1653 13.2456Z" fill="currentColor" stroke="currentColor" stroke-width="0.835"/>
</svg>
