<svg width="20" height="20" viewBox="0 0 20 20" fill="none" xmlns="http://www.w3.org/2000/svg" color="#8A95A8">
<path d="M16.3493 11.5966C15.3569 11.5314 13.7961 11.5242 12.8085 11.5966C11.7709 11.673 10.5033 12.7094 10.5033 13.8006V14.4074H9.56686V13.8006C9.56686 12.7678 8.28686 11.6006 7.26166 11.5966C5.04206 11.7142 1.51726 10.819 1.31046 14.0766C1.18326 16.0754 1.20766 18.5138 3.79046 18.6754C4.73766 18.7346 6.10566 18.7334 7.05366 18.6754C8.08446 18.6126 9.00646 18.0322 9.37566 17.0434C9.41086 16.949 9.53206 16.5454 9.53206 16.4714V15.8646H10.4685V16.4714C10.4685 16.535 10.5405 16.7798 10.5637 16.8618C10.8705 17.9458 11.8485 18.6082 12.9469 18.6754C13.8949 18.7334 15.2629 18.7346 16.2101 18.6754C17.6281 18.5866 18.6041 17.5678 18.6901 16.1606C18.8049 14.2794 18.8333 11.7594 16.3493 11.5966Z" fill="currentColor"/>
<path d="M12.6848 3.39103C12.702 3.20263 12.5864 2.94623 12.814 2.82783C13.1336 2.66143 13.5796 3.09503 13.736 3.35343L15.952 10.1382C16.5076 10.1234 17.046 10.2506 17.5788 10.3842C16.8476 8.15343 16.1884 5.89343 15.4292 3.67223C15.1824 2.94983 15.0248 2.36263 14.4044 1.85303C13.0144 0.71143 11.102 1.48743 11.2652 3.36183C11.3464 4.29703 12.606 4.25263 12.6852 3.39103H12.6848Z" fill="currentColor"/>
<path d="M2.57482 10.3822C2.82162 10.3442 3.10322 10.2178 3.37922 10.1806C3.60442 10.1502 3.85522 10.1462 4.08282 10.1386L6.20122 3.56863C6.28202 3.22103 6.81882 2.61943 7.19882 2.78063C7.46482 2.89343 7.32242 3.21503 7.35002 3.42783C7.44962 4.19583 8.71282 4.26183 8.80322 3.36103C8.97842 1.61263 7.32602 0.718632 5.89322 1.66503C5.47962 1.93823 5.17682 2.33023 4.94722 2.76543L2.49162 10.3342C2.47682 10.4062 2.52482 10.3906 2.57522 10.3826L2.57482 10.3822Z" fill="currentColor"/>
</svg>
