<svg width="20" height="20" viewBox="0 0 20 20" fill="none" xmlns="http://www.w3.org/2000/svg" color="#4485F9">
<path d="M10.0033 17.3366C14.0533 17.3366 17.3366 14.0533 17.3366 10.0033C17.3366 5.95317 14.0533 2.66992 10.0033 2.66992C5.95317 2.66992 2.66992 5.95317 2.66992 10.0033C2.66992 14.0533 5.95317 17.3366 10.0033 17.3366Z" stroke="currentColor" stroke-width="2"/>
<path fill-rule="evenodd" clip-rule="evenodd" d="M10.0201 6.0918H9.97119C9.6454 6.0918 9.38477 6.35243 9.38477 6.67822V10.5225C9.38477 10.8076 9.53137 11.0764 9.78386 11.223L13.1639 13.251C13.4408 13.4139 13.7992 13.3325 13.9621 13.0555C14.1331 12.7786 14.0435 12.4121 13.7585 12.2492L10.6065 10.3759V6.67822C10.6065 6.35243 10.3458 6.0918 10.0201 6.0918Z" fill="currentColor"/>
<path fill-rule="evenodd" clip-rule="evenodd" d="M10.0201 6.0918H9.97119C9.6454 6.0918 9.38477 6.35243 9.38477 6.67822V10.5225C9.38477 10.8076 9.53137 11.0764 9.78386 11.223L13.1639 13.251C13.4408 13.4139 13.7992 13.3325 13.9621 13.0555C14.1331 12.7786 14.0435 12.4121 13.7585 12.2492L10.6065 10.3759V6.67822C10.6065 6.35243 10.3458 6.0918 10.0201 6.0918Z" fill="currentColor"/>
</svg>
