<svg width="16" height="16" viewBox="0 0 16 16" fill="none" xmlns="http://www.w3.org/2000/svg" color="#010713">
<path fill-rule="evenodd" clip-rule="evenodd" d="M8 15C11.866 15 15 11.8659 15 8C15 4.13408 11.866 1 8 1C4.134 1 1 4.13408 1 8C1 11.8659 4.134 15 8 15ZM11.1012 4.8989C11.3585 5.15605 11.3585 5.57324 11.1012 5.8306L8.93172 8L11.1012 10.1694C11.3584 10.4268 11.3584 10.844 11.1012 11.1011C10.8439 11.3585 10.4267 11.3585 10.1694 11.1011L8 8.9317L5.83057 11.1011C5.57329 11.3585 5.15615 11.3585 4.89885 11.1011C4.64157 10.844 4.64157 10.4268 4.89885 10.1694L7.06828 8L4.89885 5.8306C4.64157 5.57324 4.64157 5.15605 4.89885 4.8989C5.15612 4.64154 5.57327 4.64154 5.83057 4.8989L8 7.0683L10.1694 4.8989C10.4267 4.64154 10.8439 4.64154 11.1012 4.8989Z" fill="currentColor"/>
</svg>
