<svg width="20" height="20" viewBox="0 0 20 20" fill="none" xmlns="http://www.w3.org/2000/svg" color="#010713">
<path d="M10.8739 1.50195C11.8301 1.5045 12.3154 1.5096 12.7345 1.5215L12.8993 1.52745C13.0897 1.53425 13.2776 1.54275 13.5045 1.55295C14.4089 1.59545 15.0259 1.73825 15.5674 1.94819C16.1283 2.16409 16.6009 2.45648 17.0735 2.92822C17.5059 3.35298 17.8403 3.867 18.0535 4.43438C18.2634 4.97582 18.4062 5.5929 18.4487 6.49813C18.4589 6.72423 18.4674 6.91207 18.4742 7.10332L18.4793 7.26821C18.4921 7.6864 18.4972 8.17174 18.4989 9.12797L18.4997 9.76205V10.8755C18.5018 11.4955 18.4953 12.1155 18.4802 12.7353L18.4751 12.9002C18.4683 13.0914 18.4598 13.2793 18.4496 13.5054C18.4071 14.4106 18.2626 15.0268 18.0535 15.5691C17.8403 16.1365 17.5059 16.6505 17.0735 17.0753C16.6487 17.5077 16.1347 17.8421 15.5674 18.0553C15.0259 18.2652 14.4089 18.408 13.5045 18.4505L12.8993 18.476L12.7345 18.4811C12.3154 18.493 11.8301 18.499 10.8739 18.5007L10.2398 18.5015H9.12724C8.50699 18.5037 7.88675 18.4972 7.26668 18.482L7.10179 18.4769C6.90002 18.4692 6.69829 18.4605 6.49662 18.4505C5.59227 18.408 4.9752 18.2652 4.43293 18.0553C3.86586 17.842 3.35216 17.5076 2.92765 17.0753C2.49498 16.6506 2.16023 16.1366 1.9468 15.5691C1.73686 15.0277 1.59407 14.4106 1.55157 13.5054L1.52607 12.9002L1.52182 12.7353C1.50616 12.1155 1.49907 11.4955 1.50058 10.8755V9.12797C1.49822 8.50799 1.50446 7.88802 1.51927 7.26821L1.52522 7.10332C1.53202 6.91207 1.54052 6.72423 1.55072 6.49813C1.59322 5.5929 1.73601 4.97667 1.94595 4.43438C2.15988 3.86676 2.49521 3.35273 2.9285 2.92822C3.35276 2.49605 3.86617 2.1616 4.43293 1.94819C4.9752 1.73825 5.59142 1.59545 6.49662 1.55295C6.72271 1.54275 6.9114 1.53425 7.10179 1.52745L7.26668 1.52235C7.88647 1.50725 8.50643 1.50073 9.12639 1.5028L10.8739 1.50195ZM10.0001 5.75185C8.87303 5.75185 7.79208 6.19961 6.99509 6.99662C6.1981 7.79363 5.75036 8.8746 5.75036 10.0017C5.75036 11.1289 6.1981 12.2099 6.99509 13.0069C7.79208 13.8039 8.87303 14.2516 10.0001 14.2516C11.1273 14.2516 12.2082 13.8039 13.0052 13.0069C13.8022 12.2099 14.2499 11.1289 14.2499 10.0017C14.2499 8.8746 13.8022 7.79363 13.0052 6.99662C12.2082 6.19961 11.1273 5.75185 10.0001 5.75185ZM10.0001 7.45181C10.335 7.45175 10.6666 7.51765 10.976 7.64575C11.2854 7.77384 11.5665 7.96162 11.8033 8.19837C12.0401 8.43511 12.228 8.71618 12.3562 9.02554C12.4844 9.33489 12.5504 9.66646 12.5504 10.0013C12.5505 10.3362 12.4846 10.6678 12.3565 10.9772C12.2284 11.2866 12.0406 11.5677 11.8039 11.8045C11.5672 12.0413 11.2861 12.2292 10.9768 12.3574C10.6674 12.4856 10.3358 12.5516 10.001 12.5517C9.32473 12.5517 8.67616 12.283 8.19796 11.8048C7.71977 11.3266 7.45113 10.678 7.45113 10.0017C7.45113 9.32546 7.71977 8.67687 8.19796 8.19867C8.67616 7.72046 9.32473 7.45181 10.001 7.45181M14.4633 4.47688C14.1815 4.47688 13.9113 4.58882 13.712 4.78807C13.5128 4.98733 13.4008 5.25757 13.4008 5.53936C13.4008 5.82114 13.5128 6.09139 13.712 6.29064C13.9113 6.48989 14.1815 6.60183 14.4633 6.60183C14.745 6.60183 15.0153 6.48989 15.2145 6.29064C15.4138 6.09139 15.5257 5.82114 15.5257 5.53936C15.5257 5.25757 15.4138 4.98733 15.2145 4.78807C15.0153 4.58882 14.745 4.47688 14.4633 4.47688Z" fill="currentColor"/>
</svg>

