<svg width="20" height="20" viewBox="0 0 20 20" fill="none" xmlns="http://www.w3.org/2000/svg" color="#010713">
<path d="M10 3.44578C12.1205 3.44578 12.4096 3.44578 13.2771 3.44578C14.0482 3.44578 14.4337 3.63856 14.7229 3.73494C15.1084 3.92771 15.3976 4.0241 15.6868 4.31326C15.9759 4.60241 16.1687 4.89157 16.2651 5.27711C16.3615 5.56627 16.4578 5.95181 16.5542 6.7229C16.5542 7.59037 16.5542 7.78314 16.5542 10C16.5542 12.2169 16.5542 12.4096 16.5542 13.2771C16.5542 14.0482 16.3615 14.4337 16.2651 14.7229C16.0723 15.1084 15.9759 15.3976 15.6868 15.6868C15.3976 15.9759 15.1084 16.1687 14.7229 16.2651C14.4337 16.3615 14.0482 16.4578 13.2771 16.5542C12.4096 16.5542 12.2169 16.5542 10 16.5542C7.78314 16.5542 7.59037 16.5542 6.7229 16.5542C5.95181 16.5542 5.56627 16.3615 5.27711 16.2651C4.89157 16.0723 4.60241 15.9759 4.31326 15.6868C4.0241 15.3976 3.83133 15.1084 3.73494 14.7229C3.63856 14.4337 3.54217 14.0482 3.44578 13.2771C3.44578 12.4096 3.44578 12.2169 3.44578 10C3.44578 7.78314 3.44578 7.59037 3.44578 6.7229C3.44578 5.95181 3.63856 5.56627 3.73494 5.27711C3.92771 4.89157 4.0241 4.60241 4.31326 4.31326C4.60241 4.0241 4.89157 3.83133 5.27711 3.73494C5.56627 3.63856 5.95181 3.54217 6.7229 3.44578C7.59037 3.44578 7.87952 3.44578 10 3.44578ZM10 2C7.78314 2 7.59037 2 6.7229 2C5.85543 2 5.27711 2.19277 4.79518 2.38554C4.31326 2.57831 3.83133 2.86747 3.3494 3.3494C2.86747 3.83133 2.6747 4.21687 2.38554 4.79518C2.19277 5.27711 2.09639 5.85543 2 6.7229C2 7.59037 2 7.87952 2 10C2 12.2169 2 12.4096 2 13.2771C2 14.1446 2.19277 14.7229 2.38554 15.2048C2.57831 15.6868 2.86747 16.1687 3.3494 16.6506C3.83133 17.1325 4.21687 17.3253 4.79518 17.6145C5.27711 17.8072 5.85543 17.9036 6.7229 18C7.59037 18 7.87952 18 10 18C12.1205 18 12.4096 18 13.2771 18C14.1446 18 14.7229 17.8072 15.2048 17.6145C15.6868 17.4217 16.1687 17.1325 16.6506 16.6506C17.1325 16.1687 17.3253 15.7831 17.6145 15.2048C17.8072 14.7229 17.9036 14.1446 18 13.2771C18 12.4096 18 12.1205 18 10C18 7.87952 18 7.59037 18 6.7229C18 5.85543 17.8072 5.27711 17.6145 4.79518C17.4217 4.31326 17.1325 3.83133 16.6506 3.3494C16.1687 2.86747 15.7831 2.6747 15.2048 2.38554C14.7229 2.19277 14.1446 2.09639 13.2771 2C12.4096 2 12.2169 2 10 2Z" fill="currentColor"/>
<path d="M10 5.85543C7.68675 5.85543 5.85543 7.68675 5.85543 10C5.85543 12.3133 7.68675 14.1446 10 14.1446C12.3133 14.1446 14.1446 12.3133 14.1446 10C14.1446 7.68675 12.3133 5.85543 10 5.85543ZM10 12.6988C8.55422 12.6988 7.30121 11.5422 7.30121 10C7.30121 8.55422 8.45784 7.30121 10 7.30121C11.4458 7.30121 12.6988 8.45784 12.6988 10C12.6988 11.4458 11.4458 12.6988 10 12.6988Z" fill="currentColor"/>
<path d="M14.241 6.7229C14.7733 6.7229 15.2048 6.29136 15.2048 5.75904C15.2048 5.22672 14.7733 4.79518 14.241 4.79518C13.7087 4.79518 13.2771 5.22672 13.2771 5.75904C13.2771 6.29136 13.7087 6.7229 14.241 6.7229Z" fill="currentColor"/>
</svg>
