<svg width="21" height="20" viewBox="0 0 21 20" fill="none" xmlns="http://www.w3.org/2000/svg" color="#8A95A8">
<path d="M3.10937 3.79205C2.71173 3.79205 2.38937 4.1144 2.38937 4.51205C2.38938 4.90969 2.71173 5.23205 3.10938 5.23205L3.10937 3.79205ZM17.9094 5.23205C18.307 5.23205 18.6294 4.90969 18.6294 4.51205C18.6294 4.1144 18.307 3.79205 17.9094 3.79205V5.23205ZM9.43069 8.23681C9.43069 7.83916 9.10834 7.51681 8.71069 7.51681C8.31305 7.51681 7.99069 7.83916 7.99069 8.23681L9.43069 8.23681ZM7.99069 13.9996C7.99069 14.3972 8.31304 14.7196 8.71069 14.7196C9.10833 14.7196 9.43069 14.3972 9.43069 13.9996H7.99069ZM13.0281 8.23681C13.0281 7.83916 12.7057 7.51681 12.3081 7.51681C11.9104 7.51681 11.5881 7.83916 11.5881 8.23681H13.0281ZM11.5881 13.9996C11.5881 14.3972 11.9104 14.7196 12.3081 14.7196C12.7057 14.7196 13.0281 14.3972 13.0281 13.9996H11.5881ZM3.10938 4.51205L3.10938 5.23205L17.9094 5.23205V4.51205V3.79205L3.10937 3.79205L3.10938 4.51205ZM8.10047 3.82175H8.82047V2.2925H8.10047H7.38047V3.82175H8.10047ZM12.9183 2.2925H12.1983V3.82175H12.9183H13.6383V2.2925H12.9183ZM12.8292 2.19922V2.91922C12.4498 2.91922 12.1983 2.6069 12.1983 2.2925H12.9183H13.6383C13.6383 1.87506 13.307 1.47922 12.8292 1.47922V2.19922ZM8.10047 2.2925H8.82047C8.82047 2.6069 8.56899 2.91922 8.18953 2.91922V2.19922V1.47922C7.71169 1.47922 7.38047 1.87506 7.38047 2.2925H8.10047ZM5.01764 5.22989H4.29764V17.6059H5.01764H5.73764V5.22989H5.01764ZM5.1067 17.6992V18.4192H15.912V17.6992V16.9792H5.1067V17.6992ZM16.0011 17.6059H16.7211V5.22989H16.0011H15.2811V17.6059H16.0011ZM15.912 17.6992V18.4192C16.3899 18.4192 16.7211 18.0234 16.7211 17.6059H16.0011H15.2811C15.2811 17.2915 15.5326 16.9792 15.912 16.9792V17.6992ZM5.01764 17.6059H4.29764C4.29764 18.0234 4.62887 18.4192 5.1067 18.4192V17.6992V16.9792C5.48616 16.9792 5.73764 17.2915 5.73764 17.6059H5.01764ZM8.71069 8.23681L7.99069 8.23681L7.99069 13.9996H8.71069H9.43069L9.43069 8.23681H8.71069ZM12.3081 8.23681H11.5881V13.9996H12.3081H13.0281V8.23681H12.3081ZM8.18953 2.19922V2.91922H10.5094V2.19922V1.47922H8.18953V2.19922ZM10.5094 2.19922V2.91922H12.8292V2.19922V1.47922H10.5094V2.19922Z" fill="currentColor"/>
</svg>
