<svg width="20" height="20" viewBox="0 0 20 20" fill="none" xmlns="http://www.w3.org/2000/svg" color="#010713">
<path d="M2.29883 4.66719H17.6318M8.43203 9.50044V13.3337M11.4986 9.50044V13.3337M3.83213 4.66719H16.0985L14.8872 16.569C14.8457 16.9441 14.6672 17.2908 14.386 17.5426C14.1048 17.7944 13.7406 17.9336 13.3631 17.9336H6.56754C6.19007 17.9336 5.82585 17.7944 5.54463 17.5426C5.26341 17.2908 5.08496 16.9441 5.04344 16.569L3.83213 4.66719ZM7.39657 2.87935C7.52058 2.61636 7.71681 2.39406 7.96237 2.23836C8.20792 2.08266 8.49269 2 8.78345 2H11.1472C11.4381 1.99985 11.723 2.08245 11.9687 2.23815C12.2144 2.39386 12.4108 2.61624 12.5349 2.87935L13.2652 4.66719H6.66543L7.39657 2.87935Z" stroke="currentColor" stroke-width="1.5" stroke-linecap="round" stroke-linejoin="round"/>
</svg>
