<svg width="20" height="20" viewBox="0 0 20 20" fill="none" xmlns="http://www.w3.org/2000/svg" color="#010713">
<path d="M13.9502 2.4819C14.7171 2.48195 15.8113 2.86775 16.7139 3.66159C17.6199 4.45857 18.3378 5.67053 18.3379 7.32565C18.3378 8.16971 17.9297 9.13505 17.3086 10.1186C16.6858 11.1047 15.84 12.1232 14.9463 13.0776C13.1581 14.987 11.167 16.652 10.3545 17.31C10.2212 17.4178 10.0705 17.4759 9.91602 17.476C9.76146 17.4761 9.61085 17.4184 9.47754 17.31C8.66963 16.6533 6.69695 14.9933 4.9209 13.0874C4.03295 12.1345 3.19136 11.1177 2.56934 10.1323C1.94914 9.14977 1.53907 8.18556 1.5293 7.34128C1.50779 5.43309 2.33655 4.21359 3.3125 3.47507C4.28278 2.74111 5.39861 2.48215 5.96582 2.4819C7.0338 2.4819 8.80426 2.57658 9.91797 4.35983C10.2298 3.89932 11.3973 2.48205 13.9502 2.4819ZM9.54102 17.2329C9.57055 17.2569 9.60116 17.2774 9.63184 17.2954C9.60103 17.2773 9.57067 17.256 9.54102 17.2319C9.41944 17.1331 9.27324 17.0094 9.10352 16.8676C9.27345 17.0096 9.41934 17.134 9.54102 17.2329ZM1.62891 7.33932C1.63053 7.48184 1.64506 7.62807 1.66992 7.7778C1.6453 7.62809 1.63149 7.4818 1.62988 7.33932C1.62856 7.22209 1.62974 7.10751 1.63477 6.99557C1.62974 7.10739 1.62759 7.22222 1.62891 7.33932ZM17.8896 5.47409L17.8779 5.44284C17.8598 5.39911 17.8395 5.35662 17.8203 5.31393C17.8441 5.36664 17.8674 5.41994 17.8896 5.47409ZM9.97754 4.4487C10.0184 4.38613 10.0797 4.29689 10.165 4.19186C10.0794 4.297 10.0175 4.38607 9.97656 4.4487C9.96961 4.45915 9.96049 4.46695 9.9502 4.47214C9.96084 4.46696 9.9705 4.45946 9.97754 4.4487Z" fill="currentColor"/>
</svg>
