<svg width="20" height="20" viewBox="0 0 20 20" fill="none" xmlns="http://www.w3.org/2000/svg" color="#010713">
<path d="M17.5 5.9875L10.49 2.1275C10.18 1.9575 9.81 1.9575 9.51 2.1275L6.5 3.8475M17.5 5.9875V13.6175C17.5 13.9975 17.28 14.3475 16.93 14.5175C16.93 14.5175 12.7 16.5575 10 17.8575M17.5 5.9875L13.61 7.9975M10 17.8575C7.27 16.3575 3.02 14.0175 3.02 14.0175C2.7 13.8375 2.5 13.5075 2.5 13.1375V5.9875M10 17.8575V9.8575M13.61 7.9975L10 9.8575M13.61 7.9975C13.52 7.8475 13.4 7.7275 13.24 7.6375L6.5 3.8575L2.5 5.9875M13.61 7.9975C13.7 8.1475 13.75 8.3275 13.75 8.5075C13.75 8.6875 13.75 9.8575 13.75 9.8575M2.5 5.9875L10 9.8575" stroke="currentColor" stroke-width="1.58" stroke-linecap="round"/>
</svg>
